<svg width="128" height="44" viewBox="0 0 128 44" fill="none" xmlns="http://www.w3.org/2000/svg">
  <rect x="61" y="5" width="5" height="5" fill="#D9D9D9" />
  <path fill-rule="evenodd" clip-rule="evenodd"
    d="M71 10H66V15V20H71V29H66V34H57V39H47V34H43V29H38V34H33V39H9V44H128V39H123V34H90V29H81V20H76V15H71V10Z"
    fill="#D9D9D9" />
  <rect x="33" y="24" width="5" height="5" fill="#D9D9D9" />
  <rect x="4" y="34" width="5" height="5" fill="#D9D9D9" />
  <path fill-rule="evenodd" clip-rule="evenodd"
    d="M47 0H57V5H61V10H66V20H71V29H66V34H61H57V39H47V34H43V29H38V24H33V29H38V34H33V39H24H14H9V34H4H0V29H4V24H9V20H14V15H24V20H33V15H38V10H43V5H47V0Z"
    fill="white" />
  <path fill-rule="evenodd" clip-rule="evenodd"
    d="M90 15H81V29H90V34H100H105H119V30H105V24H100V20H90V15Z" fill="white" />
</svg>