<svg width="186" height="78" viewBox="0 0 186 78" fill="none" xmlns="http://www.w3.org/2000/svg">
  <rect x="93.7749" y="7.75" width="3.875" height="3.1" fill="#D9D9D9" />
  <rect x="97.6499" y="3.875" width="3.875" height="3.875" fill="#D9D9D9" />
  <rect x="101.525" width="3.875" height="3.875" fill="#D9D9D9" />
  <rect x="116.25" y="22.4751" width="3.1" height="3.1" fill="#D9D9D9" />
  <rect x="119.35" y="19.375" width="3.1" height="3.1" fill="#D9D9D9" />
  <path fill-rule="evenodd" clip-rule="evenodd"
    d="M141.825 10.8501H137.95V26.3501H141.825V10.8501ZM145.7 14.725H141.825V22.475H145.7V14.725Z"
    fill="#D9D9D9" />
  <rect x="134.075" y="7.75" width="3.875" height="3.1" fill="#D9D9D9" />
  <rect x="134.075" y="26.3501" width="3.875" height="3.875" fill="#D9D9D9" />
  <path fill-rule="evenodd" clip-rule="evenodd"
    d="M160.425 44.95H156.55V51.925H160.425V48.825H164.3V44.95H160.425V44.95Z" fill="#D9D9D9" />
  <rect x="164.3" y="41.075" width="3.1" height="3.875" fill="#D9D9D9" />
  <path fill-rule="evenodd" clip-rule="evenodd"
    d="M167.4 51.925H171.275V58.9H167.4V51.925ZM171.275 55.8H175.15V59.675H179.025V62.775H175.15H171.275V55.8Z"
    fill="#D9D9D9" />
  <rect x="179.025" y="62.7749" width="3.875" height="3.875" fill="#D9D9D9" />
  <path fill-rule="evenodd" clip-rule="evenodd"
    d="M97.65 10.8501H78.275V14.7251H75.175V18.6001H71.3V22.4751H67.425V26.3501H63.55V33.3251H60.45V37.2001H45.725V41.0751H41.85V44.1751H37.975V48.8251H34.1V55.8001V59.6751H31V62.7751L27.125 62.7751V66.6501H19.375V62.7751L11.625 62.7751V55.8001H3.875V59.6751H0.775V62.7751L0 62.7751V66.6501H0.775V70.5251V73.6251H3.875V77.5001H182.9V73.6251H167.4V70.5251H160.425V58.9001H156.55V62.7751H152.675V66.6501H144.925V70.5251H123.225V66.6501H119.35V58.9001L115.475 58.9001V55.8001H123.225V51.9251H127.1V48.0501H123.225V51.9251H112.375V48.0501H108.5V44.1751H104.625V41.0751V33.3251H108.5V29.4501H116.25V25.5751L104.625 25.5751V22.4751H100.75V19.3751H97.65V15.5001V10.8501ZM104.625 66.6501V62.7751H112.375V58.9001H108.5V51.9251H104.625V47.2751H101.525V41.0751H93.775V47.2751H89.9V37.2001H93.775V33.3251H97.65V29.4501V26.3501H93.775V19.3751H89.9V15.5001H82.925V18.6001H78.275V22.4751H75.175V26.3501H71.3V33.3251H68.2V37.2001V41.0751H71.3V47.2751H68.2V44.1751H64.325V41.0751H56.575V44.1751H52.7V48.8251H49.6V55.8001H52.7V59.6751H56.575V62.7751L60.45 62.7751V66.6501H82.15V58.9001H86.8V62.7751H90.675V66.6501H104.625Z"
    fill="#D9D9D9" />
  <path fill-rule="evenodd" clip-rule="evenodd"
    d="M27.1249 51.925H8.5249V55.8H11.625V59.675V62.775H19.375V66.65H27.125V62.775H31V59.675H34.1V55.8H27.1249V51.925Z"
    fill="white" />
  <path fill-rule="evenodd" clip-rule="evenodd"
    d="M89.9001 15.5H82.9251V18.6H78.2751V22.475H75.1751V26.35H71.3001L71.3001 33.325H68.2001V41.075H71.3001V47.275H68.2001V44.175L64.3251 44.175V41.075H56.5751V44.175L52.7001 44.175V47.275L52.7001 48.825H49.6001V55.8H52.7001L52.7001 59.675H56.5751V62.775L60.4501 62.775V66.65H82.1501V62.775V59.675V58.9H86.8001V62.775H89.9001H90.6751V66.65H104.625V62.775H112.375V58.9L108.5 58.9V51.925H104.625V47.275L101.525 47.275V41.075H93.7751V47.275L89.9001 47.275V37.2H93.7751V33.325H97.6501V26.35H93.7751V22.475V19.375H89.9001V15.5Z"
    fill="white" />
  <rect x="137.95" y="7.75" width="3.875" height="3.1" fill="white" />
  <rect x="141.825" y="10.8501" width="3.875" height="3.875" fill="white" />
  <path fill-rule="evenodd" clip-rule="evenodd"
    d="M116.25 0H105.4V3.875H101.525V7.75H97.6499V19.375H100.75V22.475H104.625V25.575H116.25V29.45H108.5V33.325H104.625V44.175H108.5V48.05L112.375 48.05V51.925H123.225V55.8H115.475V58.9L119.35 58.9V66.65H123.225V70.525H127.1H144.925L144.925 66.65H152.675V62.775H156.55V48.05V44.95H160.425V37.2H156.55V33.325H152.675L152.675 30.225V26.35V22.475L152.675 18.6H149.575V14.725H145.7V22.475H141.825V26.35H137.95V10.85H134.075V7.75H123.225V3.875H116.25V0ZM137.95 26.35V30.225H134.075V29.45V26.35H137.95ZM123.225 51.925V48.05H127.1V51.925H123.225ZM119.35 22.475V25.575H116.25V22.475H119.35ZM119.35 22.475V19.375H122.45V22.475H119.35ZM156.55 51.925H160.425V48.825H164.3V44.95H167.4V41.075H175.15V44.95H178.25V48.825H182.125V51.925V55.8V59.675H175.15V55.8H171.275V51.925H167.4V58.9L171.275 58.9V62.775H179.025V66.65H186V70.525V73.625H167.4V70.525H160.425V58.9L156.55 58.9V51.925Z"
    fill="white" />
</svg>