<svg width="64" height="32" viewBox="0 0 64 32" fill="none" xmlns="http://www.w3.org/2000/svg">
<rect x="8" y="16" width="8" height="8" fill="white"/>
<rect y="16" width="8" height="8" fill="white"/>
<rect x="16" y="16" width="8" height="8" fill="white"/>
<rect x="24" y="16" width="8" height="8" fill="white"/>
<rect x="32" y="16" width="8" height="8" fill="white"/>
<rect x="40" y="24" width="8" height="8" fill="white"/>
<rect x="32" y="24" width="8" height="8" fill="white"/>
<rect x="24" y="24" width="8" height="8" fill="white"/>
<rect x="24" y="8" width="8" height="8" fill="white"/>
<rect x="16" y="8" width="8" height="8" fill="white"/>
<rect x="32" y="8" width="8" height="8" fill="white"/>
<rect x="40" y="8" width="8" height="8" fill="white"/>
<rect x="48" y="8" width="8" height="8" fill="white"/>
<rect x="56" y="16" width="8" height="8" fill="white"/>
<rect x="32" width="8" height="8" fill="white"/>
<rect x="24" width="8" height="8" fill="white"/>
<rect x="40" y="16" width="8" height="8" fill="white"/>
<rect x="48" y="16" width="8" height="8" fill="white"/>
</svg>
