<svg width="77" height="43" viewBox="0 0 77 43" fill="none" xmlns="http://www.w3.org/2000/svg">
  <rect x="53" y="24" width="9" height="5" fill="#D9D9D9" />
  <path fill-rule="evenodd" clip-rule="evenodd"
    d="M34 5H29V10H24V19H19V24H24V29H19V34H14V29H0V38H9V43H72V38H57V33H53V29H48V33H38V38H33V33H29V29H33V24H43V19H29V14H34V9H38V5H34Z"
    fill="#D9D9D9" />
  <rect x="38" width="5" height="5" fill="#D9D9D9" />
  <rect x="72" y="33" width="5" height="5" fill="#D9D9D9" />
  <path fill-rule="evenodd" clip-rule="evenodd"
    d="M43 0H48V5H52V9H57V14H62V19H67V24H72V29H77V33H72V38H57V33H53V29H62V24H53V29H48V33H38V38H33V33H29V29H33V24H43V19H29V14H34V9H38V5H43V0Z"
    fill="white" />
  <path fill-rule="evenodd" clip-rule="evenodd" d="M9 19H19V24H24V29H19V34H14V29H5V24H9V19Z"
    fill="white" />
</svg>