<svg width="40" height="40" viewBox="0 0 40 40" fill="none" xmlns="http://www.w3.org/2000/svg">
<rect y="36" width="2" height="2" fill="white"/>
<rect y="36" width="2" height="2" fill="white"/>
<rect y="22" width="2" height="2" fill="white"/>
<rect x="2" y="20" width="2" height="2" fill="white"/>
<rect x="4" y="18" width="2" height="2" fill="white"/>
<rect x="6" y="16" width="2" height="2" fill="white"/>
<rect x="12" y="3" width="2" height="2" fill="white"/>
<rect x="10" y="3" width="2" height="2" fill="white"/>
<rect x="8" y="5" width="2" height="2" fill="white"/>
<rect x="8" y="7" width="2" height="2" fill="white"/>
<rect x="8" y="9" width="2" height="2" fill="white"/>
<rect x="10" y="11" width="2" height="2" fill="white"/>
<rect x="12" y="11" width="2" height="2" fill="white"/>
<rect x="14" y="11" width="2" height="2" fill="white"/>
<rect x="16" y="9" width="2" height="2" fill="white"/>
<rect x="16" y="7" width="2" height="2" fill="white"/>
<rect x="16" y="5" width="2" height="2" fill="white"/>
<rect x="14" y="3" width="2" height="2" fill="white"/>
<rect x="8" y="18" width="2" height="2" fill="white"/>
<rect x="10" y="20" width="2" height="2" fill="white"/>
<rect x="12" y="22" width="2" height="2" fill="white"/>
<rect x="14" y="24" width="2" height="2" fill="white"/>
<rect x="6" y="36" width="2" height="2" fill="white"/>
<rect x="12" y="30" width="2" height="2" fill="white"/>
<rect x="14" y="28" width="2" height="2" fill="white"/>
<rect x="16" y="26" width="2" height="2" fill="white"/>
<rect x="18" y="24" width="2" height="2" fill="white"/>
<rect x="20" y="22" width="2" height="2" fill="white"/>
<rect x="22" y="20" width="2" height="2" fill="white"/>
<rect x="24" y="18" width="2" height="2" fill="white"/>
<rect x="26" y="16" width="2" height="2" fill="white"/>
<rect x="28" y="14" width="2" height="2" fill="white"/>
<rect x="30" y="12" width="2" height="2" fill="white"/>
<rect x="32" y="14" width="2" height="2" fill="white"/>
<rect x="34" y="16" width="2" height="2" fill="white"/>
<rect x="36" y="18" width="2" height="2" fill="white"/>
<rect x="38" y="20" width="2" height="2" fill="white"/>
<rect x="38" y="36" width="2" height="2" fill="white"/>
<rect x="38" y="36" width="2" height="2" fill="white"/>
<rect x="36" y="36" width="2" height="2" fill="white"/>
<rect x="34" y="36" width="2" height="2" fill="white"/>
<rect x="32" y="36" width="2" height="2" fill="white"/>
<rect x="30" y="36" width="2" height="2" fill="white"/>
<rect x="28" y="36" width="2" height="2" fill="white"/>
<rect x="26" y="36" width="2" height="2" fill="white"/>
<rect x="24" y="36" width="2" height="2" fill="white"/>
<rect x="22" y="36" width="2" height="2" fill="white"/>
<rect x="20" y="36" width="2" height="2" fill="white"/>
<rect x="18" y="36" width="2" height="2" fill="white"/>
<rect x="16" y="36" width="2" height="2" fill="white"/>
<rect x="14" y="36" width="2" height="2" fill="white"/>
<rect x="12" y="36" width="2" height="2" fill="white"/>
<rect x="10" y="36" width="2" height="2" fill="white"/>
<rect x="8" y="36" width="2" height="2" fill="white"/>
<rect x="6" y="36" width="2" height="2" fill="white"/>
<rect x="4" y="36" width="2" height="2" fill="white"/>
<rect x="2" y="36" width="2" height="2" fill="white"/>
</svg>
