<svg width="20" height="20" viewBox="0 0 20 20" fill="none" xmlns="http://www.w3.org/2000/svg">
<g clip-path="url(#clip0_31_32404)">
<rect x="6" width="2" height="8" fill="black"/>
<rect x="8" width="2" height="8" fill="black"/>
<rect x="10" y="2" width="2" height="2" fill="black"/>
<rect x="10" y="4" width="2" height="2" fill="black"/>
<rect x="4" y="4" width="2" height="2" fill="black"/>
<rect x="4" y="2" width="2" height="2" fill="black"/>
<rect x="4" y="14" width="2" height="6" fill="black"/>
<rect x="2" y="12" width="2" height="8" fill="black"/>
<rect y="10" width="2" height="10" fill="black"/>
<rect x="6" y="16" width="2" height="4" fill="black"/>
<rect x="8" y="14" width="2" height="6" fill="black"/>
<rect x="10" y="12" width="2" height="8" fill="black"/>
<rect x="12" y="10" width="2" height="10" fill="black"/>
<rect x="14" y="8" width="2" height="12" fill="black"/>
<rect x="16" y="6" width="2" height="14" fill="black"/>
<rect x="18" y="4" width="2" height="16" fill="black"/>
</g>
<defs>
<clipPath id="clip0_31_32404">
<rect width="20" height="20" fill="white"/>
</clipPath>
</defs>
</svg>
