<svg width="136" height="80" viewBox="0 0 136 80" fill="none" xmlns="http://www.w3.org/2000/svg">
  <path fill-rule="evenodd" clip-rule="evenodd"
    d="M0 0H64V16H56V40H20V28H8V16H0V0ZM32 36H24V24H12V16H32V36Z" fill="black" />
  <path fill-rule="evenodd" clip-rule="evenodd"
    d="M136 0H72V16H80V28H92V40H128V16H136V0ZM104 36H96V24H84V16H104V36Z" fill="black" />
  <path d="M96 68V60H48V68H96Z" fill="black" />
  <path fill-rule="evenodd" clip-rule="evenodd"
    d="M108 48H32V56H20V72H32V80H128V60H108V48ZM124 64H104V52H36V60H24V68H36V76H124V64Z"
    fill="black" />
</svg>