<svg width="40" height="40" viewBox="0 0 40 40" fill="none" xmlns="http://www.w3.org/2000/svg">
<rect x="16" y="6" width="2" height="24" fill="#F8B431"/>
<rect x="14" y="6" width="2" height="24" fill="#F8B431"/>
<rect x="12" y="8" width="2" height="22" fill="#F8B431"/>
<rect x="10" y="10" width="2" height="2" fill="#F8B431"/>
<rect x="10" y="12" width="2" height="2" fill="#F8B431"/>
<rect x="10" y="14" width="2" height="2" fill="#F8B431"/>
<rect x="10" y="16" width="2" height="2" fill="#F8B431"/>
<rect x="10" y="18" width="2" height="2" fill="#F8B431"/>
<rect x="10" y="20" width="2" height="2" fill="#F8B431"/>
<rect x="10" y="22" width="2" height="2" fill="#F8B431"/>
<rect x="10" y="24" width="2" height="2" fill="#F8B431"/>
<rect x="10" y="26" width="2" height="2" fill="#F8B431"/>
<rect x="14" y="28" width="2" height="2" fill="#F8B431"/>
<rect x="16" y="30" width="2" height="2" fill="#F8B431"/>
<rect x="18" y="32" width="2" height="2" fill="#F8B431"/>
<rect x="22" y="34" width="2" height="2" fill="#F8B431"/>
<rect x="24" y="34" width="2" height="2" fill="#F8B431"/>
<rect x="26" y="32" width="2" height="2" fill="#F8B431"/>
<rect x="28" y="30" width="2" height="2" fill="#F8B431"/>
<rect x="26" y="28" width="2" height="4" fill="#F8B431"/>
<rect x="24" y="26" width="2" height="8" fill="#F8B431"/>
<rect x="22" y="24" width="2" height="10" fill="#F8B431"/>
<rect x="20" y="6" width="2" height="2" fill="#F8B431"/>
<rect x="18" y="2" width="2" height="2" fill="#F8B431"/>
<rect x="18" width="2" height="2" fill="#F8B431"/>
<rect x="14" y="38" width="2" height="2" fill="#F8B431"/>
<rect x="16" y="38" width="2" height="2" fill="#F8B431"/>
<rect x="20" y="38" width="2" height="2" fill="#F8B431"/>
<rect x="22" y="38" width="2" height="2" fill="#F8B431"/>
<rect x="20" y="36" width="2" height="2" fill="#F8B431"/>
<rect x="20" y="34" width="2" height="2" fill="#F8B431"/>
<rect x="14" y="36" width="2" height="2" fill="#F8B431"/>
<rect x="14" y="34" width="2" height="2" fill="#F8B431"/>
<rect x="16" y="32" width="2" height="2" fill="#F8B431"/>
<rect x="14" y="32" width="2" height="2" fill="#F8B431"/>
<rect x="14" y="30" width="2" height="2" fill="#F8B431"/>
<rect x="22" y="22" width="2" height="2" fill="#F8B431"/>
<rect x="22" y="20" width="2" height="2" fill="#F8B431"/>
<rect x="22" y="18" width="2" height="2" fill="#F8B431"/>
<rect x="22" y="16" width="2" height="2" fill="#F8B431"/>
<rect x="22" y="14" width="2" height="2" fill="#F8B431"/>
<rect x="22" y="12" width="2" height="2" fill="#F8B431"/>
<rect x="22" y="10" width="2" height="2" fill="#F8B431"/>
<rect x="20" y="8" width="2" height="26" fill="#F8B431"/>
<rect x="18" y="4" width="2" height="28" fill="#F8B431"/>
</svg>
