<svg width="40" height="40" viewBox="0 0 40 40" fill="none" xmlns="http://www.w3.org/2000/svg">
<rect x="12" y="8" width="2" height="2" fill="#F8B431"/>
<rect x="14" y="6" width="2" height="2" fill="#F8B431"/>
<rect x="16" y="6" width="2" height="2" fill="#F8B431"/>
<rect x="18" y="8" width="2" height="2" fill="#F8B431"/>
<rect x="20" y="8" width="2" height="2" fill="#F8B431"/>
<rect x="22" y="6" width="2" height="2" fill="#F8B431"/>
<rect x="26" y="8" width="2" height="2" fill="#F8B431"/>
<rect x="24" y="6" width="2" height="2" fill="#F8B431"/>
<rect x="12" y="10" width="2" height="2" fill="#F8B431"/>
<rect width="2" height="2" transform="matrix(-1 0 0 1 28 10)" fill="#F8B431"/>
<rect x="12" y="12" width="2" height="2" fill="#F8B431"/>
<rect width="2" height="2" transform="matrix(-1 0 0 1 28 12)" fill="#F8B431"/>
<rect x="10" y="14" width="2" height="2" fill="#F8B431"/>
<rect x="10" y="16" width="2" height="2" fill="#F8B431"/>
<rect x="14" y="18" width="2" height="2" fill="#F8B431"/>
<rect x="18" y="18" width="2" height="2" fill="#F8B431"/>
<rect x="22" y="18" width="2" height="2" fill="#F8B431"/>
<rect x="26" y="18" width="2" height="2" fill="#F8B431"/>
<rect width="2" height="2" transform="matrix(-1 0 0 1 30 14)" fill="#F8B431"/>
<rect width="2" height="2" transform="matrix(-1 0 0 1 30 16)" fill="#F8B431"/>
<rect x="8" y="22" width="2" height="2" fill="#F8B431"/>
<rect x="12" y="24" width="2" height="2" fill="#F8B431"/>
<rect x="12" y="26" width="2" height="2" fill="#F8B431"/>
<rect x="12" y="28" width="2" height="2" fill="#F8B431"/>
<rect x="14" y="30" width="2" height="2" fill="#F8B431"/>
<rect x="16" y="32" width="2" height="2" fill="#F8B431"/>
<rect x="22" y="32" width="2" height="2" fill="#F8B431"/>
<rect x="24" y="30" width="2" height="2" fill="#F8B431"/>
<rect x="26" y="28" width="2" height="2" fill="#F8B431"/>
<rect x="26" y="26" width="2" height="2" fill="#F8B431"/>
<rect x="26" y="24" width="2" height="2" fill="#F8B431"/>
<rect x="6" y="22" width="2" height="2" fill="#F8B431"/>
<rect x="2" y="20" width="2" height="2" fill="#F8B431"/>
<rect x="4" y="20" width="2" height="2" fill="#F8B431"/>
<rect y="18" width="2" height="2" fill="#F8B431"/>
<rect y="16" width="2" height="2" fill="#F8B431"/>
<rect x="10" y="18" width="2" height="2" fill="#F8B431"/>
<rect x="10" y="20" width="2" height="2" fill="#F8B431"/>
<rect x="10" y="22" width="2" height="2" fill="#F8B431"/>
<rect x="16" y="22" width="2" height="2" fill="#F8B431"/>
<rect x="14" y="22" width="2" height="2" fill="#F8B431"/>
<rect x="12" y="22" width="2" height="2" fill="#F8B431"/>
<rect x="26" y="22" width="2" height="2" fill="#F8B431"/>
<rect x="18" y="22" width="2" height="2" fill="#F8B431"/>
<rect x="20" y="22" width="2" height="2" fill="#F8B431"/>
<rect x="22" y="22" width="2" height="2" fill="#F8B431"/>
<rect x="24" y="22" width="2" height="2" fill="#F8B431"/>
<rect x="28" y="20" width="2" height="2" fill="#F8B431"/>
<rect x="28" y="22" width="2" height="2" fill="#F8B431"/>
<rect x="30" y="22" width="2" height="2" fill="#F8B431"/>
<rect x="28" y="18" width="2" height="2" fill="#F8B431"/>
<rect x="34" y="20" width="2" height="2" fill="#F8B431"/>
<rect x="32" y="22" width="2" height="2" fill="#F8B431"/>
<rect x="36" y="20" width="2" height="2" fill="#F8B431"/>
<rect x="38" y="18" width="2" height="2" fill="#F8B431"/>
<rect x="38" y="16" width="2" height="2" fill="#F8B431"/>
</svg>
