<svg width="20" height="20" viewBox="0 0 20 20" fill="none" xmlns="http://www.w3.org/2000/svg">
<rect x="2" y="18" width="4" height="2" fill="black"/>
<rect x="6" y="18" width="2" height="2" fill="black"/>
<rect x="8" y="18" width="2" height="2" fill="black"/>
<rect x="10" y="18" width="2" height="2" fill="black"/>
<rect x="10" width="2" height="2" fill="black"/>
<rect x="10" y="2" width="2" height="2" fill="black"/>
<rect x="10" y="4" width="2" height="2" fill="black"/>
<rect x="8" y="2" width="2" height="2" fill="black"/>
<rect x="8" width="2" height="2" fill="black"/>
<rect x="10" y="6" width="2" height="2" fill="black"/>
<rect x="12" y="8" width="2" height="2" fill="black"/>
<rect x="14" y="10" width="2" height="2" fill="black"/>
<rect x="14" y="12" width="2" height="2" fill="black"/>
<rect x="14" y="14" width="2" height="2" fill="black"/>
<rect x="14" y="16" width="2" height="2" fill="black"/>
<rect x="8" y="8" width="4" height="2" fill="black"/>
<rect x="6" y="10" width="8" height="2" fill="black"/>
<rect x="4" y="12" width="10" height="2" fill="black"/>
<rect x="4" y="14" width="10" height="2" fill="black"/>
<rect x="2" y="16" width="12" height="2" fill="black"/>
<rect x="12" y="18" width="2" height="2" fill="black"/>
<rect x="14" y="18" width="2" height="2" fill="black"/>
<rect x="16" y="18" width="2" height="2" fill="black"/>
<rect x="16" y="16" width="2" height="2" fill="black"/>
</svg>
