<svg width="294" height="80" viewBox="0 0 294 80" fill="none" xmlns="http://www.w3.org/2000/svg">
  <path fill-rule="evenodd" clip-rule="evenodd"
    d="M0 0H16V48H48V64H16H0V0ZM186 0H202V32H218V48H202V64H186V0ZM218 48H234V64H218V48ZM218 32V16H234V32H218ZM294 32H278V48H246V64H294V48V32ZM262 16H246V32H262V16ZM262 0H294V16H262V0ZM34 0H98V16H90V40H66H54V36V28H42V24V16H34V0ZM66 36H58V24H54H46V16H66V36ZM108 0H172V16H164V40H140H128V36V28H116V24V16H108V0ZM140 36H132V24H128H120V16H140V36ZM68 48H144V52V60H164V64V76V80H68V76V72H58V68V60V56H68V52V48ZM160 76V64H140V60V52H72V56V60H62V68H72V72V76H160ZM132 60H88V68H132V60Z"
    fill="black" />
</svg>