<svg width="200" height="400" viewBox="0 0 200 400" fill="none" xmlns="http://www.w3.org/2000/svg">
<g clip-path="url(#clip0_68_3334)">
<path d="M110 30H107V34H110V30Z" fill="#5F2F09"/>
<path d="M113 30H110V33H113V30Z" fill="#512B0D"/>
<path d="M114 30H113V33H114V30Z" fill="#502B0D"/>
<path d="M114 33H110V34H114V33Z" fill="#512B0D"/>
<path d="M114 34H107V37H114V34Z" fill="#5F2F09"/>
<path d="M120 34H114V36H120V34Z" fill="#4E2B0E"/>
<path d="M116 36H114V43H116V36Z" fill="#4E2B0E"/>
<path d="M117 36H116V43H117V36Z" fill="#4F2B0E"/>
<path d="M120 36H117V37H120V36Z" fill="#4E2B0E"/>
<path d="M110 37H104V43H110V37Z" fill="#5F2F09"/>
<path d="M114 37H110V43H114V37Z" fill="#D8D5D5"/>
<path d="M120 37H117V43H120V37Z" fill="#D8D5D5"/>
<path d="M124 37H120V43H124V37Z" fill="#4E2B0E"/>
<path d="M106 43H104V44H106V43Z" fill="#5F2F09"/>
<path d="M107 43H106V44H107V43Z" fill="#5E2F09"/>
<path d="M110 43H107V44H110V43Z" fill="#5F2F09"/>
<path d="M114 43H110V44H114V43Z" fill="#D9D5D5"/>
<path d="M116 43H114V44H116V43Z" fill="#4F2B0E"/>
<path d="M117 43H116V44H117V43Z" fill="#4E2B0E"/>
<path d="M120 43H117V44H120V43Z" fill="#D9D5D5"/>
<path d="M124 43H120V44H124V43Z" fill="#4F2B0E"/>
<path d="M44 44H40V46H44V44Z" fill="#4E2B0E"/>
<path d="M107 44H100V50H107V44Z" fill="#5F2F09"/>
<path d="M110 44H107V50H110V44Z" fill="#D8D5D5"/>
<path d="M114 44H110V50H114V44Z" fill="#4E2B0E"/>
<path d="M117 44H114V50H117V44Z" fill="#D8D5D5"/>
<path d="M120 44H117V50H120V44Z" fill="#4E2B0E"/>
<path d="M43 46H40V47H43V46Z" fill="#4E2B0E"/>
<path d="M44 46H43V47H44V46Z" fill="#4F2B0E"/>
<path d="M40 47H37V50H40V47Z" fill="#4E2B0E"/>
<path d="M44 47H40V50H44V47Z" fill="#D8D5D5"/>
<path d="M50 47H44V50H50V47Z" fill="#4E2B0E"/>
<path d="M44 50H37V53H44V50Z" fill="#4E2B0E"/>
<path d="M50 50H44V53H50V50Z" fill="#D8D5D5"/>
<path d="M57 50H50V53H57V50Z" fill="#4E2B0E"/>
<path d="M103 50H97V57H103V50Z" fill="#5F2F09"/>
<path d="M104 50H103V57H104V50Z" fill="#5E2F09"/>
<path d="M107 50H104V56H107V50Z" fill="#D8D5D5"/>
<path d="M110 50H107V57H110V50Z" fill="#4E2B0E"/>
<path d="M114 50H110V57H114V50Z" fill="#D8D5D5"/>
<path d="M117 50H114V60H117V50Z" fill="#4E2B0E"/>
<path d="M44 53H37V54H44V53Z" fill="#4F2B0E"/>
<path d="M50 53H44V54H50V53Z" fill="#D9D5D5"/>
<path d="M57 53H50V54H57V53Z" fill="#4F2B0E"/>
<path d="M36 54H34V57H36V54Z" fill="#4E2B0E"/>
<path d="M37 54H36V57H37V54Z" fill="#4F2B0E"/>
<path d="M44 54H37V56H44V54Z" fill="#D8D5D5"/>
<path d="M50 54H44V57H50V54Z" fill="#4E2B0E"/>
<path d="M57 54H50V56H57V54Z" fill="#D8D5D5"/>
<path d="M64 54H57V56H64V54Z" fill="#4E2B0E"/>
<path d="M40 56H37V57H40V56Z" fill="#D8D5D5"/>
<path d="M44 56H40V57H44V56Z" fill="#D9D5D5"/>
<path d="M57 56H50V57H57V56Z" fill="#D9D5D5"/>
<path d="M63 56H57V57H63V56Z" fill="#4E2B0E"/>
<path d="M64 56H63V57H64V56Z" fill="#4F2B0E"/>
<path d="M107 56H104V57H107V56Z" fill="#D9D5D5"/>
<path d="M40 57H34V60H40V57Z" fill="#5F2F09"/>
<path d="M44 57H40V60H44V57Z" fill="#4E2B0E"/>
<path d="M50 57H44V60H50V57Z" fill="#D8D5D5"/>
<path d="M56 57H50V60H56V57Z" fill="#4E2B0E"/>
<path d="M57 57H56V60H57V57Z" fill="#4F2B0E"/>
<path d="M64 57H57V60H64V57Z" fill="#D8D5D5"/>
<path d="M70 57H64V60H70V57Z" fill="#4E2B0E"/>
<path d="M100 57H94V63H100V57Z" fill="#5F2F09"/>
<path d="M104 57H100V63H104V57Z" fill="#D8D5D5"/>
<path d="M106 57H104V63H106V57Z" fill="#4E2B0E"/>
<path d="M107 57H106V63H107V57Z" fill="#4F2B0E"/>
<path d="M114 57H107V60H114V57Z" fill="#D8D5D5"/>
<path d="M46 60H34V64H46V60Z" fill="#5F2F09"/>
<path d="M47 60H46V64H47V60Z" fill="#5E2F09"/>
<path d="M50 60H47V63H50V60Z" fill="#4E2B0E"/>
<path d="M57 60H50V63H57V60Z" fill="#D8D5D5"/>
<path d="M64 60H57V63H64V60Z" fill="#4E2B0E"/>
<path d="M70 60H64V63H70V60Z" fill="#D8D5D5"/>
<path d="M77 60H70V63H77V60Z" fill="#4E2B0E"/>
<path d="M110 60H107V64H110V60Z" fill="#D8D5D5"/>
<path d="M114 60H110V66H114V60Z" fill="#4E2B0E"/>
<path d="M50 63H47V64H50V63Z" fill="#4F2B0E"/>
<path d="M56 63H50V64H56V63Z" fill="#D9D5D5"/>
<path d="M57 63H56V64H57V63Z" fill="#D8D5D5"/>
<path d="M64 63H57V64H64V63Z" fill="#4F2B0E"/>
<path d="M70 63H64V64H70V63Z" fill="#D9D5D5"/>
<path d="M77 63H70V64H77V63Z" fill="#4F2B0E"/>
<path d="M96 63H94V64H96V63Z" fill="#5F2F09"/>
<path d="M97 63H96V64H97V63Z" fill="#5E2F09"/>
<path d="M100 63H97V64H100V63Z" fill="#5F2F09"/>
<path d="M104 63H100V64H104V63Z" fill="#D9D5D5"/>
<path d="M107 63H104V64H107V63Z" fill="#4F2B0E"/>
<path d="M54 64H40V66H54V64Z" fill="#5F2F09"/>
<path d="M56 64H54V67H56V64Z" fill="#4E2B0E"/>
<path d="M57 64H56V67H57V64Z" fill="#4F2B0E"/>
<path d="M64 64H57V66H64V64Z" fill="#D8D5D5"/>
<path d="M70 64H64V67H70V64Z" fill="#4E2B0E"/>
<path d="M77 64H70V66H77V64Z" fill="#D8D5D5"/>
<path d="M84 64H77V66H84V64Z" fill="#4E2B0E"/>
<path d="M97 64H90V70H97V64Z" fill="#5F2F09"/>
<path d="M100 64H97V70H100V64Z" fill="#D8D5D5"/>
<path d="M104 64H100V70H104V64Z" fill="#4E2B0E"/>
<path d="M110 64H104V66H110V64Z" fill="#D8D5D5"/>
<path d="M47 66H40V67H47V66Z" fill="#5E2F09"/>
<path d="M54 66H47V67H54V66Z" fill="#5F2F09"/>
<path d="M60 66H57V67H60V66Z" fill="#D8D5D5"/>
<path d="M64 66H60V67H64V66Z" fill="#D9D5D5"/>
<path d="M77 66H70V67H77V66Z" fill="#D9D5D5"/>
<path d="M83 66H77V67H83V66Z" fill="#4E2B0E"/>
<path d="M84 66H83V67H84V66Z" fill="#4F2B0E"/>
<path d="M107 66H104V70H107V66Z" fill="#D8D5D5"/>
<path d="M110 66H107V67H110V66Z" fill="#D9D5D5"/>
<path d="M113 66H110V67H113V66Z" fill="#4F2B0E"/>
<path d="M114 66H113V67H114V66Z" fill="#4E2B0E"/>
<path d="M60 67H47V70H60V67Z" fill="#5F2F09"/>
<path d="M64 67H60V70H64V67Z" fill="#4E2B0E"/>
<path d="M70 67H64V70H70V67Z" fill="#D8D5D5"/>
<path d="M76 67H70V70H76V67Z" fill="#4E2B0E"/>
<path d="M77 67H76V70H77V67Z" fill="#4F2B0E"/>
<path d="M80 67H77V70H80V67Z" fill="#D8D5D5"/>
<path d="M84 67H80V70H84V67Z" fill="#4E2B0E"/>
<path d="M86 67H84V70H86V67Z" fill="#BB5D10"/>
<path d="M87 67H86V70H87V67Z" fill="#BA5D10"/>
<path d="M90 67H87V70H90V67Z" fill="#E87516"/>
<path d="M110 67H107V73H110V67Z" fill="#4E2B0E"/>
<path d="M66 70H54V74H66V70Z" fill="#5F2F09"/>
<path d="M67 70H66V74H67V70Z" fill="#5E2F09"/>
<path d="M70 70H67V73H70V70Z" fill="#4E2B0E"/>
<path d="M77 70H70V73H77V70Z" fill="#D8D5D5"/>
<path d="M83 70H77V73H83V70Z" fill="#4E2B0E"/>
<path d="M84 70H83V73H84V70Z" fill="#4F2B0E"/>
<path d="M86 70H84V74H86V70Z" fill="#B86D2F"/>
<path d="M87 70H86V74H87V70Z" fill="#B96D2F"/>
<path d="M93 70H87V73H93V70Z" fill="#5F2F09"/>
<path d="M94 70H93V73H94V70Z" fill="#5E2F09"/>
<path d="M97 70H94V73H97V70Z" fill="#D8D5D5"/>
<path d="M100 70H97V74H100V70Z" fill="#4E2B0E"/>
<path d="M107 70H100V73H107V70Z" fill="#D8D5D5"/>
<path d="M70 73H67V74H70V73Z" fill="#4F2B0E"/>
<path d="M77 73H70V74H77V73Z" fill="#D9D5D5"/>
<path d="M80 73H77V74H80V73Z" fill="#4E2B0E"/>
<path d="M83 73H80V74H83V73Z" fill="#4F2B0E"/>
<path d="M84 73H83V74H84V73Z" fill="#4E2B0E"/>
<path d="M90 73H87V74H90V73Z" fill="#5F2F09"/>
<path d="M93 73H90V74H93V73Z" fill="#5E2F09"/>
<path d="M94 73H93V74H94V73Z" fill="#5F2F09"/>
<path d="M97 73H94V74H97V73Z" fill="#D9D5D5"/>
<path d="M103 73H100V74H103V73Z" fill="#D8D5D5"/>
<path d="M106 73H103V74H106V73Z" fill="#D9D5D5"/>
<path d="M107 73H106V74H107V73Z" fill="#D8D5D5"/>
<path d="M110 73H107V74H110V73Z" fill="#4F2B0E"/>
<path d="M74 74H60V76H74V74Z" fill="#5F2F09"/>
<path d="M80 74H74V77H80V74Z" fill="#4E2B0E"/>
<path d="M87 74H80V76H87V74Z" fill="#D96303"/>
<path d="M94 74H87V76H94V74Z" fill="#5F2F09"/>
<path d="M100 74H94V77H100V74Z" fill="#4E2B0E"/>
<path d="M104 74H100V76H104V74Z" fill="#D8D5D5"/>
<path d="M107 74H104V77H107V74Z" fill="#4E2B0E"/>
<path d="M63 76H60V77H63V76Z" fill="#5E2F09"/>
<path d="M64 76H63V77H64V76Z" fill="#5F2F09"/>
<path d="M67 76H64V77H67V76Z" fill="#5E2F09"/>
<path d="M74 76H67V77H74V76Z" fill="#5F2F09"/>
<path d="M87 76H80V77H87V76Z" fill="#D86303"/>
<path d="M90 76H87V77H90V76Z" fill="#5F2F09"/>
<path d="M94 76H90V77H94V76Z" fill="#5E2F09"/>
<path d="M103 76H100V77H103V76Z" fill="#D9D5D5"/>
<path d="M104 76H103V77H104V76Z" fill="#D8D5D5"/>
<path d="M66 77H64V80H66V77Z" fill="#B86D2F"/>
<path d="M67 77H66V80H67V77Z" fill="#B96D2F"/>
<path d="M93 77H67V80H93V77Z" fill="#5F2F09"/>
<path d="M94 77H93V84H94V77Z" fill="#5E2F09"/>
<path d="M100 77H94V80H100V77Z" fill="#B86D2F"/>
<path d="M107 77H100V80H107V77Z" fill="#4E2B0E"/>
<path d="M110 77H107V80H110V77Z" fill="#B86D2F"/>
<path d="M74 80H64V83H74V80Z" fill="#BB5D10"/>
<path d="M87 80H74V83H87V80Z" fill="#5F2F09"/>
<path d="M90 80H87V84H90V80Z" fill="#6B370F"/>
<path d="M93 80H90V84H93V80Z" fill="#5F2F09"/>
<path d="M100 80H94V84H100V80Z" fill="#D96303"/>
<path d="M110 80H100V83H110V80Z" fill="#E87516"/>
<path d="M73 83H64V84H73V83Z" fill="#BA5D10"/>
<path d="M74 83H73V84H74V83Z" fill="#BB5D10"/>
<path d="M86 83H74V84H86V83Z" fill="#5F2F09"/>
<path d="M87 83H86V84H87V83Z" fill="#5E2F09"/>
<path d="M110 83H100V84H110V83Z" fill="#E97516"/>
<path d="M83 84H60V86H83V84Z" fill="#B86D2F"/>
<path d="M84 84H83V86H84V84Z" fill="#B96D2F"/>
<path d="M100 84H84V86H100V84Z" fill="#5F2F09"/>
<path d="M114 84H100V86H114V84Z" fill="#B86D2F"/>
<path d="M73 86H60V87H73V86Z" fill="#B86D2F"/>
<path d="M74 86H73V87H74V86Z" fill="#B96D2F"/>
<path d="M84 86H74V87H84V86Z" fill="#B86D2F"/>
<path d="M93 86H84V87H93V86Z" fill="#5F2F09"/>
<path d="M94 86H93V87H94V86Z" fill="#5E2F09"/>
<path d="M100 86H94V87H100V86Z" fill="#5F2F09"/>
<path d="M113 86H100V87H113V86Z" fill="#B86D2F"/>
<path d="M114 86H113V87H114V86Z" fill="#B96D2F"/>
<path d="M67 87H60V90H67V87Z" fill="#BB5D10"/>
<path d="M74 87H67V90H74V87Z" fill="#4E2B0E"/>
<path d="M84 87H74V90H84V87Z" fill="#D96303"/>
<path d="M90 87H84V90H90V87Z" fill="#5F2F09"/>
<path d="M94 87H90V90H94V87Z" fill="#D96303"/>
<path d="M106 87H94V90H106V87Z" fill="#5F2F09"/>
<path d="M107 87H106V90H107V87Z" fill="#5E2F09"/>
<path d="M114 87H107V90H114V87Z" fill="#E87516"/>
<path d="M66 90H60V93H66V90Z" fill="#B86D2F"/>
<path d="M67 90H66V93H67V90Z" fill="#B96D2F"/>
<path d="M70 90H67V93H70V90Z" fill="#4E2B0E"/>
<path d="M74 90H70V94H74V90Z" fill="#D8D5D5"/>
<path d="M80 90H74V93H80V90Z" fill="#4E2B0E"/>
<path d="M87 90H80V94H87V90Z" fill="#5F2F09"/>
<path d="M93 90H87V94H93V90Z" fill="#B86D2F"/>
<path d="M94 90H93V94H94V90Z" fill="#B96D2F"/>
<path d="M96 90H94V94H96V90Z" fill="#4E2B0E"/>
<path d="M97 90H96V94H97V90Z" fill="#4F2B0E"/>
<path d="M100 90H97V93H100V90Z" fill="#D8D5D5"/>
<path d="M114 90H100V94H114V90Z" fill="#5F2F09"/>
<path d="M67 93H60V94H67V93Z" fill="#B86D2F"/>
<path d="M70 93H67V94H70V93Z" fill="#4F2B0E"/>
<path d="M76 93H74V96H76V93Z" fill="#4E2B0E"/>
<path d="M80 93H76V94H80V93Z" fill="#4F2B0E"/>
<path d="M100 93H97V94H100V93Z" fill="#D9D5D5"/>
<path d="M63 94H60V96H63V94Z" fill="#BB5D10"/>
<path d="M64 94H63V96H64V94Z" fill="#BA5D10"/>
<path d="M66 94H64V100H66V94Z" fill="#4E2B0E"/>
<path d="M67 94H66V100H67V94Z" fill="#4F2B0E"/>
<path d="M74 94H67V96H74V94Z" fill="#D8D5D5"/>
<path d="M77 94H76V96H77V94Z" fill="#4F2B0E"/>
<path d="M80 94H77V97H80V94Z" fill="#D8D5D5"/>
<path d="M86 94H80V96H86V94Z" fill="#5F2F09"/>
<path d="M87 94H86V97H87V94Z" fill="#5E2F09"/>
<path d="M93 94H87V96H93V94Z" fill="#D96303"/>
<path d="M94 94H93V96H94V94Z" fill="#D86303"/>
<path d="M100 94H94V97H100V94Z" fill="#4E2B0E"/>
<path d="M107 94H100V96H107V94Z" fill="#D8D5D5"/>
<path d="M120 94H107V96H120V94Z" fill="#5F2F09"/>
<path d="M64 96H60V97H64V96Z" fill="#BA5D10"/>
<path d="M70 96H67V100H70V96Z" fill="#D8D5D5"/>
<path d="M74 96H70V97H74V96Z" fill="#D9D5D5"/>
<path d="M77 96H74V97H77V96Z" fill="#4E2B0E"/>
<path d="M83 96H80V97H83V96Z" fill="#5F2F09"/>
<path d="M84 96H83V103H84V96Z" fill="#5E2F09"/>
<path d="M86 96H84V97H86V96Z" fill="#5F2F09"/>
<path d="M93 96H87V97H93V96Z" fill="#D86303"/>
<path d="M94 96H93V97H94V96Z" fill="#D96303"/>
<path d="M107 96H100V97H107V96Z" fill="#D9D5D5"/>
<path d="M113 96H107V97H113V96Z" fill="#5F2F09"/>
<path d="M114 96H113V97H114V96Z" fill="#5E2F09"/>
<path d="M120 96H114V97H120V96Z" fill="#5F2F09"/>
<path d="M74 97H70V103H74V97Z" fill="#4E2B0E"/>
<path d="M77 97H74V103H77V97Z" fill="#D8D5D5"/>
<path d="M83 97H77V103H83V97Z" fill="#5F2F09"/>
<path d="M86 97H84V113H86V97Z" fill="#CC8E21"/>
<path d="M87 97H86V113H87V97Z" fill="#CD8E21"/>
<path d="M90 97H87V110H90V97Z" fill="#DB9826"/>
<path d="M94 97H90V100H94V97Z" fill="#4E2B0E"/>
<path d="M100 97H94V100H100V97Z" fill="#D8D5D5"/>
<path d="M106 97H100V100H106V97Z" fill="#4E2B0E"/>
<path d="M107 97H106V100H107V97Z" fill="#4F2B0E"/>
<path d="M114 97H107V100H114V97Z" fill="#D8D5D5"/>
<path d="M126 97H114V100H126V97Z" fill="#5F2F09"/>
<path d="M127 97H126V100H127V97Z" fill="#5E2F09"/>
<path d="M64 100H60V107H64V100Z" fill="#4E2B0E"/>
<path d="M70 100H64V103H70V100Z" fill="#D8D5D5"/>
<path d="M93 100H90V103H93V100Z" fill="#E39F2B"/>
<path d="M94 100H93V103H94V100Z" fill="#E29F2B"/>
<path d="M100 100H94V103H100V100Z" fill="#4E2B0E"/>
<path d="M107 100H100V103H107V100Z" fill="#D8D5D5"/>
<path d="M114 100H107V103H114V100Z" fill="#4E2B0E"/>
<path d="M120 100H114V103H120V100Z" fill="#D8D5D5"/>
<path d="M134 100H120V104H134V100Z" fill="#5F2F09"/>
<path d="M66 103H64V104H66V103Z" fill="#D8D5D5"/>
<path d="M70 103H66V104H70V103Z" fill="#D9D5D5"/>
<path d="M74 103H70V104H74V103Z" fill="#4F2B0E"/>
<path d="M77 103H74V104H77V103Z" fill="#D9D5D5"/>
<path d="M84 103H77V104H84V103Z" fill="#5F2F09"/>
<path d="M94 103H90V104H94V103Z" fill="#E39F2B"/>
<path d="M96 103H94V104H96V103Z" fill="#4E2B0E"/>
<path d="M100 103H96V104H100V103Z" fill="#4F2B0E"/>
<path d="M106 103H100V104H106V103Z" fill="#D9D5D5"/>
<path d="M107 103H106V104H107V103Z" fill="#D8D5D5"/>
<path d="M114 103H107V104H114V103Z" fill="#4F2B0E"/>
<path d="M120 103H114V104H120V103Z" fill="#D9D5D5"/>
<path d="M67 104H64V107H67V104Z" fill="#D8D5D5"/>
<path d="M70 104H67V110H70V104Z" fill="#4E2B0E"/>
<path d="M74 104H70V110H74V104Z" fill="#D8D5D5"/>
<path d="M80 104H74V110H80V104Z" fill="#5F2F09"/>
<path d="M83 104H80V114H83V104Z" fill="#D39225"/>
<path d="M84 104H83V114H84V104Z" fill="#D29225"/>
<path d="M96 104H90V106H96V104Z" fill="#E39F2B"/>
<path d="M97 104H96V106H97V104Z" fill="#E29F2B"/>
<path d="M100 104H97V106H100V104Z" fill="#F7B84C"/>
<path d="M106 104H100V106H106V104Z" fill="#4E2B0E"/>
<path d="M107 104H106V106H107V104Z" fill="#4F2B0E"/>
<path d="M114 104H107V106H114V104Z" fill="#D8D5D5"/>
<path d="M120 104H114V107H120V104Z" fill="#4E2B0E"/>
<path d="M127 104H120V106H127V104Z" fill="#D8D5D5"/>
<path d="M140 104H127V106H140V104Z" fill="#5F2F09"/>
<path d="M97 106H90V107H97V106Z" fill="#E39F2B"/>
<path d="M100 106H97V107H100V106Z" fill="#F6B84C"/>
<path d="M107 106H100V107H107V106Z" fill="#4F2B0E"/>
<path d="M114 106H107V107H114V106Z" fill="#D9D5D5"/>
<path d="M127 106H120V107H127V106Z" fill="#D9D5D5"/>
<path d="M133 106H127V107H133V106Z" fill="#5F2F09"/>
<path d="M134 106H133V107H134V106Z" fill="#5E2F09"/>
<path d="M140 106H134V110H140V106Z" fill="#5F2F09"/>
<path d="M60 107H57V113H60V107Z" fill="#4E2B0E"/>
<path d="M67 107H60V110H67V107Z" fill="#D8D5D5"/>
<path d="M100 107H90V110H100V107Z" fill="#E39F2B"/>
<path d="M106 107H100V110H106V107Z" fill="#EEAB38"/>
<path d="M107 107H106V110H107V107Z" fill="#EFAB38"/>
<path d="M114 107H107V110H114V107Z" fill="#4E2B0E"/>
<path d="M120 107H114V110H120V107Z" fill="#D8D5D5"/>
<path d="M126 107H120V110H126V107Z" fill="#4E2B0E"/>
<path d="M127 107H126V110H127V107Z" fill="#4F2B0E"/>
<path d="M134 107H127V110H134V107Z" fill="#D8D5D5"/>
<path d="M64 110H60V113H64V110Z" fill="#D8D5D5"/>
<path d="M66 110H64V113H66V110Z" fill="#4E2B0E"/>
<path d="M67 110H66V113H67V110Z" fill="#4F2B0E"/>
<path d="M70 110H67V114H70V110Z" fill="#D8D5D5"/>
<path d="M77 110H70V116H77V110Z" fill="#5F2F09"/>
<path d="M80 110H77V117H80V110Z" fill="#CC8E21"/>
<path d="M90 110H87V114H90V110Z" fill="#2A1505"/>
<path d="M94 110H90V113H94V110Z" fill="#B67D03"/>
<path d="M100 110H94V113H100V110Z" fill="#E39F2B"/>
<path d="M114 110H100V113H114V110Z" fill="#EEAB38"/>
<path d="M120 110H114V113H120V110Z" fill="#4E2B0E"/>
<path d="M127 110H120V113H127V110Z" fill="#D8D5D5"/>
<path d="M140 110H127V113H140V110Z" fill="#4E2B0E"/>
<path d="M60 113H57V114H60V113Z" fill="#4F2B0E"/>
<path d="M64 113H60V114H64V113Z" fill="#D9D5D5"/>
<path d="M67 113H64V114H67V113Z" fill="#4F2B0E"/>
<path d="M87 113H84V114H87V113Z" fill="#CC8E21"/>
<path d="M93 113H90V114H93V113Z" fill="#B67D03"/>
<path d="M94 113H93V114H94V113Z" fill="#B77D03"/>
<path d="M96 113H94V114H96V113Z" fill="#E39F2B"/>
<path d="M97 113H96V114H97V113Z" fill="#E29F2B"/>
<path d="M100 113H97V114H100V113Z" fill="#E39F2B"/>
<path d="M113 113H100V114H113V113Z" fill="#EEAB38"/>
<path d="M114 113H113V114H114V113Z" fill="#EFAB38"/>
<path d="M120 113H114V114H120V113Z" fill="#4F2B0E"/>
<path d="M126 113H120V114H126V113Z" fill="#D9D5D5"/>
<path d="M127 113H126V114H127V113Z" fill="#D8D5D5"/>
<path d="M134 113H127V114H134V113Z" fill="#4F2B0E"/>
<path d="M137 113H134V116H137V113Z" fill="#4E2B0E"/>
<path d="M140 113H137V114H140V113Z" fill="#4F2B0E"/>
<path d="M56 114H54V120H56V114Z" fill="#4E2B0E"/>
<path d="M57 114H56V120H57V114Z" fill="#4F2B0E"/>
<path d="M60 114H57V120H60V114Z" fill="#D8D5D5"/>
<path d="M64 114H60V120H64V114Z" fill="#4E2B0E"/>
<path d="M70 114H64V116H70V114Z" fill="#D8D5D5"/>
<path d="M84 114H80V127H84V114Z" fill="#D39225"/>
<path d="M94 114H84V126H94V114Z" fill="#2A1505"/>
<path d="M96 114H94V127H96V114Z" fill="#B67D03"/>
<path d="M97 114H96V127H97V114Z" fill="#B77D03"/>
<path d="M104 114H97V120H104V114Z" fill="#E39F2B"/>
<path d="M114 114H104V120H114V114Z" fill="#EEAB38"/>
<path d="M126 114H120V116H126V114Z" fill="#4E2B0E"/>
<path d="M127 114H126V116H127V114Z" fill="#4F2B0E"/>
<path d="M134 114H127V116H134V114Z" fill="#D8D5D5"/>
<path d="M66 116H64V117H66V116Z" fill="#D8D5D5"/>
<path d="M67 116H66V117H67V116Z" fill="#D9D5D5"/>
<path d="M70 116H67V117H70V116Z" fill="#D8D5D5"/>
<path d="M73 116H70V117H73V116Z" fill="#5F2F09"/>
<path d="M74 116H73V124H74V116Z" fill="#5E2F09"/>
<path d="M77 116H74V117H77V116Z" fill="#5F2F09"/>
<path d="M127 116H120V117H127V116Z" fill="#4F2B0E"/>
<path d="M134 116H127V117H134V116Z" fill="#D9D5D5"/>
<path d="M136 116H134V117H136V116Z" fill="#4F2B0E"/>
<path d="M137 116H136V117H137V116Z" fill="#4E2B0E"/>
<path d="M67 117H64V120H67V117Z" fill="#D8D5D5"/>
<path d="M73 117H67V124H73V117Z" fill="#5F2F09"/>
<path d="M80 117H74V150H80V117Z" fill="#CC8E21"/>
<path d="M134 117H127V120H134V117Z" fill="#4E2B0E"/>
<path d="M54 120H50V126H54V120Z" fill="#4E2B0E"/>
<path d="M57 120H54V126H57V120Z" fill="#D8D5D5"/>
<path d="M60 120H57V127H60V120Z" fill="#4E2B0E"/>
<path d="M67 120H60V123H67V120Z" fill="#D8D5D5"/>
<path d="M103 120H97V123H103V120Z" fill="#E39F2B"/>
<path d="M104 120H103V123H104V120Z" fill="#E29F2B"/>
<path d="M107 120H104V124H107V120Z" fill="#F7B84C"/>
<path d="M114 120H107V124H114V120Z" fill="#EEAB38"/>
<path d="M64 123H60V127H64V123Z" fill="#D8D5D5"/>
<path d="M67 123H64V124H67V123Z" fill="#D9D5D5"/>
<path d="M104 123H97V127H104V123Z" fill="#E39F2B"/>
<path d="M70 124H64V130H70V124Z" fill="#5F2F09"/>
<path d="M74 124H70V127H74V124Z" fill="#F7B84C"/>
<path d="M114 124H104V140H114V124Z" fill="#EEAB38"/>
<path d="M53 126H50V127H53V126Z" fill="#4E2B0E"/>
<path d="M54 126H53V127H54V126Z" fill="#4F2B0E"/>
<path d="M57 126H54V127H57V126Z" fill="#D9D5D5"/>
<path d="M86 126H84V127H86V126Z" fill="#2A1505"/>
<path d="M87 126H86V127H87V126Z" fill="#2B1505"/>
<path d="M93 126H87V127H93V126Z" fill="#2A1505"/>
<path d="M94 126H93V127H94V126Z" fill="#2B1505"/>
<path d="M50 127H47V130H50V127Z" fill="#4E2B0E"/>
<path d="M54 127H50V130H54V127Z" fill="#D8D5D5"/>
<path d="M56 127H54V130H56V127Z" fill="#4E2B0E"/>
<path d="M57 127H56V133H57V127Z" fill="#4F2B0E"/>
<path d="M64 127H57V130H64V127Z" fill="#D8D5D5"/>
<path d="M74 127H70V130H74V127Z" fill="#C78920"/>
<path d="M83 127H80V140H83V127Z" fill="#D39225"/>
<path d="M84 127H83V140H84V127Z" fill="#D29225"/>
<path d="M86 127H84V136H86V127Z" fill="#CC8E21"/>
<path d="M87 127H86V136H87V127Z" fill="#CD8E21"/>
<path d="M90 127H87V130H90V127Z" fill="#DB9826"/>
<path d="M94 127H90V130H94V127Z" fill="#B67D03"/>
<path d="M104 127H94V130H104V127Z" fill="#E39F2B"/>
<path d="M56 130H50V133H56V130Z" fill="#4E2B0E"/>
<path d="M60 130H57V133H60V130Z" fill="#D8D5D5"/>
<path d="M66 130H60V136H66V130Z" fill="#5F2F09"/>
<path d="M67 130H66V136H67V130Z" fill="#5E2F09"/>
<path d="M74 130H67V137H74V130Z" fill="#C78920"/>
<path d="M93 130H87V137H93V130Z" fill="#DB9826"/>
<path d="M94 130H93V137H94V130Z" fill="#DA9826"/>
<path d="M100 130H94V134H100V130Z" fill="#F7B84C"/>
<path d="M104 130H100V134H104V130Z" fill="#E39F2B"/>
<path d="M56 133H50V134H56V133Z" fill="#4F2B0E"/>
<path d="M57 133H56V134H57V133Z" fill="#4E2B0E"/>
<path d="M60 133H57V134H60V133Z" fill="#D9D5D5"/>
<path d="M60 134H57V136H60V134Z" fill="#4E2B0E"/>
<path d="M104 134H94V140H104V134Z" fill="#E39F2B"/>
<path d="M60 136H57V137H60V136Z" fill="#4F2B0E"/>
<path d="M67 136H60V137H67V136Z" fill="#5E2F09"/>
<path d="M87 136H84V137H87V136Z" fill="#CC8E21"/>
<path d="M74 137H60V140H74V137Z" fill="#C78920"/>
<path d="M86 137H84V140H86V137Z" fill="#CC8E21"/>
<path d="M87 137H86V140H87V137Z" fill="#CD8E21"/>
<path d="M90 137H87V140H90V137Z" fill="#2A1505"/>
<path d="M94 137H90V140H94V137Z" fill="#B67D03"/>
<path d="M66 140H57V144H66V140Z" fill="#C78920"/>
<path d="M67 140H66V144H67V140Z" fill="#C68920"/>
<path d="M74 140H67V144H74V140Z" fill="#F7B84C"/>
<path d="M84 140H80V143H84V140Z" fill="#D39225"/>
<path d="M94 140H84V154H94V140Z" fill="#2A1505"/>
<path d="M96 140H94V153H96V140Z" fill="#B67D03"/>
<path d="M97 140H96V153H97V140Z" fill="#B77D03"/>
<path d="M104 140H97V146H104V140Z" fill="#E39F2B"/>
<path d="M116 140H104V146H116V140Z" fill="#EEAB38"/>
<path d="M117 140H116V174H117V140Z" fill="#EFAB38"/>
<path d="M84 143H80V144H84V143Z" fill="#D29225"/>
<path d="M74 144H57V150H74V144Z" fill="#C78920"/>
<path d="M84 144H80V153H84V144Z" fill="#B67D03"/>
<path d="M103 146H97V147H103V146Z" fill="#E39F2B"/>
<path d="M104 146H103V147H104V146Z" fill="#E29F2B"/>
<path d="M107 146H104V147H107V146Z" fill="#EEAB38"/>
<path d="M114 146H107V147H114V146Z" fill="#EFAB38"/>
<path d="M116 146H114V150H116V146Z" fill="#EEAB38"/>
<path d="M106 147H97V154H106V147Z" fill="#E39F2B"/>
<path d="M107 147H106V184H107V147Z" fill="#E29F2B"/>
<path d="M114 147H107V150H114V147Z" fill="#F7B84C"/>
<path d="M63 150H57V153H63V150Z" fill="#F7B84C"/>
<path d="M64 150H63V153H64V150Z" fill="#F6B84C"/>
<path d="M70 150H64V154H70V150Z" fill="#C78920"/>
<path d="M76 150H70V154H76V150Z" fill="#F7B84C"/>
<path d="M77 150H76V154H77V150Z" fill="#F6B84C"/>
<path d="M80 150H77V154H80V150Z" fill="#CC8E21"/>
<path d="M116 150H107V166H116V150Z" fill="#EEAB38"/>
<path d="M64 153H57V154H64V153Z" fill="#F7B84C"/>
<path d="M83 153H80V154H83V153Z" fill="#B77D03"/>
<path d="M84 153H83V154H84V153Z" fill="#B67D03"/>
<path d="M96 153H94V154H96V153Z" fill="#B77D03"/>
<path d="M97 153H96V154H97V153Z" fill="#B67D03"/>
<path d="M74 154H57V164H74V154Z" fill="#C78920"/>
<path d="M80 154H74V164H80V154Z" fill="#CC8E21"/>
<path d="M83 154H80V156H83V154Z" fill="#D39225"/>
<path d="M84 154H83V156H84V154Z" fill="#D29225"/>
<path d="M94 154H84V156H94V154Z" fill="#B67D03"/>
<path d="M106 154H94V166H106V154Z" fill="#E39F2B"/>
<path d="M84 156H80V157H84V156Z" fill="#D39225"/>
<path d="M86 156H84V157H86V156Z" fill="#B77D03"/>
<path d="M94 156H86V157H94V156Z" fill="#B67D03"/>
<path d="M83 157H80V160H83V157Z" fill="#D39225"/>
<path d="M84 157H83V160H84V157Z" fill="#D29225"/>
<path d="M86 157H84V160H86V157Z" fill="#CC8E21"/>
<path d="M87 157H86V160H87V157Z" fill="#CD8E21"/>
<path d="M93 157H87V160H93V157Z" fill="#DB9826"/>
<path d="M94 157H93V163H94V157Z" fill="#DA9826"/>
<path d="M86 160H80V163H86V160Z" fill="#F7B84C"/>
<path d="M87 160H86V163H87V160Z" fill="#F6B84C"/>
<path d="M90 160H87V164H90V160Z" fill="#B67D03"/>
<path d="M93 160H90V163H93V160Z" fill="#DB9826"/>
<path d="M83 163H80V164H83V163Z" fill="#F7B84C"/>
<path d="M84 163H83V164H84V163Z" fill="#F6B84C"/>
<path d="M87 163H84V164H87V163Z" fill="#F7B84C"/>
<path d="M94 163H90V164H94V163Z" fill="#DB9826"/>
<path d="M66 164H57V167H66V164Z" fill="#C78920"/>
<path d="M67 164H66V167H67V164Z" fill="#C68920"/>
<path d="M70 164H67V167H70V164Z" fill="#F7B84C"/>
<path d="M74 164H70V166H74V164Z" fill="#C78920"/>
<path d="M83 164H74V166H83V164Z" fill="#CC8E21"/>
<path d="M84 164H83V166H84V164Z" fill="#CD8E21"/>
<path d="M86 164H84V166H86V164Z" fill="#B67D03"/>
<path d="M87 164H86V166H87V164Z" fill="#B77D03"/>
<path d="M90 164H87V167H90V164Z" fill="#2A1505"/>
<path d="M94 164H90V167H94V164Z" fill="#B67D03"/>
<path d="M73 166H70V167H73V166Z" fill="#C78920"/>
<path d="M74 166H73V167H74V166Z" fill="#C68920"/>
<path d="M80 166H74V167H80V166Z" fill="#CC8E21"/>
<path d="M84 166H80V167H84V166Z" fill="#CD8E21"/>
<path d="M87 166H84V167H87V166Z" fill="#B67D03"/>
<path d="M96 166H94V167H96V166Z" fill="#E39F2B"/>
<path d="M97 166H96V167H97V166Z" fill="#E29F2B"/>
<path d="M106 166H97V176H106V166Z" fill="#E39F2B"/>
<path d="M114 166H107V167H114V166Z" fill="#EFAB38"/>
<path d="M116 166H114V170H116V166Z" fill="#EEAB38"/>
<path d="M70 167H57V174H70V167Z" fill="#C78920"/>
<path d="M80 167H70V176H80V167Z" fill="#CC8E21"/>
<path d="M84 167H80V180H84V167Z" fill="#B67D03"/>
<path d="M94 167H84V180H94V167Z" fill="#2A1505"/>
<path d="M96 167H94V177H96V167Z" fill="#B67D03"/>
<path d="M97 167H96V177H97V167Z" fill="#B77D03"/>
<path d="M114 167H107V170H114V167Z" fill="#F7B84C"/>
<path d="M116 170H107V174H116V170Z" fill="#EEAB38"/>
<path d="M70 174H54V177H70V174Z" fill="#C78920"/>
<path d="M120 174H107V184H120V174Z" fill="#EEAB38"/>
<path d="M76 176H70V177H76V176Z" fill="#CC8E21"/>
<path d="M77 176H76V177H77V176Z" fill="#CD8E21"/>
<path d="M80 176H77V180H80V176Z" fill="#CC8E21"/>
<path d="M103 176H97V177H103V176Z" fill="#E39F2B"/>
<path d="M104 176H103V177H104V176Z" fill="#E29F2B"/>
<path d="M106 176H104V180H106V176Z" fill="#E39F2B"/>
<path d="M66 177H54V180H66V177Z" fill="#C78920"/>
<path d="M67 177H66V180H67V177Z" fill="#C68920"/>
<path d="M76 177H67V180H76V177Z" fill="#F7B84C"/>
<path d="M77 177H76V180H77V177Z" fill="#F6B84C"/>
<path d="M97 177H94V180H97V177Z" fill="#B67D03"/>
<path d="M104 177H97V180H104V177Z" fill="#F7B84C"/>
<path d="M3 180H0V186H3V180Z" fill="#EFD27C"/>
<path d="M4 180H3V186H4V180Z" fill="#EED27C"/>
<path d="M46 180H44V190H46V180Z" fill="#EFD27C"/>
<path d="M47 180H46V190H47V180Z" fill="#EED27C"/>
<path d="M70 180H54V190H70V180Z" fill="#C78920"/>
<path d="M83 180H70V183H83V180Z" fill="#CC8E21"/>
<path d="M84 180H83V183H84V180Z" fill="#CD8E21"/>
<path d="M93 180H84V183H93V180Z" fill="#B67D03"/>
<path d="M94 180H93V184H94V180Z" fill="#B77D03"/>
<path d="M96 180H94V184H96V180Z" fill="#DB9826"/>
<path d="M97 180H96V193H97V180Z" fill="#DA9826"/>
<path d="M106 180H97V184H106V180Z" fill="#E39F2B"/>
<path d="M77 183H70V184H77V183Z" fill="#CC8E21"/>
<path d="M84 183H77V184H84V183Z" fill="#CD8E21"/>
<path d="M86 183H84V184H86V183Z" fill="#B77D03"/>
<path d="M93 183H86V184H93V183Z" fill="#B67D03"/>
<path d="M13 184H10V190H13V184Z" fill="#EFD27C"/>
<path d="M14 184H13V190H14V184Z" fill="#EED27C"/>
<path d="M76 184H70V186H76V184Z" fill="#CC8E21"/>
<path d="M77 184H76V186H77V184Z" fill="#CD8E21"/>
<path d="M87 184H77V186H87V184Z" fill="#F7B84C"/>
<path d="M96 184H87V187H96V184Z" fill="#DB9826"/>
<path d="M110 184H97V193H110V184Z" fill="#E39F2B"/>
<path d="M120 184H110V186H120V184Z" fill="#EEAB38"/>
<path d="M130 184H127V190H130V184Z" fill="#EFD27C"/>
<path d="M140 184H137V187H140V184Z" fill="#EFD27C"/>
<path d="M153 184H150V190H153V184Z" fill="#EFD27C"/>
<path d="M154 184H153V190H154V184Z" fill="#EED27C"/>
<path d="M4 186H0V187H4V186Z" fill="#EFD27C"/>
<path d="M77 186H70V187H77V186Z" fill="#CC8E21"/>
<path d="M83 186H77V187H83V186Z" fill="#F7B84C"/>
<path d="M87 186H83V187H87V186Z" fill="#F6B84C"/>
<path d="M116 186H110V187H116V186Z" fill="#EFAB38"/>
<path d="M120 186H116V187H120V186Z" fill="#EEAB38"/>
<path d="M6 187H0V190H6V187Z" fill="#EFD27C"/>
<path d="M7 187H6V190H7V187Z" fill="#EED27C"/>
<path d="M30 187H24V190H30V187Z" fill="#EFD27C"/>
<path d="M40 187H37V190H40V187Z" fill="#EFD27C"/>
<path d="M83 187H70V193H83V187Z" fill="#CC8E21"/>
<path d="M84 187H83V194H84V187Z" fill="#CD8E21"/>
<path d="M96 187H84V193H96V187Z" fill="#DB9826"/>
<path d="M117 187H110V190H117V187Z" fill="#F7B84C"/>
<path d="M120 187H117V190H120V187Z" fill="#EEAB38"/>
<path d="M143 187H137V190H143V187Z" fill="#EFD27C"/>
<path d="M144 187H143V190H144V187Z" fill="#EED27C"/>
<path d="M6 190H0V194H6V190Z" fill="#CFB056"/>
<path d="M7 190H6V194H7V190Z" fill="#CEB056"/>
<path d="M54 190H7V194H54V190Z" fill="#EFD27C"/>
<path d="M60 190H54V194H60V190Z" fill="#C78920"/>
<path d="M66 190H60V193H66V190Z" fill="#F7B84C"/>
<path d="M67 190H66V193H67V190Z" fill="#F6B84C"/>
<path d="M70 190H67V194H70V190Z" fill="#C78920"/>
<path d="M120 190H110V200H120V190Z" fill="#EEAB38"/>
<path d="M200 190H120V193H200V190Z" fill="#EFD27C"/>
<path d="M67 193H60V194H67V193Z" fill="#F7B84C"/>
<path d="M76 193H70V194H76V193Z" fill="#CC8E21"/>
<path d="M77 193H76V194H77V193Z" fill="#CD8E21"/>
<path d="M83 193H77V194H83V193Z" fill="#CC8E21"/>
<path d="M97 193H84V194H97V193Z" fill="#DB9826"/>
<path d="M100 193H97V194H100V193Z" fill="#E39F2B"/>
<path d="M106 193H100V194H106V193Z" fill="#E29F2B"/>
<path d="M110 193H106V194H110V193Z" fill="#E39F2B"/>
<path d="M124 193H120V197H124V193Z" fill="#EFD27C"/>
<path d="M133 193H124V194H133V193Z" fill="#EED27C"/>
<path d="M200 193H133V194H200V193Z" fill="#EFD27C"/>
<path d="M54 194H0V203H54V194Z" fill="#EFD27C"/>
<path d="M66 194H54V204H66V194Z" fill="#C78920"/>
<path d="M67 194H66V204H67V194Z" fill="#C68920"/>
<path d="M77 194H67V196H77V194Z" fill="#CC8E21"/>
<path d="M100 194H77V196H100V194Z" fill="#B67D03"/>
<path d="M106 194H100V196H106V194Z" fill="#F7B84C"/>
<path d="M107 194H106V196H107V194Z" fill="#F6B84C"/>
<path d="M110 194H107V197H110V194Z" fill="#E39F2B"/>
<path d="M134 194H124V196H134V194Z" fill="#CFB056"/>
<path d="M200 194H134V197H200V194Z" fill="#EFD27C"/>
<path d="M74 196H67V197H74V196Z" fill="#CC8E21"/>
<path d="M76 196H74V197H76V196Z" fill="#CD8E21"/>
<path d="M77 196H76V197H77V196Z" fill="#CC8E21"/>
<path d="M80 196H77V197H80V196Z" fill="#B77D03"/>
<path d="M84 196H80V197H84V196Z" fill="#B67D03"/>
<path d="M87 196H84V197H87V196Z" fill="#B77D03"/>
<path d="M90 196H87V197H90V196Z" fill="#B67D03"/>
<path d="M93 196H90V197H93V196Z" fill="#B77D03"/>
<path d="M97 196H93V197H97V196Z" fill="#B67D03"/>
<path d="M100 196H97V197H100V196Z" fill="#B77D03"/>
<path d="M104 196H100V197H104V196Z" fill="#F7B84C"/>
<path d="M106 196H104V197H106V196Z" fill="#F6B84C"/>
<path d="M107 196H106V197H107V196Z" fill="#F7B84C"/>
<path d="M133 196H124V197H133V196Z" fill="#CEB056"/>
<path d="M134 196H133V197H134V196Z" fill="#CFB056"/>
<path d="M73 197H67V200H73V197Z" fill="#CC8E21"/>
<path d="M74 197H73V200H74V197Z" fill="#CD8E21"/>
<path d="M76 197H74V200H76V197Z" fill="#B67D03"/>
<path d="M77 197H76V200H77V197Z" fill="#B77D03"/>
<path d="M80 197H77V207H80V197Z" fill="#A45B1E"/>
<path d="M84 197H80V206H84V197Z" fill="#5F2F09"/>
<path d="M86 197H84V207H86V197Z" fill="#A45B1E"/>
<path d="M87 197H86V207H87V197Z" fill="#A55B1E"/>
<path d="M90 197H87V206H90V197Z" fill="#5F2F09"/>
<path d="M94 197H90V206H94V197Z" fill="#A45B1E"/>
<path d="M97 197H94V206H97V197Z" fill="#5F2F09"/>
<path d="M100 197H97V207H100V197Z" fill="#A45B1E"/>
<path d="M104 197H100V200H104V197Z" fill="#B67D03"/>
<path d="M110 197H104V200H110V197Z" fill="#E39F2B"/>
<path d="M200 197H120V200H200V197Z" fill="#EFD27C"/>
<path d="M70 200H67V203H70V200Z" fill="#CC8E21"/>
<path d="M74 200H70V236H74V200Z" fill="#B67D03"/>
<path d="M77 200H74V206H77V200Z" fill="#5F2F09"/>
<path d="M103 200H100V206H103V200Z" fill="#5F2F09"/>
<path d="M104 200H103V206H104V200Z" fill="#5E2F09"/>
<path d="M106 200H104V210H106V200Z" fill="#B67D03"/>
<path d="M107 200H106V210H107V200Z" fill="#B77D03"/>
<path d="M110 200H107V210H110V200Z" fill="#E39F2B"/>
<path d="M124 200H110V210H124V200Z" fill="#EEAB38"/>
<path d="M200 200H124V203H200V200Z" fill="#EFD27C"/>
<path d="M7 203H0V207H7V203Z" fill="#EFD27C"/>
<path d="M17 203H7V204H17V203Z" fill="#EED27C"/>
<path d="M53 203H17V204H53V203Z" fill="#EFD27C"/>
<path d="M54 203H53V204H54V203Z" fill="#EED27C"/>
<path d="M70 203H67V204H70V203Z" fill="#CD8E21"/>
<path d="M137 203H124V207H137V203Z" fill="#EFD27C"/>
<path d="M147 203H137V204H147V203Z" fill="#EED27C"/>
<path d="M200 203H147V206H200V203Z" fill="#EFD27C"/>
<path d="M16 204H7V206H16V204Z" fill="#CFB056"/>
<path d="M17 204H16V206H17V204Z" fill="#CEB056"/>
<path d="M50 204H17V207H50V204Z" fill="#EFD27C"/>
<path d="M70 204H50V210H70V204Z" fill="#C78920"/>
<path d="M146 204H137V206H146V204Z" fill="#CFB056"/>
<path d="M147 204H146V206H147V204Z" fill="#CEB056"/>
<path d="M16 206H7V207H16V206Z" fill="#CEB056"/>
<path d="M17 206H16V207H17V206Z" fill="#CFB056"/>
<path d="M76 206H74V207H76V206Z" fill="#5E2F09"/>
<path d="M77 206H76V207H77V206Z" fill="#5F2F09"/>
<path d="M83 206H80V207H83V206Z" fill="#5E2F09"/>
<path d="M84 206H83V207H84V206Z" fill="#5F2F09"/>
<path d="M90 206H87V207H90V206Z" fill="#5E2F09"/>
<path d="M93 206H90V207H93V206Z" fill="#A45B1E"/>
<path d="M94 206H93V207H94V206Z" fill="#A55B1E"/>
<path d="M96 206H94V207H96V206Z" fill="#5E2F09"/>
<path d="M97 206H96V207H97V206Z" fill="#5F2F09"/>
<path d="M103 206H100V207H103V206Z" fill="#5E2F09"/>
<path d="M104 206H103V207H104V206Z" fill="#5F2F09"/>
<path d="M146 206H137V207H146V206Z" fill="#CEB056"/>
<path d="M147 206H146V207H147V206Z" fill="#CFB056"/>
<path d="M200 206H147V207H200V206Z" fill="#EFD27C"/>
<path d="M50 207H0V210H50V207Z" fill="#EFD27C"/>
<path d="M103 207H74V210H103V207Z" fill="#A45B1E"/>
<path d="M104 207H103V210H104V207Z" fill="#A55B1E"/>
<path d="M200 207H124V210H200V207Z" fill="#EFD27C"/>
<path d="M16 210H0V213H16V210Z" fill="#EFD27C"/>
<path d="M17 210H16V213H17V210Z" fill="#EED27C"/>
<path d="M20 210H17V213H20V210Z" fill="#A8BEC9"/>
<path d="M34 210H20V213H34V210Z" fill="#EFD27C"/>
<path d="M36 210H34V214H36V210Z" fill="#CFB056"/>
<path d="M37 210H36V214H37V210Z" fill="#CEB056"/>
<path d="M50 210H37V214H50V210Z" fill="#EFD27C"/>
<path d="M53 210H50V213H53V210Z" fill="#C78920"/>
<path d="M54 210H53V213H54V210Z" fill="#C68920"/>
<path d="M57 210H54V213H57V210Z" fill="#A8BEC9"/>
<path d="M70 210H57V213H70V210Z" fill="#C78920"/>
<path d="M77 210H74V216H77V210Z" fill="#5F2F09"/>
<path d="M80 210H77V217H80V210Z" fill="#A45B1E"/>
<path d="M84 210H80V216H84V210Z" fill="#5F2F09"/>
<path d="M86 210H84V213H86V210Z" fill="#A45B1E"/>
<path d="M87 210H86V213H87V210Z" fill="#A55B1E"/>
<path d="M90 210H87V214H90V210Z" fill="#5F2F09"/>
<path d="M94 210H90V213H94V210Z" fill="#A8BEC9"/>
<path d="M97 210H94V213H97V210Z" fill="#5F2F09"/>
<path d="M100 210H97V217H100V210Z" fill="#A45B1E"/>
<path d="M103 210H100V216H103V210Z" fill="#5F2F09"/>
<path d="M104 210H103V216H104V210Z" fill="#5E2F09"/>
<path d="M107 210H104V214H107V210Z" fill="#B67D03"/>
<path d="M117 210H107V214H117V210Z" fill="#F7B84C"/>
<path d="M124 210H117V214H124V210Z" fill="#EEAB38"/>
<path d="M126 210H124V213H126V210Z" fill="#EFD27C"/>
<path d="M127 210H126V213H127V210Z" fill="#EED27C"/>
<path d="M130 210H127V213H130V210Z" fill="#A8BEC9"/>
<path d="M163 210H130V213H163V210Z" fill="#EFD27C"/>
<path d="M164 210H163V213H164V210Z" fill="#EED27C"/>
<path d="M166 210H164V213H166V210Z" fill="#A8BEC9"/>
<path d="M167 210H166V213H167V210Z" fill="#A9BEC9"/>
<path d="M200 210H167V213H200V210Z" fill="#EFD27C"/>
<path d="M17 213H0V214H17V213Z" fill="#EFD27C"/>
<path d="M20 213H17V214H20V213Z" fill="#A9BEC9"/>
<path d="M23 213H20V214H23V213Z" fill="#EED27C"/>
<path d="M34 213H23V214H34V213Z" fill="#EFD27C"/>
<path d="M54 213H50V214H54V213Z" fill="#C78920"/>
<path d="M57 213H54V214H57V213Z" fill="#A9BEC9"/>
<path d="M60 213H57V214H60V213Z" fill="#C68920"/>
<path d="M70 213H60V214H70V213Z" fill="#C78920"/>
<path d="M87 213H84V214H87V213Z" fill="#A45B1E"/>
<path d="M93 213H90V214H93V213Z" fill="#A9BEC9"/>
<path d="M94 213H93V214H94V213Z" fill="#A8BEC9"/>
<path d="M97 213H94V214H97V213Z" fill="#5E2F09"/>
<path d="M127 213H124V214H127V213Z" fill="#EFD27C"/>
<path d="M130 213H127V214H130V213Z" fill="#A9BEC9"/>
<path d="M133 213H130V214H133V213Z" fill="#EED27C"/>
<path d="M150 213H133V214H150V213Z" fill="#EFD27C"/>
<path d="M160 213H150V214H160V213Z" fill="#EED27C"/>
<path d="M164 213H160V214H164V213Z" fill="#EFD27C"/>
<path d="M166 213H164V214H166V213Z" fill="#A9BEC9"/>
<path d="M167 213H166V214H167V213Z" fill="#A8BEC9"/>
<path d="M170 213H167V214H170V213Z" fill="#EED27C"/>
<path d="M200 213H170V214H200V213Z" fill="#EFD27C"/>
<path d="M13 214H0V217H13V214Z" fill="#EFD27C"/>
<path d="M14 214H13V217H14V214Z" fill="#EED27C"/>
<path d="M16 214H14V217H16V214Z" fill="#A8BEC9"/>
<path d="M17 214H16V217H17V214Z" fill="#A9BEC9"/>
<path d="M20 214H17V217H20V214Z" fill="#D8D5D5"/>
<path d="M24 214H20V216H24V214Z" fill="#FEFFFF"/>
<path d="M50 214H24V216H50V214Z" fill="#EFD27C"/>
<path d="M54 214H50V217H54V214Z" fill="#A8BEC9"/>
<path d="M57 214H54V217H57V214Z" fill="#D8D5D5"/>
<path d="M60 214H57V216H60V214Z" fill="#FEFFFF"/>
<path d="M63 214H60V216H63V214Z" fill="#F7B84C"/>
<path d="M64 214H63V216H64V214Z" fill="#F6B84C"/>
<path d="M70 214H64V217H70V214Z" fill="#C78920"/>
<path d="M86 214H84V216H86V214Z" fill="#A45B1E"/>
<path d="M87 214H86V216H87V214Z" fill="#A55B1E"/>
<path d="M90 214H87V217H90V214Z" fill="#A8BEC9"/>
<path d="M93 214H90V217H93V214Z" fill="#D8D5D5"/>
<path d="M94 214H93V217H94V214Z" fill="#D9D5D5"/>
<path d="M96 214H94V216H96V214Z" fill="#FEFFFF"/>
<path d="M97 214H96V216H97V214Z" fill="white"/>
<path d="M106 214H104V236H106V214Z" fill="#B67D03"/>
<path d="M107 214H106V236H107V214Z" fill="#B77D03"/>
<path d="M110 214H107V220H110V214Z" fill="#E39F2B"/>
<path d="M124 214H110V217H124V214Z" fill="#EEAB38"/>
<path d="M126 214H124V217H126V214Z" fill="#A8BEC9"/>
<path d="M127 214H126V217H127V214Z" fill="#A9BEC9"/>
<path d="M130 214H127V217H130V214Z" fill="#D8D5D5"/>
<path d="M134 214H130V216H134V214Z" fill="#FEFFFF"/>
<path d="M150 214H134V216H150V214Z" fill="#EFD27C"/>
<path d="M160 214H150V216H160V214Z" fill="#CFB056"/>
<path d="M164 214H160V217H164V214Z" fill="#A8BEC9"/>
<path d="M170 214H164V217H170V214Z" fill="#D8D5D5"/>
<path d="M200 214H170V217H200V214Z" fill="#EFD27C"/>
<path d="M200 217H174V220H200V217Z" fill="#EFD27C"/>
<path d="M200 220H177V294H200V220Z" fill="#EFD27C"/>
<path d="M23 216H20V217H23V216Z" fill="white"/>
<path d="M24 216H23V217H24V216Z" fill="#FEFFFF"/>
<path d="M26 216H24V217H26V216Z" fill="#EFD27C"/>
<path d="M27 216H26V217H27V216Z" fill="#EED27C"/>
<path d="M50 216H27V217H50V216Z" fill="#EFD27C"/>
<path d="M60 216H57V217H60V216Z" fill="white"/>
<path d="M64 216H60V217H64V216Z" fill="#F7B84C"/>
<path d="M76 216H74V217H76V216Z" fill="#5E2F09"/>
<path d="M77 216H76V217H77V216Z" fill="#5F2F09"/>
<path d="M84 216H80V217H84V216Z" fill="#5E2F09"/>
<path d="M87 216H84V217H87V216Z" fill="#A55B1E"/>
<path d="M97 216H94V217H97V216Z" fill="white"/>
<path d="M103 216H100V217H103V216Z" fill="#5E2F09"/>
<path d="M104 216H103V217H104V216Z" fill="#5F2F09"/>
<path d="M133 216H130V217H133V216Z" fill="white"/>
<path d="M134 216H133V217H134V216Z" fill="#FEFFFF"/>
<path d="M136 216H134V217H136V216Z" fill="#EFD27C"/>
<path d="M137 216H136V217H137V216Z" fill="#EED27C"/>
<path d="M150 216H137V217H150V216Z" fill="#EFD27C"/>
<path d="M160 216H150V217H160V216Z" fill="#CEB056"/>
<path d="M10 217H0V220H10V217Z" fill="#EFD27C"/>
<path d="M14 217H10V220H14V217Z" fill="#A8BEC9"/>
<path d="M23 217H14V220H23V217Z" fill="#D8D5D5"/>
<path d="M24 217H23V220H24V217Z" fill="#D9D5D5"/>
<path d="M27 217H24V220H27V217Z" fill="#FEFFFF"/>
<path d="M46 217H27V220H46V217Z" fill="#EFD27C"/>
<path d="M47 217H46V220H47V217Z" fill="#EED27C"/>
<path d="M50 217H47V220H50V217Z" fill="#A8BEC9"/>
<path d="M60 217H50V220H60V217Z" fill="#D8D5D5"/>
<path d="M63 217H60V220H63V217Z" fill="#FEFFFF"/>
<path d="M64 217H63V220H64V217Z" fill="white"/>
<path d="M70 217H64V220H70V217Z" fill="#F7B84C"/>
<path d="M83 217H74V220H83V217Z" fill="#A45B1E"/>
<path d="M84 217H83V220H84V217Z" fill="#A55B1E"/>
<path d="M86 217H84V220H86V217Z" fill="#A8BEC9"/>
<path d="M87 217H86V220H87V217Z" fill="#A9BEC9"/>
<path d="M97 217H87V220H97V217Z" fill="#D8D5D5"/>
<path d="M100 217H97V220H100V217Z" fill="#FEFFFF"/>
<path d="M103 217H100V220H103V217Z" fill="#A45B1E"/>
<path d="M104 217H103V220H104V217Z" fill="#A55B1E"/>
<path d="M114 217H110V220H114V217Z" fill="#DD9B2A"/>
<path d="M120 217H114V220H120V217Z" fill="#EEAB38"/>
<path d="M124 217H120V220H124V217Z" fill="#A8BEC9"/>
<path d="M133 217H124V220H133V217Z" fill="#D8D5D5"/>
<path d="M134 217H133V220H134V217Z" fill="#D9D5D5"/>
<path d="M137 217H134V220H137V217Z" fill="#FEFFFF"/>
<path d="M156 217H137V220H156V217Z" fill="#EFD27C"/>
<path d="M157 217H156V220H157V217Z" fill="#EED27C"/>
<path d="M160 217H157V220H160V217Z" fill="#A8BEC9"/>
<path d="M170 217H160V220H170V217Z" fill="#D8D5D5"/>
<path d="M174 217H170V220H174V217Z" fill="#FEFFFF"/>
<path d="M6 220H0V236H6V220Z" fill="#EFD27C"/>
<path d="M7 220H6V237H7V220Z" fill="#EED27C"/>
<path d="M10 220H7V313H10V220Z" fill="#A8BEC9"/>
<path d="M27 220H10V240H27V220Z" fill="#D8D5D5"/>
<path d="M30 220H27V314H30V220Z" fill="#FEFFFF"/>
<path d="M43 220H30V224H43V220Z" fill="#EFD27C"/>
<path d="M44 220H43V224H44V220Z" fill="#EED27C"/>
<path d="M46 220H44V313H46V220Z" fill="#A8BEC9"/>
<path d="M47 220H46V313H47V220Z" fill="#A9BEC9"/>
<path d="M63 220H47V240H63V220Z" fill="#D8D5D5"/>
<path d="M64 220H63V313H64V220Z" fill="#D9D5D5"/>
<path d="M66 220H64V246H66V220Z" fill="#FEFFFF"/>
<path d="M67 220H66V246H67V220Z" fill="white"/>
<path d="M70 220H67V237H70V220Z" fill="#C78920"/>
<path d="M77 220H74V226H77V220Z" fill="#5F2F09"/>
<path d="M80 220H77V227H80V220Z" fill="#A45B1E"/>
<path d="M84 220H80V313H84V220Z" fill="#A8BEC9"/>
<path d="M100 220H84V240H100V220Z" fill="#D8D5D5"/>
<path d="M104 220H100V236H104V220Z" fill="#FEFFFF"/>
<path d="M114 220H107V236H114V220Z" fill="#E39F2B"/>
<path d="M117 220H114V236H117V220Z" fill="#EEAB38"/>
<path d="M120 220H117V313H120V220Z" fill="#A8BEC9"/>
<path d="M137 220H120V240H137V220Z" fill="#D8D5D5"/>
<path d="M140 220H137V314H140V220Z" fill="#FEFFFF"/>
<path d="M153 220H140V236H153V220Z" fill="#EFD27C"/>
<path d="M154 220H153V237H154V220Z" fill="#EED27C"/>
<path d="M156 220H154V313H156V220Z" fill="#A8BEC9"/>
<path d="M157 220H156V313H157V220Z" fill="#A9BEC9"/>
<path d="M170 220H157V230H170V220Z" fill="#D8D5D5"/>
<path d="M173 220H170V230H173V220Z" fill="#E6E6E6"/>
<path d="M174 220H173V267H174V220Z" fill="#E7E6E6"/>
<path d="M177 220H174V237H177V220Z" fill="#FEFFFF"/>
<path d="M40 224H30V227H40V224Z" fill="#EFD27C"/>
<path d="M44 224H40V227H44V224Z" fill="#C7B25D"/>
<path d="M76 226H74V227H76V226Z" fill="#5E2F09"/>
<path d="M77 226H76V227H77V226Z" fill="#5F2F09"/>
<path d="M44 227H30V236H44V227Z" fill="#C7B25D"/>
<path d="M80 227H74V230H80V227Z" fill="#A45B1E"/>
<path d="M77 230H74V237H77V230Z" fill="#5F2F09"/>
<path d="M80 230H77V237H80V230Z" fill="#A45B1E"/>
<path d="M166 230H157V240H166V230Z" fill="#D8D5D5"/>
<path d="M167 230H166V240H167V230Z" fill="#D9D5D5"/>
<path d="M173 230H167V244H173V230Z" fill="#E6E6E6"/>
<path d="M3 236H0V237H3V236Z" fill="#EFD27C"/>
<path d="M4 236H3V237H4V236Z" fill="#EED27C"/>
<path d="M6 236H4V237H6V236Z" fill="#EFD27C"/>
<path d="M36 236H30V237H36V236Z" fill="#C7B25D"/>
<path d="M37 236H36V237H37V236Z" fill="#C6B25D"/>
<path d="M40 236H37V237H40V236Z" fill="#C7B25D"/>
<path d="M44 236H40V237H44V236Z" fill="#C6B25D"/>
<path d="M73 236H70V237H73V236Z" fill="#B67D03"/>
<path d="M74 236H73V237H74V236Z" fill="#B77D03"/>
<path d="M103 236H100V237H103V236Z" fill="#FEFFFF"/>
<path d="M104 236H103V237H104V236Z" fill="white"/>
<path d="M107 236H104V237H107V236Z" fill="#B67D03"/>
<path d="M110 236H107V237H110V236Z" fill="#E29F2B"/>
<path d="M113 236H110V237H113V236Z" fill="#E39F2B"/>
<path d="M114 236H113V237H114V236Z" fill="#E29F2B"/>
<path d="M116 236H114V237H116V236Z" fill="#EFAB38"/>
<path d="M117 236H116V237H117V236Z" fill="#EEAB38"/>
<path d="M146 236H140V237H146V236Z" fill="#EED27C"/>
<path d="M153 236H146V237H153V236Z" fill="#EFD27C"/>
<path d="M3 237H0V240H3V237Z" fill="#A8BEC9"/>
<path d="M4 237H3V240H4V237Z" fill="#A9BEC9"/>
<path d="M6 237H4V240H6V237Z" fill="#89A2B0"/>
<path d="M7 237H6V247H7V237Z" fill="#88A2B0"/>
<path d="M37 237H30V240H37V237Z" fill="#CED7DC"/>
<path d="M40 237H37V240H40V237Z" fill="#A8BEC9"/>
<path d="M43 237H40V240H43V237Z" fill="#89A2B0"/>
<path d="M44 237H43V246H44V237Z" fill="#88A2B0"/>
<path d="M73 237H67V240H73V237Z" fill="#CED7DC"/>
<path d="M74 237H73V240H74V237Z" fill="#CFD7DC"/>
<path d="M76 237H74V240H76V237Z" fill="#A8BEC9"/>
<path d="M77 237H76V240H77V237Z" fill="#A9BEC9"/>
<path d="M80 237H77V240H80V237Z" fill="#89A2B0"/>
<path d="M104 237H100V240H104V237Z" fill="#FEFFFF"/>
<path d="M110 237H104V240H110V237Z" fill="#CED7DC"/>
<path d="M113 237H110V240H113V237Z" fill="#A8BEC9"/>
<path d="M114 237H113V240H114V237Z" fill="#A9BEC9"/>
<path d="M116 237H114V240H116V237Z" fill="#89A2B0"/>
<path d="M117 237H116V246H117V237Z" fill="#88A2B0"/>
<path d="M147 237H140V240H147V237Z" fill="#CED7DC"/>
<path d="M150 237H147V240H150V237Z" fill="#A8BEC9"/>
<path d="M153 237H150V240H153V237Z" fill="#89A2B0"/>
<path d="M154 237H153V247H154V237Z" fill="#88A2B0"/>
<path d="M176 237H174V247H176V237Z" fill="#FEFFFF"/>
<path d="M177 237H176V247H177V237Z" fill="white"/>
<path d="M6 240H0V247H6V240Z" fill="#89A2B0"/>
<path d="M16 240H10V247H16V240Z" fill="#D8D5D5"/>
<path d="M17 240H16V247H17V240Z" fill="#D9D5D5"/>
<path d="M20 240H17V244H20V240Z" fill="#A8BEC9"/>
<path d="M27 240H20V243H27V240Z" fill="#D8D5D5"/>
<path d="M43 240H30V246H43V240Z" fill="#89A2B0"/>
<path d="M54 240H47V246H54V240Z" fill="#D8D5D5"/>
<path d="M56 240H54V243H56V240Z" fill="#A8BEC9"/>
<path d="M57 240H56V243H57V240Z" fill="#A9BEC9"/>
<path d="M63 240H57V244H63V240Z" fill="#D8D5D5"/>
<path d="M80 240H67V246H80V240Z" fill="#89A2B0"/>
<path d="M90 240H84V247H90V240Z" fill="#D8D5D5"/>
<path d="M94 240H90V244H94V240Z" fill="#A8BEC9"/>
<path d="M100 240H94V243H100V240Z" fill="#D8D5D5"/>
<path d="M103 240H100V246H103V240Z" fill="#FEFFFF"/>
<path d="M104 240H103V246H104V240Z" fill="white"/>
<path d="M116 240H104V246H116V240Z" fill="#89A2B0"/>
<path d="M126 240H120V247H126V240Z" fill="#D8D5D5"/>
<path d="M127 240H126V247H127V240Z" fill="#D9D5D5"/>
<path d="M130 240H127V244H130V240Z" fill="#A8BEC9"/>
<path d="M137 240H130V243H137V240Z" fill="#D8D5D5"/>
<path d="M153 240H140V247H153V240Z" fill="#89A2B0"/>
<path d="M164 240H157V246H164V240Z" fill="#D8D5D5"/>
<path d="M167 240H164V244H167V240Z" fill="#A8BEC9"/>
<path d="M23 243H20V244H23V243Z" fill="#D8D5D5"/>
<path d="M24 243H23V244H24V243Z" fill="#D9D5D5"/>
<path d="M27 243H24V247H27V243Z" fill="#D8D5D5"/>
<path d="M57 243H54V244H57V243Z" fill="#A8BEC9"/>
<path d="M96 243H94V244H96V243Z" fill="#D8D5D5"/>
<path d="M97 243H96V244H97V243Z" fill="#D9D5D5"/>
<path d="M100 243H97V247H100V243Z" fill="#D8D5D5"/>
<path d="M133 243H130V244H133V243Z" fill="#D8D5D5"/>
<path d="M134 243H133V244H134V243Z" fill="#D9D5D5"/>
<path d="M137 243H134V247H137V243Z" fill="#D8D5D5"/>
<path d="M24 244H17V247H24V244Z" fill="#A8BEC9"/>
<path d="M60 244H54V247H60V244Z" fill="#A8BEC9"/>
<path d="M63 244H60V247H63V244Z" fill="#D8D5D5"/>
<path d="M96 244H90V247H96V244Z" fill="#A8BEC9"/>
<path d="M97 244H96V247H97V244Z" fill="#A9BEC9"/>
<path d="M134 244H127V247H134V244Z" fill="#A8BEC9"/>
<path d="M170 244H164V246H170V244Z" fill="#A8BEC9"/>
<path d="M173 244H170V247H173V244Z" fill="#E6E6E6"/>
<path d="M43 246H30V247H43V246Z" fill="#88A2B0"/>
<path d="M44 246H43V247H44V246Z" fill="#89A2B0"/>
<path d="M53 246H47V247H53V246Z" fill="#D8D5D5"/>
<path d="M54 246H53V247H54V246Z" fill="#D9D5D5"/>
<path d="M67 246H64V247H67V246Z" fill="#FEFFFF"/>
<path d="M80 246H67V247H80V246Z" fill="#88A2B0"/>
<path d="M104 246H100V247H104V246Z" fill="#FEFFFF"/>
<path d="M116 246H104V247H116V246Z" fill="#88A2B0"/>
<path d="M117 246H116V247H117V246Z" fill="#89A2B0"/>
<path d="M163 246H157V247H163V246Z" fill="#D8D5D5"/>
<path d="M164 246H163V247H164V246Z" fill="#D9D5D5"/>
<path d="M166 246H164V247H166V246Z" fill="#A8BEC9"/>
<path d="M167 246H166V247H167V246Z" fill="#A9BEC9"/>
<path d="M170 246H167V247H170V246Z" fill="#A8BEC9"/>
<path d="M6 247H0V260H6V247Z" fill="#EFD27C"/>
<path d="M7 247H6V260H7V247Z" fill="#EED27C"/>
<path d="M27 247H10V263H27V247Z" fill="#D8D5D5"/>
<path d="M44 247H30V257H44V247Z" fill="#C7B25D"/>
<path d="M63 247H47V263H63V247Z" fill="#D8D5D5"/>
<path d="M66 247H64V263H66V247Z" fill="#FEFFFF"/>
<path d="M67 247H66V263H67V247Z" fill="white"/>
<path d="M80 247H67V260H80V247Z" fill="#C7B25D"/>
<path d="M100 247H84V263H100V247Z" fill="#D8D5D5"/>
<path d="M103 247H100V254H103V247Z" fill="#FEFFFF"/>
<path d="M104 247H103V254H104V247Z" fill="white"/>
<path d="M117 247H104V250H117V247Z" fill="#C7B25D"/>
<path d="M137 247H120V263H137V247Z" fill="#D8D5D5"/>
<path d="M153 247H140V253H153V247Z" fill="#EFD27C"/>
<path d="M154 247H153V253H154V247Z" fill="#EED27C"/>
<path d="M166 247H157V260H166V247Z" fill="#D8D5D5"/>
<path d="M167 247H166V260H167V247Z" fill="#D9D5D5"/>
<path d="M173 247H167V260H173V247Z" fill="#E6E6E6"/>
<path d="M177 247H174V260H177V247Z" fill="#FEFFFF"/>
<path d="M110 250H104V253H110V250Z" fill="#C7B25D"/>
<path d="M116 250H110V253H116V250Z" fill="#EFD27C"/>
<path d="M117 250H116V253H117V250Z" fill="#EED27C"/>
<path d="M110 253H104V254H110V253Z" fill="#C6B25D"/>
<path d="M117 253H110V254H117V253Z" fill="#EED27C"/>
<path d="M147 253H140V257H147V253Z" fill="#EFD27C"/>
<path d="M153 253H147V254H153V253Z" fill="#EED27C"/>
<path d="M154 253H153V254H154V253Z" fill="#EFD27C"/>
<path d="M104 254H100V264H104V254Z" fill="#FEFFFF"/>
<path d="M107 254H104V257H107V254Z" fill="#EFD27C"/>
<path d="M116 254H107V256H116V254Z" fill="#CFB056"/>
<path d="M117 254H116V256H117V254Z" fill="#CEB056"/>
<path d="M153 254H147V256H153V254Z" fill="#CFB056"/>
<path d="M154 254H153V256H154V254Z" fill="#CEB056"/>
<path d="M116 256H107V257H116V256Z" fill="#CEB056"/>
<path d="M117 256H116V257H117V256Z" fill="#CFB056"/>
<path d="M154 256H147V257H154V256Z" fill="#CEB056"/>
<path d="M36 257H30V260H36V257Z" fill="#EFD27C"/>
<path d="M37 257H36V260H37V257Z" fill="#EED27C"/>
<path d="M44 257H37V260H44V257Z" fill="#C7B25D"/>
<path d="M116 257H104V260H116V257Z" fill="#EFD27C"/>
<path d="M117 257H116V260H117V257Z" fill="#EED27C"/>
<path d="M153 257H140V260H153V257Z" fill="#EFD27C"/>
<path d="M154 257H153V260H154V257Z" fill="#EED27C"/>
<path d="M3 260H0V264H3V260Z" fill="#A8BEC9"/>
<path d="M4 260H3V264H4V260Z" fill="#A9BEC9"/>
<path d="M6 260H4V264H6V260Z" fill="#89A2B0"/>
<path d="M7 260H6V270H7V260Z" fill="#88A2B0"/>
<path d="M37 260H30V263H37V260Z" fill="#CED7DC"/>
<path d="M40 260H37V264H40V260Z" fill="#A8BEC9"/>
<path d="M43 260H40V264H43V260Z" fill="#89A2B0"/>
<path d="M44 260H43V270H44V260Z" fill="#88A2B0"/>
<path d="M73 260H67V263H73V260Z" fill="#CED7DC"/>
<path d="M74 260H73V263H74V260Z" fill="#CFD7DC"/>
<path d="M76 260H74V264H76V260Z" fill="#A8BEC9"/>
<path d="M77 260H76V264H77V260Z" fill="#A9BEC9"/>
<path d="M80 260H77V264H80V260Z" fill="#89A2B0"/>
<path d="M110 260H104V263H110V260Z" fill="#CED7DC"/>
<path d="M113 260H110V264H113V260Z" fill="#A8BEC9"/>
<path d="M114 260H113V264H114V260Z" fill="#A9BEC9"/>
<path d="M116 260H114V264H116V260Z" fill="#89A2B0"/>
<path d="M117 260H116V270H117V260Z" fill="#88A2B0"/>
<path d="M147 260H140V263H147V260Z" fill="#CED7DC"/>
<path d="M150 260H147V264H150V260Z" fill="#A8BEC9"/>
<path d="M153 260H150V264H153V260Z" fill="#89A2B0"/>
<path d="M154 260H153V270H154V260Z" fill="#88A2B0"/>
<path d="M170 260H157V263H170V260Z" fill="#D8D5D5"/>
<path d="M173 260H170V267H173V260Z" fill="#E6E6E6"/>
<path d="M176 260H174V263H176V260Z" fill="#FEFFFF"/>
<path d="M177 260H176V263H177V260Z" fill="white"/>
<path d="M16 263H10V270H16V263Z" fill="#D8D5D5"/>
<path d="M17 263H16V270H17V263Z" fill="#D9D5D5"/>
<path d="M27 263H17V264H27V263Z" fill="#D8D5D5"/>
<path d="M37 263H30V264H37V263Z" fill="#CFD7DC"/>
<path d="M56 263H47V264H56V263Z" fill="#D8D5D5"/>
<path d="M57 263H56V264H57V263Z" fill="#D9D5D5"/>
<path d="M63 263H57V267H63V263Z" fill="#D8D5D5"/>
<path d="M67 263H64V264H67V263Z" fill="#FEFFFF"/>
<path d="M73 263H67V264H73V263Z" fill="#CFD7DC"/>
<path d="M74 263H73V264H74V263Z" fill="#CED7DC"/>
<path d="M93 263H84V264H93V263Z" fill="#D8D5D5"/>
<path d="M94 263H93V264H94V263Z" fill="#D9D5D5"/>
<path d="M100 263H94V266H100V263Z" fill="#D8D5D5"/>
<path d="M110 263H104V264H110V263Z" fill="#CFD7DC"/>
<path d="M126 263H120V270H126V263Z" fill="#D8D5D5"/>
<path d="M127 263H126V270H127V263Z" fill="#D9D5D5"/>
<path d="M137 263H127V264H137V263Z" fill="#D8D5D5"/>
<path d="M147 263H140V264H147V263Z" fill="#CFD7DC"/>
<path d="M166 263H157V264H166V263Z" fill="#D8D5D5"/>
<path d="M167 263H166V264H167V263Z" fill="#D9D5D5"/>
<path d="M170 263H167V267H170V263Z" fill="#D8D5D5"/>
<path d="M177 263H174V264H177V263Z" fill="#FEFFFF"/>
<path d="M6 264H0V270H6V264Z" fill="#89A2B0"/>
<path d="M20 264H17V267H20V264Z" fill="#A8BEC9"/>
<path d="M27 264H20V267H27V264Z" fill="#D8D5D5"/>
<path d="M43 264H30V270H43V264Z" fill="#89A2B0"/>
<path d="M54 264H47V270H54V264Z" fill="#D8D5D5"/>
<path d="M56 264H54V266H56V264Z" fill="#A8BEC9"/>
<path d="M57 264H56V266H57V264Z" fill="#A9BEC9"/>
<path d="M66 264H64V270H66V264Z" fill="#FEFFFF"/>
<path d="M67 264H66V270H67V264Z" fill="white"/>
<path d="M80 264H67V270H80V264Z" fill="#89A2B0"/>
<path d="M90 264H84V270H90V264Z" fill="#D8D5D5"/>
<path d="M94 264H90V267H94V264Z" fill="#A8BEC9"/>
<path d="M103 264H100V270H103V264Z" fill="#FEFFFF"/>
<path d="M104 264H103V270H104V264Z" fill="white"/>
<path d="M116 264H104V270H116V264Z" fill="#89A2B0"/>
<path d="M130 264H127V267H130V264Z" fill="#A8BEC9"/>
<path d="M137 264H130V267H137V264Z" fill="#D8D5D5"/>
<path d="M153 264H140V270H153V264Z" fill="#89A2B0"/>
<path d="M164 264H157V270H164V264Z" fill="#D8D5D5"/>
<path d="M166 264H164V266H166V264Z" fill="#A8BEC9"/>
<path d="M167 264H166V266H167V264Z" fill="#A9BEC9"/>
<path d="M176 264H174V270H176V264Z" fill="#FEFFFF"/>
<path d="M177 264H176V270H177V264Z" fill="white"/>
<path d="M57 266H54V267H57V266Z" fill="#A8BEC9"/>
<path d="M96 266H94V267H96V266Z" fill="#D8D5D5"/>
<path d="M97 266H96V267H97V266Z" fill="#D9D5D5"/>
<path d="M100 266H97V270H100V266Z" fill="#D8D5D5"/>
<path d="M167 266H164V267H167V266Z" fill="#A8BEC9"/>
<path d="M24 267H17V270H24V267Z" fill="#A8BEC9"/>
<path d="M27 267H24V270H27V267Z" fill="#D8D5D5"/>
<path d="M60 267H54V270H60V267Z" fill="#A8BEC9"/>
<path d="M63 267H60V270H63V267Z" fill="#D8D5D5"/>
<path d="M96 267H90V270H96V267Z" fill="#A8BEC9"/>
<path d="M97 267H96V270H97V267Z" fill="#A9BEC9"/>
<path d="M134 267H127V270H134V267Z" fill="#A8BEC9"/>
<path d="M137 267H134V270H137V267Z" fill="#D8D5D5"/>
<path d="M170 267H164V270H170V267Z" fill="#A8BEC9"/>
<path d="M173 267H170V270H173V267Z" fill="#D8D5D5"/>
<path d="M174 267H173V313H174V267Z" fill="#D9D5D5"/>
<path d="M6 270H0V284H6V270Z" fill="#EFD27C"/>
<path d="M7 270H6V284H7V270Z" fill="#EED27C"/>
<path d="M27 270H10V287H27V270Z" fill="#D8D5D5"/>
<path d="M43 270H30V283H43V270Z" fill="#EFD27C"/>
<path d="M44 270H43V283H44V270Z" fill="#EED27C"/>
<path d="M63 270H47V286H63V270Z" fill="#D8D5D5"/>
<path d="M67 270H64V283H67V270Z" fill="#FEFFFF"/>
<path d="M80 270H67V283H80V270Z" fill="#EFD27C"/>
<path d="M100 270H84V287H100V270Z" fill="#D8D5D5"/>
<path d="M104 270H100V283H104V270Z" fill="#FEFFFF"/>
<path d="M116 270H104V280H116V270Z" fill="#EFD27C"/>
<path d="M117 270H116V280H117V270Z" fill="#EED27C"/>
<path d="M137 270H120V287H137V270Z" fill="#D8D5D5"/>
<path d="M153 270H140V283H153V270Z" fill="#EFD27C"/>
<path d="M154 270H153V283H154V270Z" fill="#EED27C"/>
<path d="M173 270H157V286H173V270Z" fill="#D8D5D5"/>
<path d="M177 270H174V283H177V270Z" fill="#FEFFFF"/>
<path d="M107 280H104V283H107V280Z" fill="#EFD27C"/>
<path d="M116 280H107V283H116V280Z" fill="#CFB056"/>
<path d="M117 280H116V283H117V280Z" fill="#CEB056"/>
<path d="M36 283H30V284H36V283Z" fill="#EED27C"/>
<path d="M44 283H36V284H44V283Z" fill="#EFD27C"/>
<path d="M66 283H64V293H66V283Z" fill="#FEFFFF"/>
<path d="M67 283H66V293H67V283Z" fill="white"/>
<path d="M73 283H67V284H73V283Z" fill="#EED27C"/>
<path d="M80 283H73V284H80V283Z" fill="#EFD27C"/>
<path d="M103 283H100V284H103V283Z" fill="#FEFFFF"/>
<path d="M104 283H103V284H104V283Z" fill="white"/>
<path d="M107 283H104V284H107V283Z" fill="#EED27C"/>
<path d="M117 283H107V284H117V283Z" fill="#CEB056"/>
<path d="M146 283H140V284H146V283Z" fill="#EED27C"/>
<path d="M154 283H146V284H154V283Z" fill="#EFD27C"/>
<path d="M176 283H174V293H176V283Z" fill="#FEFFFF"/>
<path d="M177 283H176V293H177V283Z" fill="white"/>
<path d="M3 284H0V286H3V284Z" fill="#A8BEC9"/>
<path d="M4 284H3V286H4V284Z" fill="#A9BEC9"/>
<path d="M6 284H4V287H6V284Z" fill="#89A2B0"/>
<path d="M7 284H6V293H7V284Z" fill="#88A2B0"/>
<path d="M37 284H30V286H37V284Z" fill="#CED7DC"/>
<path d="M40 284H37V286H40V284Z" fill="#A8BEC9"/>
<path d="M43 284H40V287H43V284Z" fill="#89A2B0"/>
<path d="M44 284H43V293H44V284Z" fill="#88A2B0"/>
<path d="M73 284H67V286H73V284Z" fill="#CED7DC"/>
<path d="M74 284H73V286H74V284Z" fill="#CFD7DC"/>
<path d="M76 284H74V286H76V284Z" fill="#A8BEC9"/>
<path d="M77 284H76V286H77V284Z" fill="#A9BEC9"/>
<path d="M80 284H77V287H80V284Z" fill="#89A2B0"/>
<path d="M104 284H100V287H104V284Z" fill="#FEFFFF"/>
<path d="M110 284H104V286H110V284Z" fill="#CED7DC"/>
<path d="M113 284H110V286H113V284Z" fill="#A8BEC9"/>
<path d="M114 284H113V286H114V284Z" fill="#A9BEC9"/>
<path d="M116 284H114V287H116V284Z" fill="#89A2B0"/>
<path d="M117 284H116V293H117V284Z" fill="#88A2B0"/>
<path d="M147 284H140V286H147V284Z" fill="#CED7DC"/>
<path d="M150 284H147V286H150V284Z" fill="#A8BEC9"/>
<path d="M153 284H150V287H153V284Z" fill="#89A2B0"/>
<path d="M154 284H153V293H154V284Z" fill="#88A2B0"/>
<path d="M3 286H0V287H3V286Z" fill="#A9BEC9"/>
<path d="M4 286H3V287H4V286Z" fill="#A8BEC9"/>
<path d="M37 286H30V287H37V286Z" fill="#CFD7DC"/>
<path d="M40 286H37V287H40V286Z" fill="#A9BEC9"/>
<path d="M56 286H47V287H56V286Z" fill="#D8D5D5"/>
<path d="M57 286H56V287H57V286Z" fill="#D9D5D5"/>
<path d="M63 286H57V290H63V286Z" fill="#D8D5D5"/>
<path d="M73 286H67V287H73V286Z" fill="#CFD7DC"/>
<path d="M74 286H73V287H74V286Z" fill="#CED7DC"/>
<path d="M76 286H74V287H76V286Z" fill="#A9BEC9"/>
<path d="M77 286H76V287H77V286Z" fill="#A8BEC9"/>
<path d="M110 286H104V287H110V286Z" fill="#CFD7DC"/>
<path d="M113 286H110V287H113V286Z" fill="#A9BEC9"/>
<path d="M114 286H113V287H114V286Z" fill="#A8BEC9"/>
<path d="M147 286H140V287H147V286Z" fill="#CFD7DC"/>
<path d="M150 286H147V287H150V286Z" fill="#A9BEC9"/>
<path d="M166 286H157V287H166V286Z" fill="#D8D5D5"/>
<path d="M167 286H166V287H167V286Z" fill="#D9D5D5"/>
<path d="M173 286H167V290H173V286Z" fill="#D8D5D5"/>
<path d="M6 287H0V293H6V287Z" fill="#89A2B0"/>
<path d="M16 287H10V293H16V287Z" fill="#D8D5D5"/>
<path d="M17 287H16V293H17V287Z" fill="#D9D5D5"/>
<path d="M20 287H17V290H20V287Z" fill="#A8BEC9"/>
<path d="M27 287H20V290H27V287Z" fill="#D8D5D5"/>
<path d="M43 287H30V293H43V287Z" fill="#89A2B0"/>
<path d="M54 287H47V293H54V287Z" fill="#D8D5D5"/>
<path d="M56 287H54V290H56V287Z" fill="#A8BEC9"/>
<path d="M57 287H56V290H57V287Z" fill="#A9BEC9"/>
<path d="M80 287H67V294H80V287Z" fill="#89A2B0"/>
<path d="M90 287H84V294H90V287Z" fill="#D8D5D5"/>
<path d="M94 287H90V290H94V287Z" fill="#A8BEC9"/>
<path d="M100 287H94V290H100V287Z" fill="#D8D5D5"/>
<path d="M103 287H100V293H103V287Z" fill="#FEFFFF"/>
<path d="M104 287H103V293H104V287Z" fill="white"/>
<path d="M116 287H104V293H116V287Z" fill="#89A2B0"/>
<path d="M126 287H120V293H126V287Z" fill="#D8D5D5"/>
<path d="M127 287H126V293H127V287Z" fill="#D9D5D5"/>
<path d="M130 287H127V290H130V287Z" fill="#A8BEC9"/>
<path d="M137 287H130V290H137V287Z" fill="#D8D5D5"/>
<path d="M153 287H140V293H153V287Z" fill="#89A2B0"/>
<path d="M164 287H157V293H164V287Z" fill="#D8D5D5"/>
<path d="M166 287H164V290H166V287Z" fill="#A8BEC9"/>
<path d="M167 287H166V290H167V287Z" fill="#A9BEC9"/>
<path d="M24 290H17V293H24V290Z" fill="#A8BEC9"/>
<path d="M27 290H24V294H27V290Z" fill="#D8D5D5"/>
<path d="M60 290H54V293H60V290Z" fill="#A8BEC9"/>
<path d="M63 290H60V294H63V290Z" fill="#D8D5D5"/>
<path d="M96 290H90V293H96V290Z" fill="#A8BEC9"/>
<path d="M97 290H96V293H97V290Z" fill="#A9BEC9"/>
<path d="M100 290H97V294H100V290Z" fill="#D8D5D5"/>
<path d="M134 290H127V293H134V290Z" fill="#A8BEC9"/>
<path d="M137 290H134V294H137V290Z" fill="#D8D5D5"/>
<path d="M170 290H164V293H170V290Z" fill="#A8BEC9"/>
<path d="M173 290H170V294H173V290Z" fill="#D8D5D5"/>
<path d="M7 293H0V294H7V293Z" fill="#89A2B0"/>
<path d="M17 293H10V294H17V293Z" fill="#D8D5D5"/>
<path d="M24 293H17V294H24V293Z" fill="#A9BEC9"/>
<path d="M44 293H30V294H44V293Z" fill="#89A2B0"/>
<path d="M53 293H47V294H53V293Z" fill="#D8D5D5"/>
<path d="M54 293H53V294H54V293Z" fill="#D9D5D5"/>
<path d="M60 293H54V294H60V293Z" fill="#A9BEC9"/>
<path d="M67 293H64V314H67V293Z" fill="#FEFFFF"/>
<path d="M96 293H90V294H96V293Z" fill="#A9BEC9"/>
<path d="M97 293H96V294H97V293Z" fill="#A8BEC9"/>
<path d="M104 293H100V313H104V293Z" fill="#FEFFFF"/>
<path d="M117 293H104V294H117V293Z" fill="#89A2B0"/>
<path d="M127 293H120V294H127V293Z" fill="#D8D5D5"/>
<path d="M134 293H127V294H134V293Z" fill="#A9BEC9"/>
<path d="M154 293H140V294H154V293Z" fill="#89A2B0"/>
<path d="M163 293H157V294H163V293Z" fill="#D8D5D5"/>
<path d="M164 293H163V294H164V293Z" fill="#D9D5D5"/>
<path d="M170 293H164V294H170V293Z" fill="#A9BEC9"/>
<path d="M177 293H174V314H177V293Z" fill="#FEFFFF"/>
<path d="M6 294H0V300H6V294Z" fill="#EFD27C"/>
<path d="M7 294H6V300H7V294Z" fill="#EED27C"/>
<path d="M27 294H10V314H27V294Z" fill="#D8D5D5"/>
<path d="M43 294H30V300H43V294Z" fill="#EFD27C"/>
<path d="M44 294H43V317H44V294Z" fill="#EED27C"/>
<path d="M63 294H47V313H63V294Z" fill="#D8D5D5"/>
<path d="M80 294H67V300H80V294Z" fill="#EFD27C"/>
<path d="M100 294H84V314H100V294Z" fill="#D8D5D5"/>
<path d="M116 294H104V313H116V294Z" fill="#EFD27C"/>
<path d="M117 294H116V313H117V294Z" fill="#EED27C"/>
<path d="M137 294H120V314H137V294Z" fill="#D8D5D5"/>
<path d="M153 294H140V317H153V294Z" fill="#EFD27C"/>
<path d="M154 294H153V317H154V294Z" fill="#EED27C"/>
<path d="M173 294H157V313H173V294Z" fill="#D8D5D5"/>
<path d="M200 294H177V317H200V294Z" fill="#EFD27C"/>
<path d="M6 300H0V303H6V300Z" fill="#CFB056"/>
<path d="M7 300H6V303H7V300Z" fill="#CEB056"/>
<path d="M40 300H30V304H40V300Z" fill="#CFB056"/>
<path d="M43 300H40V304H43V300Z" fill="#EFD27C"/>
<path d="M70 300H67V304H70V300Z" fill="#EFD27C"/>
<path d="M80 300H70V304H80V300Z" fill="#CFB056"/>
<path d="M7 303H0V304H7V303Z" fill="#CFB056"/>
<path d="M6 304H0V313H6V304Z" fill="#EFD27C"/>
<path d="M7 304H6V313H7V304Z" fill="#EED27C"/>
<path d="M43 304H30V316H43V304Z" fill="#EFD27C"/>
<path d="M80 304H67V317H80V304Z" fill="#EFD27C"/>
<path d="M7 313H0V314H7V313Z" fill="#EFD27C"/>
<path d="M10 313H7V314H10V313Z" fill="#A9BEC9"/>
<path d="M47 313H44V314H47V313Z" fill="#A9BEC9"/>
<path d="M64 313H47V314H64V313Z" fill="#D8D5D5"/>
<path d="M84 313H80V314H84V313Z" fill="#A9BEC9"/>
<path d="M103 313H100V314H103V313Z" fill="#FEFFFF"/>
<path d="M104 313H103V314H104V313Z" fill="white"/>
<path d="M117 313H104V314H117V313Z" fill="#EFD27C"/>
<path d="M120 313H117V314H120V313Z" fill="#A9BEC9"/>
<path d="M157 313H154V314H157V313Z" fill="#A9BEC9"/>
<path d="M174 313H157V314H174V313Z" fill="#D8D5D5"/>
<path d="M6 314H0V317H6V314Z" fill="#EFD27C"/>
<path d="M7 314H6V317H7V314Z" fill="#EED27C"/>
<path d="M10 314H7V317H10V314Z" fill="#C7B25D"/>
<path d="M27 314H10V316H27V314Z" fill="#A8BEC9"/>
<path d="M30 314H27V317H30V314Z" fill="#C7B25D"/>
<path d="M47 314H44V316H47V314Z" fill="#C7B25D"/>
<path d="M63 314H47V317H63V314Z" fill="#A8BEC9"/>
<path d="M64 314H63V317H64V314Z" fill="#A9BEC9"/>
<path d="M66 314H64V316H66V314Z" fill="#C7B25D"/>
<path d="M67 314H66V316H67V314Z" fill="#C6B25D"/>
<path d="M84 314H80V316H84V314Z" fill="#C7B25D"/>
<path d="M100 314H84V317H100V314Z" fill="#A8BEC9"/>
<path d="M103 314H100V317H103V314Z" fill="#C7B25D"/>
<path d="M104 314H103V317H104V314Z" fill="#C6B25D"/>
<path d="M116 314H104V317H116V314Z" fill="#EFD27C"/>
<path d="M117 314H116V317H117V314Z" fill="#EED27C"/>
<path d="M120 314H117V317H120V314Z" fill="#C7B25D"/>
<path d="M137 314H120V316H137V314Z" fill="#A8BEC9"/>
<path d="M140 314H137V317H140V314Z" fill="#C7B25D"/>
<path d="M157 314H154V316H157V314Z" fill="#C7B25D"/>
<path d="M173 314H157V317H173V314Z" fill="#A8BEC9"/>
<path d="M174 314H173V317H174V314Z" fill="#A9BEC9"/>
<path d="M176 314H174V316H176V314Z" fill="#C7B25D"/>
<path d="M177 314H176V316H177V314Z" fill="#C6B25D"/>
<path d="M26 316H10V317H26V316Z" fill="#A8BEC9"/>
<path d="M27 316H26V317H27V316Z" fill="#A9BEC9"/>
<path d="M34 316H30V317H34V316Z" fill="#EFD27C"/>
<path d="M36 316H34V317H36V316Z" fill="#EED27C"/>
<path d="M43 316H36V317H43V316Z" fill="#EFD27C"/>
<path d="M46 316H44V317H46V316Z" fill="#C7B25D"/>
<path d="M47 316H46V317H47V316Z" fill="#C6B25D"/>
<path d="M67 316H64V317H67V316Z" fill="#C7B25D"/>
<path d="M83 316H80V317H83V316Z" fill="#C7B25D"/>
<path d="M84 316H83V317H84V316Z" fill="#C6B25D"/>
<path d="M136 316H120V317H136V316Z" fill="#A8BEC9"/>
<path d="M137 316H136V317H137V316Z" fill="#A9BEC9"/>
<path d="M156 316H154V317H156V316Z" fill="#C7B25D"/>
<path d="M157 316H156V317H157V316Z" fill="#C6B25D"/>
<path d="M177 316H174V317H177V316Z" fill="#C7B25D"/>
<path d="M26 317H0V320H26V317Z" fill="#C7B25D"/>
<path d="M27 317H26V320H27V317Z" fill="#C6B25D"/>
<path d="M33 317H27V320H33V317Z" fill="#EFD27C"/>
<path d="M34 317H33V320H34V317Z" fill="#EED27C"/>
<path d="M37 317H34V323H37V317Z" fill="#F1C54F"/>
<path d="M63 317H37V320H63V317Z" fill="#C7B25D"/>
<path d="M64 317H63V320H64V317Z" fill="#C6B25D"/>
<path d="M73 317H64V320H73V317Z" fill="#EFD27C"/>
<path d="M74 317H73V320H74V317Z" fill="#EED27C"/>
<path d="M100 317H74V320H100V317Z" fill="#C7B25D"/>
<path d="M110 317H100V320H110V317Z" fill="#EFD27C"/>
<path d="M136 317H110V320H136V317Z" fill="#C7B25D"/>
<path d="M137 317H136V320H137V317Z" fill="#C6B25D"/>
<path d="M146 317H137V320H146V317Z" fill="#EFD27C"/>
<path d="M147 317H146V320H147V317Z" fill="#EED27C"/>
<path d="M173 317H147V320H173V317Z" fill="#C7B25D"/>
<path d="M174 317H173V320H174V317Z" fill="#C6B25D"/>
<path d="M200 317H174V320H200V317Z" fill="#EFD27C"/>
<path d="M20 320H0V323H20V320Z" fill="#C7B25D"/>
<path d="M30 320H20V323H30V320Z" fill="#EFD27C"/>
<path d="M34 320H30V323H34V320Z" fill="#E1A80D"/>
<path d="M40 320H37V323H40V320Z" fill="#E1A80D"/>
<path d="M56 320H40V323H56V320Z" fill="#C7B25D"/>
<path d="M57 320H56V323H57V320Z" fill="#C6B25D"/>
<path d="M66 320H57V324H66V320Z" fill="#EFD27C"/>
<path d="M67 320H66V324H67V320Z" fill="#EED27C"/>
<path d="M93 320H67V323H93V320Z" fill="#C7B25D"/>
<path d="M94 320H93V323H94V320Z" fill="#C6B25D"/>
<path d="M103 320H94V324H103V320Z" fill="#EFD27C"/>
<path d="M104 320H103V324H104V320Z" fill="#EED27C"/>
<path d="M130 320H104V323H130V320Z" fill="#C7B25D"/>
<path d="M140 320H130V323H140V320Z" fill="#EFD27C"/>
<path d="M166 320H140V323H166V320Z" fill="#C7B25D"/>
<path d="M167 320H166V323H167V320Z" fill="#C6B25D"/>
<path d="M200 320H167V324H200V320Z" fill="#EFD27C"/>
<path d="M17 323H0V324H17V323Z" fill="#C7B25D"/>
<path d="M20 323H17V324H20V323Z" fill="#C6B25D"/>
<path d="M26 323H20V324H26V323Z" fill="#EFD27C"/>
<path d="M27 323H26V327H27V323Z" fill="#EED27C"/>
<path d="M30 323H27V324H30V323Z" fill="#EFD27C"/>
<path d="M33 323H30V324H33V323Z" fill="#E0A80D"/>
<path d="M34 323H33V324H34V323Z" fill="#E1A80D"/>
<path d="M36 323H34V324H36V323Z" fill="#F1C54F"/>
<path d="M37 323H36V324H37V323Z" fill="#F0C54F"/>
<path d="M40 323H37V324H40V323Z" fill="#E0A80D"/>
<path d="M53 323H40V327H53V323Z" fill="#C7B25D"/>
<path d="M57 323H53V324H57V323Z" fill="#C6B25D"/>
<path d="M90 323H67V324H90V323Z" fill="#C7B25D"/>
<path d="M94 323H90V324H94V323Z" fill="#C6B25D"/>
<path d="M127 323H104V324H127V323Z" fill="#C7B25D"/>
<path d="M130 323H127V324H130V323Z" fill="#C6B25D"/>
<path d="M136 323H130V324H136V323Z" fill="#EFD27C"/>
<path d="M137 323H136V327H137V323Z" fill="#EED27C"/>
<path d="M140 323H137V324H140V323Z" fill="#EFD27C"/>
<path d="M163 323H140V324H163V323Z" fill="#C7B25D"/>
<path d="M167 323H163V324H167V323Z" fill="#C6B25D"/>
<path d="M16 324H0V326H16V324Z" fill="#C7B25D"/>
<path d="M17 324H16V326H17V324Z" fill="#C6B25D"/>
<path d="M26 324H17V327H26V324Z" fill="#EFD27C"/>
<path d="M30 324H27V327H30V324Z" fill="#C7B25D"/>
<path d="M40 324H30V326H40V324Z" fill="#F1C54F"/>
<path d="M54 324H53V327H54V324Z" fill="#C6B25D"/>
<path d="M63 324H54V327H63V324Z" fill="#EFD27C"/>
<path d="M64 324H63V327H64V324Z" fill="#EED27C"/>
<path d="M90 324H64V327H90V324Z" fill="#C7B25D"/>
<path d="M100 324H90V327H100V324Z" fill="#EFD27C"/>
<path d="M126 324H100V326H126V324Z" fill="#C7B25D"/>
<path d="M127 324H126V326H127V324Z" fill="#C6B25D"/>
<path d="M136 324H127V327H136V324Z" fill="#EFD27C"/>
<path d="M163 324H137V327H163V324Z" fill="#C7B25D"/>
<path d="M164 324H163V327H164V324Z" fill="#C6B25D"/>
<path d="M200 324H164V327H200V324Z" fill="#EFD27C"/>
<path d="M17 326H0V327H17V326Z" fill="#C7B25D"/>
<path d="M36 326H30V327H36V326Z" fill="#F1C54F"/>
<path d="M37 326H36V327H37V326Z" fill="#F0C54F"/>
<path d="M40 326H37V327H40V326Z" fill="#F1C54F"/>
<path d="M127 326H100V327H127V326Z" fill="#C7B25D"/>
<path d="M10 327H0V330H10V327Z" fill="#C7B25D"/>
<path d="M20 327H10V330H20V327Z" fill="#EFD27C"/>
<path d="M30 327H20V330H30V327Z" fill="#C7B25D"/>
<path d="M34 327H30V330H34V327Z" fill="#E1A80D"/>
<path d="M37 327H34V330H37V327Z" fill="#F1C54F"/>
<path d="M40 327H37V330H40V327Z" fill="#E1A80D"/>
<path d="M46 327H40V330H46V327Z" fill="#C7B25D"/>
<path d="M47 327H46V330H47V327Z" fill="#C6B25D"/>
<path d="M56 327H47V330H56V327Z" fill="#EFD27C"/>
<path d="M57 327H56V330H57V327Z" fill="#EED27C"/>
<path d="M83 327H57V330H83V327Z" fill="#C7B25D"/>
<path d="M84 327H83V330H84V327Z" fill="#C6B25D"/>
<path d="M93 327H84V330H93V327Z" fill="#EFD27C"/>
<path d="M94 327H93V330H94V327Z" fill="#EED27C"/>
<path d="M120 327H94V330H120V327Z" fill="#C7B25D"/>
<path d="M130 327H120V330H130V327Z" fill="#EFD27C"/>
<path d="M156 327H130V330H156V327Z" fill="#C7B25D"/>
<path d="M157 327H156V330H157V327Z" fill="#C6B25D"/>
<path d="M200 327H157V330H200V327Z" fill="#EFD27C"/>
<path d="M6 330H0V333H6V330Z" fill="#C7B25D"/>
<path d="M7 330H6V333H7V330Z" fill="#C6B25D"/>
<path d="M13 330H7V334H13V330Z" fill="#EFD27C"/>
<path d="M14 330H13V334H14V330Z" fill="#EED27C"/>
<path d="M20 330H14V334H20V330Z" fill="#C7B25D"/>
<path d="M24 330H20V334H24V330Z" fill="#F1C54F"/>
<path d="M30 330H24V334H30V330Z" fill="#C7B25D"/>
<path d="M40 330H30V333H40V330Z" fill="#F1C54F"/>
<path d="M43 330H40V333H43V330Z" fill="#C7B25D"/>
<path d="M44 330H43V333H44V330Z" fill="#C6B25D"/>
<path d="M50 330H44V333H50V330Z" fill="#EFD27C"/>
<path d="M80 330H50V333H80V330Z" fill="#C7B25D"/>
<path d="M86 330H80V334H86V330Z" fill="#EFD27C"/>
<path d="M87 330H86V334H87V330Z" fill="#EED27C"/>
<path d="M116 330H87V333H116V330Z" fill="#C7B25D"/>
<path d="M117 330H116V333H117V330Z" fill="#C6B25D"/>
<path d="M123 330H117V334H123V330Z" fill="#EFD27C"/>
<path d="M124 330H123V334H124V330Z" fill="#EED27C"/>
<path d="M153 330H124V333H153V330Z" fill="#C7B25D"/>
<path d="M154 330H153V333H154V330Z" fill="#C6B25D"/>
<path d="M200 330H154V334H200V330Z" fill="#EFD27C"/>
<path d="M7 333H0V334H7V333Z" fill="#C6B25D"/>
<path d="M33 333H30V334H33V333Z" fill="#F0C54F"/>
<path d="M37 333H33V334H37V333Z" fill="#F1C54F"/>
<path d="M40 333H37V334H40V333Z" fill="#F0C54F"/>
<path d="M44 333H40V334H44V333Z" fill="#C6B25D"/>
<path d="M46 333H44V334H46V333Z" fill="#EFD27C"/>
<path d="M47 333H46V337H47V333Z" fill="#EED27C"/>
<path d="M50 333H47V334H50V333Z" fill="#EFD27C"/>
<path d="M73 333H50V334H73V333Z" fill="#C7B25D"/>
<path d="M80 333H73V334H80V333Z" fill="#C6B25D"/>
<path d="M110 333H87V334H110V333Z" fill="#C7B25D"/>
<path d="M117 333H110V334H117V333Z" fill="#C6B25D"/>
<path d="M147 333H124V334H147V333Z" fill="#C7B25D"/>
<path d="M154 333H147V334H154V333Z" fill="#C6B25D"/>
<path d="M10 334H0V337H10V334Z" fill="#EFD27C"/>
<path d="M17 334H10V336H17V334Z" fill="#C7B25D"/>
<path d="M20 334H17V337H20V334Z" fill="#E1A80D"/>
<path d="M23 334H20V337H23V334Z" fill="#F1C54F"/>
<path d="M24 334H23V337H24V334Z" fill="#F0C54F"/>
<path d="M27 334H24V337H27V334Z" fill="#E1A80D"/>
<path d="M30 334H27V340H30V334Z" fill="#C7B25D"/>
<path d="M34 334H30V336H34V334Z" fill="#E1A80D"/>
<path d="M37 334H34V336H37V334Z" fill="#F1C54F"/>
<path d="M40 334H37V337H40V334Z" fill="#E1A80D"/>
<path d="M46 334H40V337H46V334Z" fill="#EFD27C"/>
<path d="M73 334H47V337H73V334Z" fill="#C7B25D"/>
<path d="M74 334H73V337H74V334Z" fill="#C6B25D"/>
<path d="M83 334H74V337H83V334Z" fill="#EFD27C"/>
<path d="M84 334H83V337H84V334Z" fill="#EED27C"/>
<path d="M110 334H84V337H110V334Z" fill="#C7B25D"/>
<path d="M120 334H110V337H120V334Z" fill="#EFD27C"/>
<path d="M146 334H120V336H146V334Z" fill="#C7B25D"/>
<path d="M147 334H146V336H147V334Z" fill="#C6B25D"/>
<path d="M200 334H147V337H200V334Z" fill="#EFD27C"/>
<path d="M16 336H10V337H16V336Z" fill="#C7B25D"/>
<path d="M17 336H16V340H17V336Z" fill="#C6B25D"/>
<path d="M33 336H30V337H33V336Z" fill="#E1A80D"/>
<path d="M34 336H33V337H34V336Z" fill="#E0A80D"/>
<path d="M36 336H34V337H36V336Z" fill="#F1C54F"/>
<path d="M37 336H36V337H37V336Z" fill="#F0C54F"/>
<path d="M147 336H120V337H147V336Z" fill="#C7B25D"/>
<path d="M3 337H0V340H3V337Z" fill="#EFD27C"/>
<path d="M4 337H3V340H4V337Z" fill="#EED27C"/>
<path d="M16 337H4V340H16V337Z" fill="#C7B25D"/>
<path d="M27 337H17V340H27V337Z" fill="#F1C54F"/>
<path d="M40 337H30V340H40V337Z" fill="#F1C54F"/>
<path d="M66 337H40V340H66V337Z" fill="#C7B25D"/>
<path d="M67 337H66V340H67V337Z" fill="#C6B25D"/>
<path d="M76 337H67V340H76V337Z" fill="#EFD27C"/>
<path d="M77 337H76V340H77V337Z" fill="#EED27C"/>
<path d="M103 337H77V340H103V337Z" fill="#C7B25D"/>
<path d="M104 337H103V340H104V337Z" fill="#C6B25D"/>
<path d="M113 337H104V340H113V337Z" fill="#EFD27C"/>
<path d="M114 337H113V340H114V337Z" fill="#EED27C"/>
<path d="M140 337H114V340H140V337Z" fill="#C7B25D"/>
<path d="M200 337H140V340H200V337Z" fill="#EFD27C"/>
<path d="M17 340H0V343H17V340Z" fill="#C7B25D"/>
<path d="M20 340H17V343H20V340Z" fill="#E1A80D"/>
<path d="M23 340H20V344H23V340Z" fill="#F1C54F"/>
<path d="M24 340H23V344H24V340Z" fill="#F0C54F"/>
<path d="M27 340H24V343H27V340Z" fill="#E1A80D"/>
<path d="M30 340H27V347H30V340Z" fill="#EFD27C"/>
<path d="M34 340H30V343H34V340Z" fill="#E1A80D"/>
<path d="M37 340H34V350H37V340Z" fill="#F1C54F"/>
<path d="M40 340H37V344H40V340Z" fill="#E1A80D"/>
<path d="M63 340H40V343H63V340Z" fill="#C7B25D"/>
<path d="M64 340H63V343H64V340Z" fill="#C6B25D"/>
<path d="M70 340H64V343H70V340Z" fill="#EFD27C"/>
<path d="M100 340H70V343H100V340Z" fill="#C7B25D"/>
<path d="M106 340H100V344H106V340Z" fill="#EFD27C"/>
<path d="M107 340H106V344H107V340Z" fill="#EED27C"/>
<path d="M136 340H107V343H136V340Z" fill="#C7B25D"/>
<path d="M137 340H136V343H137V340Z" fill="#C6B25D"/>
<path d="M200 340H137V344H200V340Z" fill="#EFD27C"/>
<path d="M16 343H0V346H16V343Z" fill="#C7B25D"/>
<path d="M17 343H16V346H17V343Z" fill="#C6B25D"/>
<path d="M20 343H17V344H20V343Z" fill="#E0A80D"/>
<path d="M26 343H24V344H26V343Z" fill="#E0A80D"/>
<path d="M27 343H26V344H27V343Z" fill="#E1A80D"/>
<path d="M33 343H30V344H33V343Z" fill="#E1A80D"/>
<path d="M34 343H33V344H34V343Z" fill="#E0A80D"/>
<path d="M43 343H40V344H43V343Z" fill="#C7B25D"/>
<path d="M47 343H43V344H47V343Z" fill="#C6B25D"/>
<path d="M57 343H47V346H57V343Z" fill="#C7B25D"/>
<path d="M63 343H57V344H63V343Z" fill="#C6B25D"/>
<path d="M64 343H63V344H64V343Z" fill="#C7B25D"/>
<path d="M66 343H64V344H66V343Z" fill="#EED27C"/>
<path d="M70 343H66V344H70V343Z" fill="#EFD27C"/>
<path d="M93 343H70V344H93V343Z" fill="#C7B25D"/>
<path d="M100 343H93V344H100V343Z" fill="#C6B25D"/>
<path d="M130 343H107V344H130V343Z" fill="#C7B25D"/>
<path d="M137 343H130V344H137V343Z" fill="#C6B25D"/>
<path d="M26 344H17V346H26V344Z" fill="#F1C54F"/>
<path d="M27 344H26V346H27V344Z" fill="#F0C54F"/>
<path d="M34 344H30V346H34V344Z" fill="#C7B25D"/>
<path d="M44 344H37V346H44V344Z" fill="#C7B25D"/>
<path d="M47 344H44V350H47V344Z" fill="#F1C54F"/>
<path d="M67 344H57V346H67V344Z" fill="#CFB056"/>
<path d="M93 344H67V347H93V344Z" fill="#C7B25D"/>
<path d="M94 344H93V347H94V344Z" fill="#C6B25D"/>
<path d="M103 344H94V347H103V344Z" fill="#EFD27C"/>
<path d="M104 344H103V347H104V344Z" fill="#EED27C"/>
<path d="M130 344H104V346H130V344Z" fill="#C7B25D"/>
<path d="M200 344H130V347H200V344Z" fill="#EFD27C"/>
<path d="M17 346H0V347H17V346Z" fill="#C7B25D"/>
<path d="M27 346H17V347H27V346Z" fill="#F1C54F"/>
<path d="M33 346H30V347H33V346Z" fill="#C7B25D"/>
<path d="M34 346H33V347H34V346Z" fill="#C6B25D"/>
<path d="M40 346H37V350H40V346Z" fill="#C7B25D"/>
<path d="M44 346H40V347H44V346Z" fill="#C6B25D"/>
<path d="M50 346H47V347H50V346Z" fill="#C6B25D"/>
<path d="M56 346H50V347H56V346Z" fill="#C7B25D"/>
<path d="M57 346H56V347H57V346Z" fill="#C6B25D"/>
<path d="M66 346H57V347H66V346Z" fill="#CEB056"/>
<path d="M67 346H66V347H67V346Z" fill="#CFB056"/>
<path d="M110 346H104V347H110V346Z" fill="#C6B25D"/>
<path d="M130 346H110V347H130V346Z" fill="#C7B25D"/>
<path d="M10 347H0V350H10V347Z" fill="#C7B25D"/>
<path d="M16 347H10V350H16V347Z" fill="#EFD27C"/>
<path d="M17 347H16V357H17V347Z" fill="#EED27C"/>
<path d="M20 347H17V350H20V347Z" fill="#E1A80D"/>
<path d="M23 347H20V350H23V347Z" fill="#F1C54F"/>
<path d="M24 347H23V350H24V347Z" fill="#F0C54F"/>
<path d="M27 347H24V350H27V347Z" fill="#E1A80D"/>
<path d="M33 347H27V357H33V347Z" fill="#EFD27C"/>
<path d="M34 347H33V360H34V347Z" fill="#EED27C"/>
<path d="M44 347H40V350H44V347Z" fill="#E1A80D"/>
<path d="M50 347H47V350H50V347Z" fill="#E1A80D"/>
<path d="M70 347H50V350H70V347Z" fill="#EFD27C"/>
<path d="M83 347H70V350H83V347Z" fill="#C7B25D"/>
<path d="M84 347H83V350H84V347Z" fill="#C6B25D"/>
<path d="M104 347H84V350H104V347Z" fill="#EFD27C"/>
<path d="M110 347H104V350H110V347Z" fill="#CFB056"/>
<path d="M120 347H110V350H120V347Z" fill="#C7B25D"/>
<path d="M200 347H120V350H200V347Z" fill="#EFD27C"/>
<path d="M16 350H0V356H16V350Z" fill="#EFD27C"/>
<path d="M26 350H17V353H26V350Z" fill="#F1C54F"/>
<path d="M27 350H26V353H27V350Z" fill="#F0C54F"/>
<path d="M36 350H34V360H36V350Z" fill="#F1C54F"/>
<path d="M37 350H36V360H37V350Z" fill="#F0C54F"/>
<path d="M40 350H37V360H40V350Z" fill="#EFD27C"/>
<path d="M50 350H40V353H50V350Z" fill="#F1C54F"/>
<path d="M200 350H50V353H200V350Z" fill="#EFD27C"/>
<path d="M20 353H17V354H20V353Z" fill="#F0C54F"/>
<path d="M23 353H20V356H23V353Z" fill="#F1C54F"/>
<path d="M26 353H23V354H26V353Z" fill="#F0C54F"/>
<path d="M27 353H26V354H27V353Z" fill="#F1C54F"/>
<path d="M43 353H40V354H43V353Z" fill="#F0C54F"/>
<path d="M47 353H43V354H47V353Z" fill="#F1C54F"/>
<path d="M50 353H47V354H50V353Z" fill="#F0C54F"/>
<path d="M77 353H50V357H77V353Z" fill="#EFD27C"/>
<path d="M83 353H77V354H83V353Z" fill="#EED27C"/>
<path d="M200 353H83V354H200V353Z" fill="#EFD27C"/>
<path d="M20 354H17V357H20V354Z" fill="#E1A80D"/>
<path d="M24 354H23V356H24V354Z" fill="#F0C54F"/>
<path d="M27 354H24V357H27V354Z" fill="#E1A80D"/>
<path d="M44 354H40V356H44V354Z" fill="#E1A80D"/>
<path d="M47 354H44V356H47V354Z" fill="#F1C54F"/>
<path d="M50 354H47V357H50V354Z" fill="#E1A80D"/>
<path d="M84 354H77V356H84V354Z" fill="#CFB056"/>
<path d="M200 354H84V357H200V354Z" fill="#EFD27C"/>
<path d="M3 356H0V357H3V356Z" fill="#EED27C"/>
<path d="M16 356H3V357H16V356Z" fill="#EFD27C"/>
<path d="M24 356H20V357H24V356Z" fill="#F1C54F"/>
<path d="M43 356H40V357H43V356Z" fill="#E1A80D"/>
<path d="M44 356H43V357H44V356Z" fill="#E0A80D"/>
<path d="M46 356H44V357H46V356Z" fill="#F1C54F"/>
<path d="M47 356H46V357H47V356Z" fill="#F0C54F"/>
<path d="M83 356H77V357H83V356Z" fill="#CEB056"/>
<path d="M84 356H83V357H84V356Z" fill="#CFB056"/>
<path d="M4 357H0V360H4V357Z" fill="#CFB056"/>
<path d="M20 357H4V360H20V357Z" fill="#EFD27C"/>
<path d="M23 357H20V373H23V357Z" fill="#F1C54F"/>
<path d="M24 357H23V373H24V357Z" fill="#F0C54F"/>
<path d="M33 357H24V360H33V357Z" fill="#EFD27C"/>
<path d="M50 357H40V360H50V357Z" fill="#F1C54F"/>
<path d="M200 357H50V360H200V357Z" fill="#EFD27C"/>
<path d="M20 360H0V374H20V360Z" fill="#EFD27C"/>
<path d="M40 360H24V370H40V360Z" fill="#EFD27C"/>
<path d="M44 360H40V363H44V360Z" fill="#E1A80D"/>
<path d="M47 360H44V363H47V360Z" fill="#F1C54F"/>
<path d="M50 360H47V363H50V360Z" fill="#E1A80D"/>
<path d="M200 360H50V367H200V360Z" fill="#EFD27C"/>
<path d="M43 363H40V364H43V363Z" fill="#E0A80D"/>
<path d="M44 363H43V364H44V363Z" fill="#E1A80D"/>
<path d="M46 363H44V364H46V363Z" fill="#F1C54F"/>
<path d="M47 363H46V364H47V363Z" fill="#F0C54F"/>
<path d="M50 363H47V364H50V363Z" fill="#E0A80D"/>
<path d="M50 364H40V366H50V364Z" fill="#F1C54F"/>
<path d="M46 366H40V367H46V366Z" fill="#F1C54F"/>
<path d="M47 366H46V367H47V366Z" fill="#F0C54F"/>
<path d="M50 366H47V367H50V366Z" fill="#F1C54F"/>
<path d="M44 367H40V370H44V367Z" fill="#E1A80D"/>
<path d="M47 367H44V370H47V367Z" fill="#F1C54F"/>
<path d="M50 367H47V370H50V367Z" fill="#E1A80D"/>
<path d="M200 367H50V370H200V367Z" fill="#EFD27C"/>
<path d="M43 370H24V374H43V370Z" fill="#EFD27C"/>
<path d="M44 370H43V387H44V370Z" fill="#EED27C"/>
<path d="M46 370H44V386H46V370Z" fill="#F1C54F"/>
<path d="M47 370H46V386H47V370Z" fill="#F0C54F"/>
<path d="M110 370H47V373H110V370Z" fill="#EFD27C"/>
<path d="M120 370H110V374H120V370Z" fill="#CFB056"/>
<path d="M200 370H120V374H200V370Z" fill="#EFD27C"/>
<path d="M23 373H20V374H23V373Z" fill="#F0C54F"/>
<path d="M24 373H23V374H24V373Z" fill="#F1C54F"/>
<path d="M57 373H47V377H57V373Z" fill="#EFD27C"/>
<path d="M67 373H57V374H67V373Z" fill="#EED27C"/>
<path d="M77 373H67V377H77V373Z" fill="#EFD27C"/>
<path d="M80 373H77V374H80V373Z" fill="#EED27C"/>
<path d="M87 373H80V377H87V373Z" fill="#EFD27C"/>
<path d="M90 373H87V374H90V373Z" fill="#EED27C"/>
<path d="M110 373H90V374H110V373Z" fill="#EFD27C"/>
<path d="M43 374H0V376H43V374Z" fill="#EFD27C"/>
<path d="M66 374H57V376H66V374Z" fill="#CFB056"/>
<path d="M67 374H66V376H67V374Z" fill="#CEB056"/>
<path d="M80 374H77V376H80V374Z" fill="#CFB056"/>
<path d="M90 374H87V376H90V374Z" fill="#CFB056"/>
<path d="M200 374H90V377H200V374Z" fill="#EFD27C"/>
<path d="M17 376H0V380H17V376Z" fill="#EFD27C"/>
<path d="M23 376H17V377H23V376Z" fill="#EED27C"/>
<path d="M27 376H23V377H27V376Z" fill="#EFD27C"/>
<path d="M33 376H27V377H33V376Z" fill="#EED27C"/>
<path d="M43 376H33V377H43V376Z" fill="#EFD27C"/>
<path d="M66 376H57V377H66V376Z" fill="#CEB056"/>
<path d="M67 376H66V377H67V376Z" fill="#CFB056"/>
<path d="M80 376H77V377H80V376Z" fill="#CEB056"/>
<path d="M90 376H87V377H90V376Z" fill="#CEB056"/>
<path d="M24 377H17V380H24V377Z" fill="#CFB056"/>
<path d="M27 377H24V380H27V377Z" fill="#EFD27C"/>
<path d="M34 377H27V380H34V377Z" fill="#CFB056"/>
<path d="M43 377H34V380H43V377Z" fill="#EFD27C"/>
<path d="M200 377H47V383H200V377Z" fill="#EFD27C"/>
<path d="M43 380H0V386H43V380Z" fill="#EFD27C"/>
<path d="M200 383H47V387H200V383Z" fill="#EFD27C"/>
<path d="M10 386H0V387H10V386Z" fill="#EED27C"/>
<path d="M43 386H10V387H43V386Z" fill="#EFD27C"/>
<path d="M46 386H44V387H46V386Z" fill="#F0C54F"/>
<path d="M47 386H46V387H47V386Z" fill="#F1C54F"/>
<path d="M10 387H0V390H10V387Z" fill="#CFB056"/>
<path d="M200 387H10V390H200V387Z" fill="#EFD27C"/>
<path d="M27 390H0V394H27V390Z" fill="#EFD27C"/>
<path d="M34 390H27V393H34V390Z" fill="#CFB056"/>
<path d="M40 390H34V394H40V390Z" fill="#EFD27C"/>
<path d="M46 390H40V394H46V390Z" fill="#CFB056"/>
<path d="M47 390H46V394H47V390Z" fill="#CEB056"/>
<path d="M50 390H47V394H50V390Z" fill="#EFD27C"/>
<path d="M64 390H50V393H64V390Z" fill="#CFB056"/>
<path d="M140 390H64V394H140V390Z" fill="#EFD27C"/>
<path d="M160 390H140V394H160V390Z" fill="#CFB056"/>
<path d="M200 390H160V394H200V390Z" fill="#EFD27C"/>
<path d="M33 393H27V394H33V393Z" fill="#CFB056"/>
<path d="M34 393H33V394H34V393Z" fill="#CEB056"/>
<path d="M63 393H50V394H63V393Z" fill="#CFB056"/>
<path d="M64 393H63V394H64V393Z" fill="#CEB056"/>
<path d="M200 394H0V400H200V394Z" fill="#EFD27C"/>
</g>
<defs>
<clipPath id="clip0_68_3334">
<rect width="200" height="400" fill="white"/>
</clipPath>
</defs>
</svg>
