<svg width="200" height="400" viewBox="0 0 200 400" fill="none" xmlns="http://www.w3.org/2000/svg">
<g clip-path="url(#clip0_68_9984)">
<path d="M90 177H87V180H90V177Z" fill="#E1A80D"/>
<path d="M100 177H90V180H100V177Z" fill="#ECCA6B"/>
<path d="M120 177H110V180H120V177Z" fill="#ECCA6B"/>
<path d="M127 177H120V180H127V177Z" fill="#E1A80D"/>
<path d="M150 177H147V180H150V177Z" fill="#E1A80D"/>
<path d="M160 177H150V180H160V177Z" fill="#ECCA6B"/>
<path d="M180 177H170V180H180V177Z" fill="#ECCA6B"/>
<path d="M187 177H180V180H187V177Z" fill="#E1A80D"/>
<path d="M63 180H60V190H63V180Z" fill="#EFD27C"/>
<path d="M64 180H63V190H64V180Z" fill="#EED27C"/>
<path d="M87 180H84V184H87V180Z" fill="#E1A80D"/>
<path d="M104 180H87V183H104V180Z" fill="#ECCA6B"/>
<path d="M107 180H104V184H107V180Z" fill="#7F6A34"/>
<path d="M117 180H107V183H117V180Z" fill="#ECCA6B"/>
<path d="M123 180H117V183H123V180Z" fill="#E1A80D"/>
<path d="M124 180H123V183H124V180Z" fill="#E0A80D"/>
<path d="M127 180H124V183H127V180Z" fill="#ECCA6B"/>
<path d="M130 180H127V184H130V180Z" fill="#E1A80D"/>
<path d="M147 180H144V184H147V180Z" fill="#E1A80D"/>
<path d="M164 180H147V183H164V180Z" fill="#ECCA6B"/>
<path d="M167 180H164V184H167V180Z" fill="#7F6A34"/>
<path d="M177 180H167V183H177V180Z" fill="#ECCA6B"/>
<path d="M183 180H177V183H183V180Z" fill="#E1A80D"/>
<path d="M184 180H183V183H184V180Z" fill="#E0A80D"/>
<path d="M187 180H184V183H187V180Z" fill="#ECCA6B"/>
<path d="M190 180H187V184H190V180Z" fill="#E1A80D"/>
<path d="M200 180H197V190H200V180Z" fill="#EFD27C"/>
<path d="M97 183H87V184H97V183Z" fill="#EDCA6B"/>
<path d="M100 183H97V187H100V183Z" fill="#ECCA6B"/>
<path d="M103 183H100V184H103V183Z" fill="#EDCA6B"/>
<path d="M104 183H103V184H104V183Z" fill="#ECCA6B"/>
<path d="M110 183H107V184H110V183Z" fill="#EDCA6B"/>
<path d="M117 183H110V184H117V183Z" fill="#ECCA6B"/>
<path d="M124 183H117V184H124V183Z" fill="#E1A80D"/>
<path d="M126 183H124V184H126V183Z" fill="#ECCA6B"/>
<path d="M127 183H126V184H127V183Z" fill="#EDCA6B"/>
<path d="M157 183H147V184H157V183Z" fill="#EDCA6B"/>
<path d="M160 183H157V187H160V183Z" fill="#ECCA6B"/>
<path d="M163 183H160V184H163V183Z" fill="#EDCA6B"/>
<path d="M164 183H163V184H164V183Z" fill="#ECCA6B"/>
<path d="M170 183H167V184H170V183Z" fill="#EDCA6B"/>
<path d="M177 183H170V184H177V183Z" fill="#ECCA6B"/>
<path d="M184 183H177V184H184V183Z" fill="#E1A80D"/>
<path d="M186 183H184V184H186V183Z" fill="#ECCA6B"/>
<path d="M187 183H186V184H187V183Z" fill="#EDCA6B"/>
<path d="M36 184H34V190H36V184Z" fill="#EFD27C"/>
<path d="M37 184H36V190H37V184Z" fill="#EED27C"/>
<path d="M50 184H47V190H50V184Z" fill="#EFD27C"/>
<path d="M76 184H74V187H76V184Z" fill="#EFD27C"/>
<path d="M77 184H76V190H77V184Z" fill="#EED27C"/>
<path d="M84 184H80V187H84V184Z" fill="#DFA80E"/>
<path d="M86 184H84V186H86V184Z" fill="#ECCA6B"/>
<path d="M87 184H86V186H87V184Z" fill="#EDCA6B"/>
<path d="M96 184H87V186H96V184Z" fill="#CB9A18"/>
<path d="M97 184H96V186H97V184Z" fill="#CA9A18"/>
<path d="M104 184H100V193H104V184Z" fill="#7F6A34"/>
<path d="M106 184H104V186H106V184Z" fill="#ECCA6B"/>
<path d="M107 184H106V186H107V184Z" fill="#EDCA6B"/>
<path d="M110 184H107V187H110V184Z" fill="#CB9A18"/>
<path d="M114 184H110V186H114V184Z" fill="#ECCA6B"/>
<path d="M117 184H114V186H117V184Z" fill="#DFA80E"/>
<path d="M120 184H117V186H120V184Z" fill="#E1A80D"/>
<path d="M123 184H120V186H123V184Z" fill="#ECCA6B"/>
<path d="M124 184H123V186H124V184Z" fill="#EDCA6B"/>
<path d="M130 184H124V187H130V184Z" fill="#E1A80D"/>
<path d="M133 184H130V186H133V184Z" fill="#DFA80E"/>
<path d="M134 184H133V186H134V184Z" fill="#DEA80E"/>
<path d="M144 184H140V187H144V184Z" fill="#DFA80E"/>
<path d="M146 184H144V186H146V184Z" fill="#ECCA6B"/>
<path d="M147 184H146V186H147V184Z" fill="#EDCA6B"/>
<path d="M156 184H147V186H156V184Z" fill="#CB9A18"/>
<path d="M157 184H156V186H157V184Z" fill="#CA9A18"/>
<path d="M164 184H160V193H164V184Z" fill="#7F6A34"/>
<path d="M166 184H164V186H166V184Z" fill="#ECCA6B"/>
<path d="M167 184H166V186H167V184Z" fill="#EDCA6B"/>
<path d="M170 184H167V187H170V184Z" fill="#CB9A18"/>
<path d="M174 184H170V186H174V184Z" fill="#ECCA6B"/>
<path d="M177 184H174V186H177V184Z" fill="#DFA80E"/>
<path d="M180 184H177V186H180V184Z" fill="#E1A80D"/>
<path d="M183 184H180V186H183V184Z" fill="#ECCA6B"/>
<path d="M184 184H183V186H184V184Z" fill="#EDCA6B"/>
<path d="M190 184H184V187H190V184Z" fill="#E1A80D"/>
<path d="M193 184H190V186H193V184Z" fill="#DFA80E"/>
<path d="M194 184H193V186H194V184Z" fill="#DEA80E"/>
<path d="M87 186H84V187H87V186Z" fill="#ECCA6B"/>
<path d="M97 186H87V187H97V186Z" fill="#CB9A18"/>
<path d="M107 186H104V187H107V186Z" fill="#ECCA6B"/>
<path d="M113 186H110V187H113V186Z" fill="#ECCA6B"/>
<path d="M114 186H113V193H114V186Z" fill="#EDCA6B"/>
<path d="M116 186H114V187H116V186Z" fill="#DFA80E"/>
<path d="M117 186H116V187H117V186Z" fill="#DEA80E"/>
<path d="M120 186H117V187H120V186Z" fill="#E0A80D"/>
<path d="M124 186H120V187H124V186Z" fill="#EDCA6B"/>
<path d="M134 186H130V187H134V186Z" fill="#DFA80E"/>
<path d="M147 186H144V187H147V186Z" fill="#ECCA6B"/>
<path d="M157 186H147V187H157V186Z" fill="#CB9A18"/>
<path d="M167 186H164V187H167V186Z" fill="#ECCA6B"/>
<path d="M173 186H170V187H173V186Z" fill="#ECCA6B"/>
<path d="M174 186H173V193H174V186Z" fill="#EDCA6B"/>
<path d="M176 186H174V187H176V186Z" fill="#DFA80E"/>
<path d="M177 186H176V187H177V186Z" fill="#DEA80E"/>
<path d="M180 186H177V187H180V186Z" fill="#E0A80D"/>
<path d="M184 186H180V187H184V186Z" fill="#EDCA6B"/>
<path d="M194 186H190V187H194V186Z" fill="#DFA80E"/>
<path d="M56 187H54V190H56V187Z" fill="#EFD27C"/>
<path d="M57 187H56V190H57V187Z" fill="#EED27C"/>
<path d="M76 187H70V190H76V187Z" fill="#EFD27C"/>
<path d="M83 187H80V196H83V187Z" fill="#E1A80D"/>
<path d="M84 187H83V196H84V187Z" fill="#E0A80D"/>
<path d="M100 187H84V190H100V187Z" fill="#ECCA6B"/>
<path d="M113 187H104V190H113V187Z" fill="#ECCA6B"/>
<path d="M117 187H114V196H117V187Z" fill="#E1A80D"/>
<path d="M120 187H117V196H120V187Z" fill="#ECCA6B"/>
<path d="M134 187H120V190H134V187Z" fill="#E1A80D"/>
<path d="M143 187H140V196H143V187Z" fill="#E1A80D"/>
<path d="M144 187H143V196H144V187Z" fill="#E0A80D"/>
<path d="M160 187H144V190H160V187Z" fill="#ECCA6B"/>
<path d="M173 187H164V190H173V187Z" fill="#ECCA6B"/>
<path d="M177 187H174V196H177V187Z" fill="#E1A80D"/>
<path d="M180 187H177V196H180V187Z" fill="#ECCA6B"/>
<path d="M194 187H180V190H194V187Z" fill="#E1A80D"/>
<path d="M80 190H0V193H80V190Z" fill="#EFD27C"/>
<path d="M87 190H84V194H87V190Z" fill="#D4BA70"/>
<path d="M96 190H87V193H96V190Z" fill="#CB9A18"/>
<path d="M97 190H96V193H97V190Z" fill="#CA9A18"/>
<path d="M100 190H97V194H100V190Z" fill="#ECCA6B"/>
<path d="M106 190H104V193H106V190Z" fill="#ECCA6B"/>
<path d="M107 190H106V193H107V190Z" fill="#EDCA6B"/>
<path d="M110 190H107V193H110V190Z" fill="#CB9A18"/>
<path d="M113 190H110V193H113V190Z" fill="#ECCA6B"/>
<path d="M123 190H120V193H123V190Z" fill="#E1A80D"/>
<path d="M124 190H123V193H124V190Z" fill="#E0A80D"/>
<path d="M130 190H124V194H130V190Z" fill="#ECCA6B"/>
<path d="M133 190H130V194H133V190Z" fill="#E1A80D"/>
<path d="M134 190H133V194H134V190Z" fill="#E0A80D"/>
<path d="M140 190H134V194H140V190Z" fill="#EFD27C"/>
<path d="M147 190H144V194H147V190Z" fill="#D4BA70"/>
<path d="M156 190H147V193H156V190Z" fill="#CB9A18"/>
<path d="M157 190H156V193H157V190Z" fill="#CA9A18"/>
<path d="M160 190H157V194H160V190Z" fill="#ECCA6B"/>
<path d="M166 190H164V193H166V190Z" fill="#ECCA6B"/>
<path d="M167 190H166V193H167V190Z" fill="#EDCA6B"/>
<path d="M170 190H167V193H170V190Z" fill="#CB9A18"/>
<path d="M173 190H170V193H173V190Z" fill="#ECCA6B"/>
<path d="M183 190H180V193H183V190Z" fill="#E1A80D"/>
<path d="M184 190H183V193H184V190Z" fill="#E0A80D"/>
<path d="M190 190H184V193H190V190Z" fill="#ECCA6B"/>
<path d="M193 190H190V197H193V190Z" fill="#E1A80D"/>
<path d="M194 190H193V200H194V190Z" fill="#E0A80D"/>
<path d="M197 190H194V194H197V190Z" fill="#EFD27C"/>
<path d="M200 190H197V194H200V190Z" fill="#CFB056"/>
<path d="M50 193H0V194H50V193Z" fill="#EFD27C"/>
<path d="M60 193H50V194H60V193Z" fill="#EED27C"/>
<path d="M66 193H60V196H66V193Z" fill="#EFD27C"/>
<path d="M67 193H66V196H67V193Z" fill="#EED27C"/>
<path d="M80 193H67V194H80V193Z" fill="#EFD27C"/>
<path d="M96 193H87V194H96V193Z" fill="#CA9A18"/>
<path d="M97 193H96V194H97V193Z" fill="#CB9A18"/>
<path d="M103 193H100V194H103V193Z" fill="#7E6A34"/>
<path d="M104 193H103V194H104V193Z" fill="#7F6A34"/>
<path d="M107 193H104V194H107V193Z" fill="#ECCA6B"/>
<path d="M110 193H107V194H110V193Z" fill="#CA9A18"/>
<path d="M114 193H110V194H114V193Z" fill="#ECCA6B"/>
<path d="M124 193H120V194H124V193Z" fill="#E1A80D"/>
<path d="M156 193H147V194H156V193Z" fill="#CA9A18"/>
<path d="M157 193H156V194H157V193Z" fill="#CB9A18"/>
<path d="M163 193H160V194H163V193Z" fill="#7E6A34"/>
<path d="M164 193H163V194H164V193Z" fill="#7F6A34"/>
<path d="M167 193H164V194H167V193Z" fill="#ECCA6B"/>
<path d="M170 193H167V194H170V193Z" fill="#CA9A18"/>
<path d="M174 193H170V194H174V193Z" fill="#ECCA6B"/>
<path d="M184 193H180V194H184V193Z" fill="#E1A80D"/>
<path d="M186 193H184V194H186V193Z" fill="#ECCA6B"/>
<path d="M187 193H186V194H187V193Z" fill="#EDCA6B"/>
<path d="M190 193H187V196H190V193Z" fill="#ECCA6B"/>
<path d="M50 194H0V197H50V194Z" fill="#EFD27C"/>
<path d="M60 194H50V196H60V194Z" fill="#CFB056"/>
<path d="M70 194H67V196H70V194Z" fill="#E1A80D"/>
<path d="M80 194H70V197H80V194Z" fill="#ECCA6B"/>
<path d="M90 194H84V196H90V194Z" fill="#D4BA70"/>
<path d="M100 194H90V196H100V194Z" fill="#ECCA6B"/>
<path d="M106 194H100V196H106V194Z" fill="#E1A80D"/>
<path d="M107 194H106V196H107V194Z" fill="#E0A80D"/>
<path d="M114 194H107V197H114V194Z" fill="#D4BA70"/>
<path d="M130 194H120V196H130V194Z" fill="#E1A80D"/>
<path d="M140 194H130V197H140V194Z" fill="#ECCA6B"/>
<path d="M150 194H144V196H150V194Z" fill="#D4BA70"/>
<path d="M160 194H150V196H160V194Z" fill="#ECCA6B"/>
<path d="M166 194H160V196H166V194Z" fill="#E1A80D"/>
<path d="M167 194H166V196H167V194Z" fill="#E0A80D"/>
<path d="M174 194H167V197H174V194Z" fill="#D4BA70"/>
<path d="M187 194H180V196H187V194Z" fill="#E1A80D"/>
<path d="M200 194H194V200H200V194Z" fill="#EFD27C"/>
<path d="M60 196H50V197H60V196Z" fill="#CEB056"/>
<path d="M63 196H60V197H63V196Z" fill="#EFD27C"/>
<path d="M64 196H63V197H64V196Z" fill="#EED27C"/>
<path d="M67 196H64V197H67V196Z" fill="#EFD27C"/>
<path d="M70 196H67V197H70V196Z" fill="#E0A80D"/>
<path d="M84 196H80V197H84V196Z" fill="#E0A80D"/>
<path d="M87 196H84V197H87V196Z" fill="#D5BA70"/>
<path d="M90 196H87V197H90V196Z" fill="#D4BA70"/>
<path d="M97 196H90V197H97V196Z" fill="#ECCA6B"/>
<path d="M100 196H97V197H100V196Z" fill="#EDCA6B"/>
<path d="M103 196H100V197H103V196Z" fill="#E1A80D"/>
<path d="M107 196H103V197H107V196Z" fill="#E0A80D"/>
<path d="M116 196H114V197H116V196Z" fill="#E1A80D"/>
<path d="M117 196H116V197H117V196Z" fill="#E0A80D"/>
<path d="M120 196H117V197H120V196Z" fill="#EDCA6B"/>
<path d="M124 196H120V197H124V196Z" fill="#E0A80D"/>
<path d="M127 196H124V200H127V196Z" fill="#E1A80D"/>
<path d="M130 196H127V197H130V196Z" fill="#E0A80D"/>
<path d="M144 196H140V197H144V196Z" fill="#E0A80D"/>
<path d="M147 196H144V197H147V196Z" fill="#D5BA70"/>
<path d="M150 196H147V197H150V196Z" fill="#D4BA70"/>
<path d="M157 196H150V197H157V196Z" fill="#ECCA6B"/>
<path d="M160 196H157V197H160V196Z" fill="#EDCA6B"/>
<path d="M163 196H160V197H163V196Z" fill="#E1A80D"/>
<path d="M167 196H163V197H167V196Z" fill="#E0A80D"/>
<path d="M176 196H174V197H176V196Z" fill="#E1A80D"/>
<path d="M177 196H176V197H177V196Z" fill="#E0A80D"/>
<path d="M180 196H177V197H180V196Z" fill="#EDCA6B"/>
<path d="M187 196H180V197H187V196Z" fill="#E0A80D"/>
<path d="M190 196H187V197H190V196Z" fill="#EDCA6B"/>
<path d="M64 197H0V200H64V197Z" fill="#EFD27C"/>
<path d="M67 197H64V200H67V197Z" fill="#E1A80D"/>
<path d="M84 197H67V200H84V197Z" fill="#ECCA6B"/>
<path d="M87 197H84V200H87V197Z" fill="#7F6A34"/>
<path d="M97 197H87V200H97V197Z" fill="#ECCA6B"/>
<path d="M103 197H97V200H103V197Z" fill="#E1A80D"/>
<path d="M104 197H103V200H104V197Z" fill="#E0A80D"/>
<path d="M107 197H104V200H107V197Z" fill="#ECCA6B"/>
<path d="M110 197H107V200H110V197Z" fill="#E1A80D"/>
<path d="M114 197H110V200H114V197Z" fill="#D4BA70"/>
<path d="M120 197H114V200H120V197Z" fill="#E1A80D"/>
<path d="M123 197H120V200H123V197Z" fill="#ECCA6B"/>
<path d="M124 197H123V200H124V197Z" fill="#EDCA6B"/>
<path d="M144 197H127V200H144V197Z" fill="#ECCA6B"/>
<path d="M147 197H144V200H147V197Z" fill="#7F6A34"/>
<path d="M157 197H147V200H157V197Z" fill="#ECCA6B"/>
<path d="M163 197H157V200H163V197Z" fill="#E1A80D"/>
<path d="M164 197H163V200H164V197Z" fill="#E0A80D"/>
<path d="M167 197H164V200H167V197Z" fill="#ECCA6B"/>
<path d="M170 197H167V200H170V197Z" fill="#E1A80D"/>
<path d="M174 197H170V200H174V197Z" fill="#D4BA70"/>
<path d="M180 197H174V200H180V197Z" fill="#E1A80D"/>
<path d="M187 197H180V200H187V197Z" fill="#ECCA6B"/>
<path d="M193 197H187V200H193V197Z" fill="#E1A80D"/>
<path d="M60 200H0V203H60V200Z" fill="#EFD27C"/>
<path d="M63 200H60V216H63V200Z" fill="#E1A80D"/>
<path d="M64 200H63V216H64V200Z" fill="#E0A80D"/>
<path d="M66 200H64V204H66V200Z" fill="#ECCA6B"/>
<path d="M67 200H66V204H67V200Z" fill="#EDCA6B"/>
<path d="M76 200H67V203H76V200Z" fill="#CB9A18"/>
<path d="M77 200H76V203H77V200Z" fill="#CA9A18"/>
<path d="M80 200H77V204H80V200Z" fill="#ECCA6B"/>
<path d="M84 200H80V213H84V200Z" fill="#7F6A34"/>
<path d="M86 200H84V204H86V200Z" fill="#ECCA6B"/>
<path d="M87 200H86V204H87V200Z" fill="#EDCA6B"/>
<path d="M90 200H87V203H90V200Z" fill="#CB9A18"/>
<path d="M93 200H90V204H93V200Z" fill="#ECCA6B"/>
<path d="M94 200H93V210H94V200Z" fill="#EDCA6B"/>
<path d="M100 200H94V203H100V200Z" fill="#E1A80D"/>
<path d="M103 200H100V203H103V200Z" fill="#ECCA6B"/>
<path d="M104 200H103V203H104V200Z" fill="#EDCA6B"/>
<path d="M113 200H104V203H113V200Z" fill="#E1A80D"/>
<path d="M114 200H113V203H114V200Z" fill="#E0A80D"/>
<path d="M116 200H114V203H116V200Z" fill="#D4BA70"/>
<path d="M117 200H116V203H117V200Z" fill="#D5BA70"/>
<path d="M123 200H117V204H123V200Z" fill="#E1A80D"/>
<path d="M124 200H123V216H124V200Z" fill="#E0A80D"/>
<path d="M126 200H124V204H126V200Z" fill="#ECCA6B"/>
<path d="M127 200H126V204H127V200Z" fill="#EDCA6B"/>
<path d="M136 200H127V203H136V200Z" fill="#CB9A18"/>
<path d="M137 200H136V203H137V200Z" fill="#CA9A18"/>
<path d="M140 200H137V204H140V200Z" fill="#ECCA6B"/>
<path d="M144 200H140V213H144V200Z" fill="#7F6A34"/>
<path d="M146 200H144V204H146V200Z" fill="#ECCA6B"/>
<path d="M147 200H146V204H147V200Z" fill="#EDCA6B"/>
<path d="M150 200H147V203H150V200Z" fill="#CB9A18"/>
<path d="M153 200H150V204H153V200Z" fill="#ECCA6B"/>
<path d="M154 200H153V210H154V200Z" fill="#EDCA6B"/>
<path d="M160 200H154V203H160V200Z" fill="#E1A80D"/>
<path d="M163 200H160V203H163V200Z" fill="#ECCA6B"/>
<path d="M164 200H163V203H164V200Z" fill="#EDCA6B"/>
<path d="M173 200H164V203H173V200Z" fill="#E1A80D"/>
<path d="M174 200H173V203H174V200Z" fill="#E0A80D"/>
<path d="M176 200H174V203H176V200Z" fill="#D4BA70"/>
<path d="M177 200H176V203H177V200Z" fill="#D5BA70"/>
<path d="M190 200H177V203H190V200Z" fill="#E1A80D"/>
<path d="M200 200H190V204H200V200Z" fill="#EFD27C"/>
<path d="M60 203H0V206H60V203Z" fill="#EFD27C"/>
<path d="M76 203H67V204H76V203Z" fill="#CA9A18"/>
<path d="M77 203H76V204H77V203Z" fill="#CB9A18"/>
<path d="M90 203H87V204H90V203Z" fill="#CA9A18"/>
<path d="M96 203H94V204H96V203Z" fill="#E1A80D"/>
<path d="M97 203H96V204H97V203Z" fill="#E0A80D"/>
<path d="M100 203H97V204H100V203Z" fill="#E1A80D"/>
<path d="M104 203H100V204H104V203Z" fill="#ECCA6B"/>
<path d="M114 203H104V204H114V203Z" fill="#E1A80D"/>
<path d="M116 203H114V204H116V203Z" fill="#D5BA70"/>
<path d="M117 203H116V204H117V203Z" fill="#D4BA70"/>
<path d="M136 203H127V204H136V203Z" fill="#CA9A18"/>
<path d="M137 203H136V204H137V203Z" fill="#CB9A18"/>
<path d="M150 203H147V204H150V203Z" fill="#CA9A18"/>
<path d="M156 203H154V204H156V203Z" fill="#E1A80D"/>
<path d="M157 203H156V204H157V203Z" fill="#E0A80D"/>
<path d="M160 203H157V204H160V203Z" fill="#E1A80D"/>
<path d="M164 203H160V204H164V203Z" fill="#ECCA6B"/>
<path d="M174 203H164V204H174V203Z" fill="#E1A80D"/>
<path d="M176 203H174V204H176V203Z" fill="#D5BA70"/>
<path d="M177 203H176V204H177V203Z" fill="#D4BA70"/>
<path d="M187 203H177V204H187V203Z" fill="#E1A80D"/>
<path d="M190 203H187V204H190V203Z" fill="#E0A80D"/>
<path d="M80 204H64V206H80V204Z" fill="#ECCA6B"/>
<path d="M93 204H84V206H93V204Z" fill="#ECCA6B"/>
<path d="M97 204H94V213H97V204Z" fill="#E1A80D"/>
<path d="M100 204H97V214H100V204Z" fill="#ECCA6B"/>
<path d="M113 204H100V206H113V204Z" fill="#E1A80D"/>
<path d="M114 204H113V206H114V204Z" fill="#E0A80D"/>
<path d="M116 204H114V206H116V204Z" fill="#C4AB64"/>
<path d="M117 204H116V206H117V204Z" fill="#C5AB64"/>
<path d="M120 204H117V207H120V204Z" fill="#D4BA70"/>
<path d="M123 204H120V216H123V204Z" fill="#E1A80D"/>
<path d="M140 204H124V206H140V204Z" fill="#ECCA6B"/>
<path d="M153 204H144V206H153V204Z" fill="#ECCA6B"/>
<path d="M157 204H154V213H157V204Z" fill="#E1A80D"/>
<path d="M160 204H157V214H160V204Z" fill="#ECCA6B"/>
<path d="M173 204H160V206H173V204Z" fill="#E1A80D"/>
<path d="M174 204H173V206H174V204Z" fill="#E0A80D"/>
<path d="M176 204H174V206H176V204Z" fill="#C4AB64"/>
<path d="M177 204H176V206H177V204Z" fill="#C5AB64"/>
<path d="M180 204H177V207H180V204Z" fill="#D4BA70"/>
<path d="M187 204H180V207H187V204Z" fill="#E1A80D"/>
<path d="M200 204H187V207H200V204Z" fill="#EFD27C"/>
<path d="M43 206H0V207H43V206Z" fill="#EFD27C"/>
<path d="M50 206H43V207H50V206Z" fill="#EED27C"/>
<path d="M60 206H50V210H60V206Z" fill="#EFD27C"/>
<path d="M67 206H64V207H67V206Z" fill="#ECCA6B"/>
<path d="M77 206H67V207H77V206Z" fill="#EDCA6B"/>
<path d="M80 206H77V214H80V206Z" fill="#ECCA6B"/>
<path d="M86 206H84V210H86V206Z" fill="#ECCA6B"/>
<path d="M90 206H86V207H90V206Z" fill="#EDCA6B"/>
<path d="M93 206H90V210H93V206Z" fill="#ECCA6B"/>
<path d="M103 206H100V210H103V206Z" fill="#E1A80D"/>
<path d="M110 206H103V207H110V206Z" fill="#E0A80D"/>
<path d="M114 206H110V207H114V206Z" fill="#E1A80D"/>
<path d="M116 206H114V207H116V206Z" fill="#C5AB64"/>
<path d="M117 206H116V207H117V206Z" fill="#C4AB64"/>
<path d="M127 206H124V207H127V206Z" fill="#ECCA6B"/>
<path d="M137 206H127V207H137V206Z" fill="#EDCA6B"/>
<path d="M140 206H137V210H140V206Z" fill="#ECCA6B"/>
<path d="M146 206H144V213H146V206Z" fill="#ECCA6B"/>
<path d="M150 206H146V207H150V206Z" fill="#EDCA6B"/>
<path d="M153 206H150V210H153V206Z" fill="#ECCA6B"/>
<path d="M163 206H160V210H163V206Z" fill="#E1A80D"/>
<path d="M170 206H163V207H170V206Z" fill="#E0A80D"/>
<path d="M174 206H170V207H174V206Z" fill="#E1A80D"/>
<path d="M176 206H174V207H176V206Z" fill="#C5AB64"/>
<path d="M177 206H176V207H177V206Z" fill="#C4AB64"/>
<path d="M44 207H0V210H44V207Z" fill="#EFD27C"/>
<path d="M50 207H44V210H50V207Z" fill="#CFB056"/>
<path d="M67 207H64V210H67V207Z" fill="#D4BA70"/>
<path d="M76 207H67V210H76V207Z" fill="#CB9A18"/>
<path d="M77 207H76V210H77V207Z" fill="#CA9A18"/>
<path d="M87 207H86V210H87V207Z" fill="#EDCA6B"/>
<path d="M90 207H87V210H90V207Z" fill="#CB9A18"/>
<path d="M104 207H103V210H104V207Z" fill="#E0A80D"/>
<path d="M110 207H104V210H110V207Z" fill="#ECCA6B"/>
<path d="M113 207H110V210H113V207Z" fill="#E1A80D"/>
<path d="M114 207H113V210H114V207Z" fill="#E0A80D"/>
<path d="M120 207H114V213H120V207Z" fill="#EFD27C"/>
<path d="M127 207H124V210H127V207Z" fill="#D4BA70"/>
<path d="M136 207H127V210H136V207Z" fill="#CB9A18"/>
<path d="M137 207H136V210H137V207Z" fill="#CA9A18"/>
<path d="M147 207H146V213H147V207Z" fill="#EDCA6B"/>
<path d="M150 207H147V210H150V207Z" fill="#CB9A18"/>
<path d="M164 207H163V210H164V207Z" fill="#E0A80D"/>
<path d="M170 207H164V210H170V207Z" fill="#ECCA6B"/>
<path d="M173 207H170V214H173V207Z" fill="#E1A80D"/>
<path d="M174 207H173V216H174V207Z" fill="#E0A80D"/>
<path d="M200 207H174V210H200V207Z" fill="#EFD27C"/>
<path d="M60 210H0V214H60V210Z" fill="#EFD27C"/>
<path d="M74 210H64V213H74V210Z" fill="#D4BA70"/>
<path d="M76 210H74V213H76V210Z" fill="#A8BEC9"/>
<path d="M77 210H76V213H77V210Z" fill="#A9BEC9"/>
<path d="M87 210H84V214H87V210Z" fill="#ECCA6B"/>
<path d="M94 210H87V214H94V210Z" fill="#D4BA70"/>
<path d="M107 210H100V213H107V210Z" fill="#E1A80D"/>
<path d="M110 210H107V213H110V210Z" fill="#ECCA6B"/>
<path d="M114 210H110V213H114V210Z" fill="#A8BEC9"/>
<path d="M133 210H124V214H133V210Z" fill="#D4BA70"/>
<path d="M134 210H133V214H134V210Z" fill="#D5BA70"/>
<path d="M140 210H134V213H140V210Z" fill="#ECCA6B"/>
<path d="M150 210H147V213H150V210Z" fill="#A8BEC9"/>
<path d="M154 210H150V213H154V210Z" fill="#D4BA70"/>
<path d="M167 210H160V214H167V210Z" fill="#E1A80D"/>
<path d="M170 210H167V214H170V210Z" fill="#ECCA6B"/>
<path d="M183 210H174V213H183V210Z" fill="#EFD27C"/>
<path d="M184 210H183V213H184V210Z" fill="#EED27C"/>
<path d="M186 210H184V213H186V210Z" fill="#A8BEC9"/>
<path d="M187 210H186V213H187V210Z" fill="#A9BEC9"/>
<path d="M190 210H187V213H190V210Z" fill="#EFD27C"/>
<path d="M200 210H190V214H200V210Z" fill="#CFB056"/>
<path d="M73 213H64V214H73V213Z" fill="#D4BA70"/>
<path d="M74 213H73V214H74V213Z" fill="#D5BA70"/>
<path d="M76 213H74V214H76V213Z" fill="#A9BEC9"/>
<path d="M77 213H76V214H77V213Z" fill="#A8BEC9"/>
<path d="M83 213H80V217H83V213Z" fill="#7F6A34"/>
<path d="M84 213H83V217H84V213Z" fill="#7E6A34"/>
<path d="M96 213H94V214H96V213Z" fill="#E1A80D"/>
<path d="M97 213H96V214H97V213Z" fill="#E0A80D"/>
<path d="M106 213H100V214H106V213Z" fill="#E1A80D"/>
<path d="M107 213H106V214H107V213Z" fill="#E0A80D"/>
<path d="M110 213H107V214H110V213Z" fill="#EDCA6B"/>
<path d="M113 213H110V214H113V213Z" fill="#A9BEC9"/>
<path d="M114 213H113V214H114V213Z" fill="#A8BEC9"/>
<path d="M117 213H114V214H117V213Z" fill="#EED27C"/>
<path d="M120 213H117V217H120V213Z" fill="#EFD27C"/>
<path d="M137 213H134V214H137V213Z" fill="#EDCA6B"/>
<path d="M140 213H137V214H140V213Z" fill="#ECCA6B"/>
<path d="M143 213H140V216H143V213Z" fill="#7F6A34"/>
<path d="M144 213H143V216H144V213Z" fill="#7E6A34"/>
<path d="M146 213H144V214H146V213Z" fill="#EDCA6B"/>
<path d="M147 213H146V214H147V213Z" fill="#ECCA6B"/>
<path d="M150 213H147V214H150V213Z" fill="#A9BEC9"/>
<path d="M153 213H150V214H153V213Z" fill="#D5BA70"/>
<path d="M154 213H153V214H154V213Z" fill="#D4BA70"/>
<path d="M156 213H154V214H156V213Z" fill="#E1A80D"/>
<path d="M157 213H156V214H157V213Z" fill="#E0A80D"/>
<path d="M184 213H174V214H184V213Z" fill="#EFD27C"/>
<path d="M187 213H184V214H187V213Z" fill="#A9BEC9"/>
<path d="M190 213H187V214H190V213Z" fill="#EED27C"/>
<path d="M60 214H0V217H60V214Z" fill="#EFD27C"/>
<path d="M67 214H64V217H67V214Z" fill="#D4BA70"/>
<path d="M70 214H67V216H70V214Z" fill="#CB9A18"/>
<path d="M74 214H70V217H74V214Z" fill="#A8BEC9"/>
<path d="M77 214H74V217H77V214Z" fill="#D8D5D5"/>
<path d="M80 214H77V216H80V214Z" fill="#FEFFFF"/>
<path d="M87 214H84V216H87V214Z" fill="#D4BA70"/>
<path d="M90 214H87V216H90V214Z" fill="#CB9A18"/>
<path d="M94 214H90V216H94V214Z" fill="#D4BA70"/>
<path d="M100 214H94V216H100V214Z" fill="#E1A80D"/>
<path d="M106 214H100V216H106V214Z" fill="#ECCA6B"/>
<path d="M107 214H106V216H107V214Z" fill="#EDCA6B"/>
<path d="M110 214H107V217H110V214Z" fill="#A8BEC9"/>
<path d="M113 214H110V217H113V214Z" fill="#D8D5D5"/>
<path d="M114 214H113V217H114V214Z" fill="#D9D5D5"/>
<path d="M117 214H114V216H117V214Z" fill="#FEFFFF"/>
<path d="M127 214H124V216H127V214Z" fill="#D4BA70"/>
<path d="M136 214H127V216H136V214Z" fill="#CB9A18"/>
<path d="M137 214H136V216H137V214Z" fill="#CA9A18"/>
<path d="M140 214H137V217H140V214Z" fill="#D4BA70"/>
<path d="M146 214H144V217H146V214Z" fill="#A8BEC9"/>
<path d="M147 214H146V217H147V214Z" fill="#A9BEC9"/>
<path d="M150 214H147V217H150V214Z" fill="#D8D5D5"/>
<path d="M154 214H150V216H154V214Z" fill="#FEFFFF"/>
<path d="M160 214H154V216H160V214Z" fill="#E1A80D"/>
<path d="M167 214H160V216H167V214Z" fill="#ECCA6B"/>
<path d="M173 214H167V216H173V214Z" fill="#E1A80D"/>
<path d="M180 214H174V217H180V214Z" fill="#EFD27C"/>
<path d="M184 214H180V217H184V214Z" fill="#A8BEC9"/>
<path d="M187 214H184V217H187V214Z" fill="#D8D5D5"/>
<path d="M190 214H187V216H190V214Z" fill="#FEFFFF"/>
<path d="M200 214H190V216H200V214Z" fill="#EFD27C"/>
<path d="M64 216H60V217H64V216Z" fill="#E1A80D"/>
<path d="M70 216H67V217H70V216Z" fill="#CA9A18"/>
<path d="M80 216H77V217H80V216Z" fill="white"/>
<path d="M87 216H84V217H87V216Z" fill="#D5BA70"/>
<path d="M90 216H87V217H90V216Z" fill="#CA9A18"/>
<path d="M93 216H90V217H93V216Z" fill="#D4BA70"/>
<path d="M94 216H93V217H94V216Z" fill="#D5BA70"/>
<path d="M96 216H94V217H96V216Z" fill="#E1A80D"/>
<path d="M97 216H96V217H97V216Z" fill="#E0A80D"/>
<path d="M100 216H97V217H100V216Z" fill="#E1A80D"/>
<path d="M103 216H100V217H103V216Z" fill="#EDCA6B"/>
<path d="M107 216H103V217H107V216Z" fill="#ECCA6B"/>
<path d="M116 216H114V217H116V216Z" fill="white"/>
<path d="M117 216H116V217H117V216Z" fill="#FEFFFF"/>
<path d="M124 216H120V217H124V216Z" fill="#E1A80D"/>
<path d="M126 216H124V217H126V216Z" fill="#D4BA70"/>
<path d="M127 216H126V217H127V216Z" fill="#D5BA70"/>
<path d="M136 216H127V217H136V216Z" fill="#CA9A18"/>
<path d="M137 216H136V217H137V216Z" fill="#CB9A18"/>
<path d="M144 216H140V217H144V216Z" fill="#7F6A34"/>
<path d="M153 216H150V217H153V216Z" fill="white"/>
<path d="M154 216H153V217H154V216Z" fill="#FEFFFF"/>
<path d="M157 216H154V217H157V216Z" fill="#E0A80D"/>
<path d="M160 216H157V217H160V216Z" fill="#E1A80D"/>
<path d="M166 216H160V217H166V216Z" fill="#EDCA6B"/>
<path d="M167 216H166V217H167V216Z" fill="#ECCA6B"/>
<path d="M174 216H167V217H174V216Z" fill="#E1A80D"/>
<path d="M190 216H187V217H190V216Z" fill="white"/>
<path d="M193 216H190V217H193V216Z" fill="#EFD27C"/>
<path d="M194 216H193V217H194V216Z" fill="#EED27C"/>
<path d="M200 216H194V220H200V216Z" fill="#EFD27C"/>
<path d="M64 217H0V220H64V217Z" fill="#EFD27C"/>
<path d="M66 217H64V220H66V217Z" fill="#E1A80D"/>
<path d="M67 217H66V220H67V217Z" fill="#E0A80D"/>
<path d="M70 217H67V220H70V217Z" fill="#A8BEC9"/>
<path d="M80 217H70V220H80V217Z" fill="#D8D5D5"/>
<path d="M84 217H80V220H84V217Z" fill="#FEFFFF"/>
<path d="M86 217H84V220H86V217Z" fill="#7F6A34"/>
<path d="M87 217H86V220H87V217Z" fill="#7E6A34"/>
<path d="M96 217H87V220H96V217Z" fill="#D4BA70"/>
<path d="M97 217H96V220H97V217Z" fill="#D5BA70"/>
<path d="M103 217H97V220H103V217Z" fill="#E1A80D"/>
<path d="M104 217H103V220H104V217Z" fill="#E0A80D"/>
<path d="M106 217H104V220H106V217Z" fill="#A8BEC9"/>
<path d="M107 217H106V220H107V217Z" fill="#A9BEC9"/>
<path d="M117 217H107V220H117V217Z" fill="#D8D5D5"/>
<path d="M120 217H117V220H120V217Z" fill="#FEFFFF"/>
<path d="M124 217H120V220H124V217Z" fill="#EFD27C"/>
<path d="M126 217H124V220H126V217Z" fill="#E1A80D"/>
<path d="M127 217H126V220H127V217Z" fill="#E0A80D"/>
<path d="M140 217H127V220H140V217Z" fill="#D4BA70"/>
<path d="M144 217H140V220H144V217Z" fill="#A8BEC9"/>
<path d="M153 217H144V220H153V217Z" fill="#D8D5D5"/>
<path d="M154 217H153V220H154V217Z" fill="#D9D5D5"/>
<path d="M157 217H154V220H157V217Z" fill="#FEFFFF"/>
<path d="M170 217H157V220H170V217Z" fill="#E1A80D"/>
<path d="M176 217H170V220H176V217Z" fill="#EFD27C"/>
<path d="M177 217H176V220H177V217Z" fill="#EED27C"/>
<path d="M180 217H177V220H180V217Z" fill="#A8BEC9"/>
<path d="M190 217H180V220H190V217Z" fill="#D8D5D5"/>
<path d="M194 217H190V220H194V217Z" fill="#FEFFFF"/>
<path d="M50 220H0V317H50V220Z" fill="#EFD27C"/>
<path d="M60 220H50V223H60V220Z" fill="#EFD27C"/>
<path d="M64 220H60V224H64V220Z" fill="#E2C671"/>
<path d="M66 220H64V313H66V220Z" fill="#A8BEC9"/>
<path d="M67 220H66V313H67V220Z" fill="#A9BEC9"/>
<path d="M83 220H67V240H83V220Z" fill="#D8D5D5"/>
<path d="M84 220H83V313H84V220Z" fill="#D9D5D5"/>
<path d="M86 220H84V230H86V220Z" fill="#FEFFFF"/>
<path d="M87 220H86V230H87V220Z" fill="white"/>
<path d="M90 220H87V224H90V220Z" fill="#E2C671"/>
<path d="M96 220H90V224H96V220Z" fill="#C4AB64"/>
<path d="M97 220H96V224H97V220Z" fill="#C5AB64"/>
<path d="M100 220H97V224H100V220Z" fill="#D4BA70"/>
<path d="M104 220H100V313H104V220Z" fill="#A8BEC9"/>
<path d="M120 220H104V240H120V220Z" fill="#D8D5D5"/>
<path d="M123 220H120V230H123V220Z" fill="#FEFFFF"/>
<path d="M124 220H123V230H124V220Z" fill="white"/>
<path d="M126 220H124V224H126V220Z" fill="#E2C671"/>
<path d="M127 220H126V224H127V220Z" fill="#E3C671"/>
<path d="M137 220H127V223H137V220Z" fill="#C4AB64"/>
<path d="M140 220H137V313H140V220Z" fill="#A8BEC9"/>
<path d="M157 220H140V240H157V220Z" fill="#D8D5D5"/>
<path d="M160 220H157V314H160V220Z" fill="#FEFFFF"/>
<path d="M167 220H160V223H167V220Z" fill="#E1A80D"/>
<path d="M173 220H167V224H173V220Z" fill="#EFD27C"/>
<path d="M174 220H173V237H174V220Z" fill="#EED27C"/>
<path d="M176 220H174V313H176V220Z" fill="#A8BEC9"/>
<path d="M177 220H176V313H177V220Z" fill="#A9BEC9"/>
<path d="M193 220H177V240H193V220Z" fill="#D8D5D5"/>
<path d="M194 220H193V313H194V220Z" fill="#D9D5D5"/>
<path d="M197 220H194V240H197V220Z" fill="#FEFFFF"/>
<path d="M200 220H197V237H200V220Z" fill="#EFD27C"/>
<path d="M53 223H50V224H53V223Z" fill="#EFD27C"/>
<path d="M60 223H53V224H60V223Z" fill="#EED27C"/>
<path d="M136 223H127V224H136V223Z" fill="#C4AB64"/>
<path d="M137 223H136V224H137V223Z" fill="#C5AB64"/>
<path d="M163 223H160V224H163V223Z" fill="#E0A80D"/>
<path d="M164 223H163V224H164V223Z" fill="#E1A80D"/>
<path d="M167 223H164V224H167V223Z" fill="#E0A80D"/>
<path d="M54 224H50V230H54V224Z" fill="#EFD27C"/>
<path d="M64 224H54V226H64V224Z" fill="#E2C671"/>
<path d="M100 224H87V226H100V224Z" fill="#E2C671"/>
<path d="M137 224H124V230H137V224Z" fill="#E2C671"/>
<path d="M164 224H160V226H164V224Z" fill="#E2C671"/>
<path d="M173 224H164V227H173V224Z" fill="#EFD27C"/>
<path d="M60 226H54V227H60V226Z" fill="#E3C671"/>
<path d="M64 226H60V230H64V226Z" fill="#E2C671"/>
<path d="M93 226H87V227H93V226Z" fill="#E2C671"/>
<path d="M100 226H93V227H100V226Z" fill="#E3C671"/>
<path d="M163 226H160V227H163V226Z" fill="#E3C671"/>
<path d="M164 226H163V227H164V226Z" fill="#E2C671"/>
<path d="M60 227H54V230H60V227Z" fill="#CFB056"/>
<path d="M94 227H87V230H94V227Z" fill="#E2C671"/>
<path d="M100 227H94V230H100V227Z" fill="#EFD27C"/>
<path d="M173 227H160V236H173V227Z" fill="#EFD27C"/>
<path d="M64 230H50V317H64V230Z" fill="#EFD27C"/>
<path d="M87 230H84V237H87V230Z" fill="#FEFFFF"/>
<path d="M100 230H87V236H100V230Z" fill="#EFD27C"/>
<path d="M124 230H120V236H124V230Z" fill="#FEFFFF"/>
<path d="M136 230H124V236H136V230Z" fill="#EFD27C"/>
<path d="M137 230H136V237H137V230Z" fill="#EED27C"/>
<path d="M94 236H87V237H94V236Z" fill="#EED27C"/>
<path d="M96 236H94V237H96V236Z" fill="#EFD27C"/>
<path d="M97 236H96V237H97V236Z" fill="#EED27C"/>
<path d="M100 236H97V237H100V236Z" fill="#EFD27C"/>
<path d="M123 236H120V237H123V236Z" fill="#FEFFFF"/>
<path d="M124 236H123V237H124V236Z" fill="white"/>
<path d="M130 236H124V237H130V236Z" fill="#EED27C"/>
<path d="M133 236H130V237H133V236Z" fill="#EFD27C"/>
<path d="M134 236H133V237H134V236Z" fill="#EED27C"/>
<path d="M136 236H134V237H136V236Z" fill="#EFD27C"/>
<path d="M166 236H160V237H166V236Z" fill="#EED27C"/>
<path d="M173 236H166V237H173V236Z" fill="#EFD27C"/>
<path d="M86 237H84V247H86V237Z" fill="#FEFFFF"/>
<path d="M87 237H86V247H87V237Z" fill="white"/>
<path d="M93 237H87V240H93V237Z" fill="#CED7DC"/>
<path d="M94 237H93V240H94V237Z" fill="#CFD7DC"/>
<path d="M96 237H94V240H96V237Z" fill="#A8BEC9"/>
<path d="M97 237H96V240H97V237Z" fill="#A9BEC9"/>
<path d="M100 237H97V240H100V237Z" fill="#89A2B0"/>
<path d="M124 237H120V240H124V237Z" fill="#FEFFFF"/>
<path d="M130 237H124V240H130V237Z" fill="#CED7DC"/>
<path d="M133 237H130V240H133V237Z" fill="#A8BEC9"/>
<path d="M134 237H133V240H134V237Z" fill="#A9BEC9"/>
<path d="M136 237H134V240H136V237Z" fill="#89A2B0"/>
<path d="M137 237H136V247H137V237Z" fill="#88A2B0"/>
<path d="M167 237H160V240H167V237Z" fill="#CED7DC"/>
<path d="M170 237H167V240H170V237Z" fill="#A8BEC9"/>
<path d="M173 237H170V240H173V237Z" fill="#89A2B0"/>
<path d="M174 237H173V247H174V237Z" fill="#88A2B0"/>
<path d="M200 237H197V240H200V237Z" fill="#A8BEC9"/>
<path d="M74 240H67V246H74V240Z" fill="#D8D5D5"/>
<path d="M76 240H74V243H76V240Z" fill="#A8BEC9"/>
<path d="M77 240H76V243H77V240Z" fill="#A9BEC9"/>
<path d="M83 240H77V244H83V240Z" fill="#D8D5D5"/>
<path d="M100 240H87V247H100V240Z" fill="#89A2B0"/>
<path d="M110 240H104V247H110V240Z" fill="#D8D5D5"/>
<path d="M114 240H110V244H114V240Z" fill="#A8BEC9"/>
<path d="M120 240H114V243H120V240Z" fill="#D8D5D5"/>
<path d="M123 240H120V247H123V240Z" fill="#FEFFFF"/>
<path d="M124 240H123V247H124V240Z" fill="white"/>
<path d="M136 240H124V247H136V240Z" fill="#89A2B0"/>
<path d="M146 240H140V247H146V240Z" fill="#D8D5D5"/>
<path d="M147 240H146V247H147V240Z" fill="#D9D5D5"/>
<path d="M150 240H147V244H150V240Z" fill="#A8BEC9"/>
<path d="M157 240H150V243H157V240Z" fill="#D8D5D5"/>
<path d="M173 240H160V247H173V240Z" fill="#89A2B0"/>
<path d="M184 240H177V246H184V240Z" fill="#D8D5D5"/>
<path d="M186 240H184V243H186V240Z" fill="#A8BEC9"/>
<path d="M187 240H186V243H187V240Z" fill="#A9BEC9"/>
<path d="M193 240H187V244H193V240Z" fill="#D8D5D5"/>
<path d="M196 240H194V247H196V240Z" fill="#FEFFFF"/>
<path d="M197 240H196V247H197V240Z" fill="white"/>
<path d="M200 240H197V247H200V240Z" fill="#89A2B0"/>
<path d="M77 243H74V244H77V243Z" fill="#A8BEC9"/>
<path d="M116 243H114V244H116V243Z" fill="#D8D5D5"/>
<path d="M117 243H116V244H117V243Z" fill="#D9D5D5"/>
<path d="M120 243H117V247H120V243Z" fill="#D8D5D5"/>
<path d="M153 243H150V244H153V243Z" fill="#D8D5D5"/>
<path d="M154 243H153V244H154V243Z" fill="#D9D5D5"/>
<path d="M157 243H154V247H157V243Z" fill="#D8D5D5"/>
<path d="M187 243H184V244H187V243Z" fill="#A8BEC9"/>
<path d="M80 244H74V247H80V244Z" fill="#A8BEC9"/>
<path d="M83 244H80V247H83V244Z" fill="#D8D5D5"/>
<path d="M116 244H110V247H116V244Z" fill="#A8BEC9"/>
<path d="M117 244H116V247H117V244Z" fill="#A9BEC9"/>
<path d="M154 244H147V247H154V244Z" fill="#A8BEC9"/>
<path d="M190 244H184V247H190V244Z" fill="#A8BEC9"/>
<path d="M193 244H190V247H193V244Z" fill="#D8D5D5"/>
<path d="M73 246H67V247H73V246Z" fill="#D8D5D5"/>
<path d="M74 246H73V247H74V246Z" fill="#D9D5D5"/>
<path d="M183 246H177V247H183V246Z" fill="#D8D5D5"/>
<path d="M184 246H183V247H184V246Z" fill="#D9D5D5"/>
<path d="M83 247H67V263H83V247Z" fill="#D8D5D5"/>
<path d="M87 247H84V260H87V247Z" fill="#FEFFFF"/>
<path d="M100 247H87V260H100V247Z" fill="#EFD27C"/>
<path d="M120 247H104V263H120V247Z" fill="#D8D5D5"/>
<path d="M124 247H120V264H124V247Z" fill="#FEFFFF"/>
<path d="M136 247H124V253H136V247Z" fill="#EFD27C"/>
<path d="M137 247H136V260H137V247Z" fill="#EED27C"/>
<path d="M157 247H140V263H157V247Z" fill="#D8D5D5"/>
<path d="M173 247H160V260H173V247Z" fill="#EFD27C"/>
<path d="M174 247H173V260H174V247Z" fill="#EED27C"/>
<path d="M193 247H177V263H193V247Z" fill="#D8D5D5"/>
<path d="M197 247H194V260H197V247Z" fill="#FEFFFF"/>
<path d="M200 247H197V260H200V247Z" fill="#EFD27C"/>
<path d="M127 253H124V257H127V253Z" fill="#EFD27C"/>
<path d="M133 253H127V254H133V253Z" fill="#EED27C"/>
<path d="M136 253H133V254H136V253Z" fill="#EFD27C"/>
<path d="M134 254H127V256H134V254Z" fill="#CFB056"/>
<path d="M136 254H134V257H136V254Z" fill="#EFD27C"/>
<path d="M133 256H127V257H133V256Z" fill="#CEB056"/>
<path d="M134 256H133V257H134V256Z" fill="#CFB056"/>
<path d="M136 257H124V260H136V257Z" fill="#EFD27C"/>
<path d="M86 260H84V263H86V260Z" fill="#FEFFFF"/>
<path d="M87 260H86V263H87V260Z" fill="white"/>
<path d="M93 260H87V263H93V260Z" fill="#CED7DC"/>
<path d="M94 260H93V263H94V260Z" fill="#CFD7DC"/>
<path d="M96 260H94V264H96V260Z" fill="#A8BEC9"/>
<path d="M97 260H96V264H97V260Z" fill="#A9BEC9"/>
<path d="M100 260H97V264H100V260Z" fill="#89A2B0"/>
<path d="M130 260H124V263H130V260Z" fill="#CED7DC"/>
<path d="M133 260H130V264H133V260Z" fill="#A8BEC9"/>
<path d="M134 260H133V264H134V260Z" fill="#A9BEC9"/>
<path d="M136 260H134V264H136V260Z" fill="#89A2B0"/>
<path d="M137 260H136V270H137V260Z" fill="#88A2B0"/>
<path d="M167 260H160V263H167V260Z" fill="#CED7DC"/>
<path d="M170 260H167V264H170V260Z" fill="#A8BEC9"/>
<path d="M173 260H170V264H173V260Z" fill="#89A2B0"/>
<path d="M174 260H173V270H174V260Z" fill="#88A2B0"/>
<path d="M196 260H194V263H196V260Z" fill="#FEFFFF"/>
<path d="M197 260H196V263H197V260Z" fill="white"/>
<path d="M200 260H197V263H200V260Z" fill="#CED7DC"/>
<path d="M76 263H67V264H76V263Z" fill="#D8D5D5"/>
<path d="M77 263H76V264H77V263Z" fill="#D9D5D5"/>
<path d="M83 263H77V267H83V263Z" fill="#D8D5D5"/>
<path d="M87 263H84V264H87V263Z" fill="#FEFFFF"/>
<path d="M93 263H87V264H93V263Z" fill="#CFD7DC"/>
<path d="M94 263H93V264H94V263Z" fill="#CED7DC"/>
<path d="M113 263H104V264H113V263Z" fill="#D8D5D5"/>
<path d="M114 263H113V264H114V263Z" fill="#D9D5D5"/>
<path d="M120 263H114V266H120V263Z" fill="#D8D5D5"/>
<path d="M130 263H124V264H130V263Z" fill="#CFD7DC"/>
<path d="M146 263H140V270H146V263Z" fill="#D8D5D5"/>
<path d="M147 263H146V270H147V263Z" fill="#D9D5D5"/>
<path d="M157 263H147V264H157V263Z" fill="#D8D5D5"/>
<path d="M167 263H160V264H167V263Z" fill="#CFD7DC"/>
<path d="M186 263H177V264H186V263Z" fill="#D8D5D5"/>
<path d="M187 263H186V264H187V263Z" fill="#D9D5D5"/>
<path d="M193 263H187V267H193V263Z" fill="#D8D5D5"/>
<path d="M197 263H194V264H197V263Z" fill="#FEFFFF"/>
<path d="M200 263H197V264H200V263Z" fill="#CFD7DC"/>
<path d="M74 264H67V270H74V264Z" fill="#D8D5D5"/>
<path d="M76 264H74V266H76V264Z" fill="#A8BEC9"/>
<path d="M77 264H76V266H77V264Z" fill="#A9BEC9"/>
<path d="M86 264H84V270H86V264Z" fill="#FEFFFF"/>
<path d="M87 264H86V270H87V264Z" fill="white"/>
<path d="M100 264H87V270H100V264Z" fill="#89A2B0"/>
<path d="M110 264H104V270H110V264Z" fill="#D8D5D5"/>
<path d="M114 264H110V267H114V264Z" fill="#A8BEC9"/>
<path d="M123 264H120V270H123V264Z" fill="#FEFFFF"/>
<path d="M124 264H123V270H124V264Z" fill="white"/>
<path d="M136 264H124V270H136V264Z" fill="#89A2B0"/>
<path d="M150 264H147V267H150V264Z" fill="#A8BEC9"/>
<path d="M157 264H150V267H157V264Z" fill="#D8D5D5"/>
<path d="M173 264H160V270H173V264Z" fill="#89A2B0"/>
<path d="M184 264H177V270H184V264Z" fill="#D8D5D5"/>
<path d="M186 264H184V266H186V264Z" fill="#A8BEC9"/>
<path d="M187 264H186V266H187V264Z" fill="#A9BEC9"/>
<path d="M196 264H194V270H196V264Z" fill="#FEFFFF"/>
<path d="M197 264H196V270H197V264Z" fill="white"/>
<path d="M200 264H197V270H200V264Z" fill="#89A2B0"/>
<path d="M77 266H74V267H77V266Z" fill="#A8BEC9"/>
<path d="M116 266H114V267H116V266Z" fill="#D8D5D5"/>
<path d="M117 266H116V267H117V266Z" fill="#D9D5D5"/>
<path d="M120 266H117V270H120V266Z" fill="#D8D5D5"/>
<path d="M187 266H184V267H187V266Z" fill="#A8BEC9"/>
<path d="M80 267H74V270H80V267Z" fill="#A8BEC9"/>
<path d="M83 267H80V270H83V267Z" fill="#D8D5D5"/>
<path d="M116 267H110V270H116V267Z" fill="#A8BEC9"/>
<path d="M117 267H116V270H117V267Z" fill="#A9BEC9"/>
<path d="M154 267H147V270H154V267Z" fill="#A8BEC9"/>
<path d="M157 267H154V270H157V267Z" fill="#D8D5D5"/>
<path d="M190 267H184V270H190V267Z" fill="#A8BEC9"/>
<path d="M193 267H190V270H193V267Z" fill="#D8D5D5"/>
<path d="M83 270H67V286H83V270Z" fill="#D8D5D5"/>
<path d="M87 270H84V283H87V270Z" fill="#FEFFFF"/>
<path d="M100 270H87V276H100V270Z" fill="#EFD27C"/>
<path d="M120 270H104V287H120V270Z" fill="#D8D5D5"/>
<path d="M124 270H120V283H124V270Z" fill="#FEFFFF"/>
<path d="M136 270H124V283H136V270Z" fill="#EFD27C"/>
<path d="M137 270H136V284H137V270Z" fill="#EED27C"/>
<path d="M157 270H140V287H157V270Z" fill="#D8D5D5"/>
<path d="M173 270H160V283H173V270Z" fill="#EFD27C"/>
<path d="M174 270H173V283H174V270Z" fill="#EED27C"/>
<path d="M193 270H177V286H193V270Z" fill="#D8D5D5"/>
<path d="M197 270H194V283H197V270Z" fill="#FEFFFF"/>
<path d="M200 270H197V283H200V270Z" fill="#EFD27C"/>
<path d="M93 276H87V277H93V276Z" fill="#EED27C"/>
<path d="M100 276H93V277H100V276Z" fill="#EFD27C"/>
<path d="M94 277H87V280H94V277Z" fill="#CFB056"/>
<path d="M100 277H94V280H100V277Z" fill="#EFD27C"/>
<path d="M100 280H87V283H100V280Z" fill="#EFD27C"/>
<path d="M86 283H84V293H86V283Z" fill="#FEFFFF"/>
<path d="M87 283H86V293H87V283Z" fill="white"/>
<path d="M93 283H87V284H93V283Z" fill="#EED27C"/>
<path d="M100 283H93V284H100V283Z" fill="#EFD27C"/>
<path d="M123 283H120V284H123V283Z" fill="#FEFFFF"/>
<path d="M124 283H123V284H124V283Z" fill="white"/>
<path d="M130 283H124V284H130V283Z" fill="#EED27C"/>
<path d="M136 283H130V284H136V283Z" fill="#EFD27C"/>
<path d="M166 283H160V284H166V283Z" fill="#EED27C"/>
<path d="M174 283H166V284H174V283Z" fill="#EFD27C"/>
<path d="M196 283H194V293H196V283Z" fill="#FEFFFF"/>
<path d="M197 283H196V293H197V283Z" fill="white"/>
<path d="M200 283H197V284H200V283Z" fill="#EED27C"/>
<path d="M93 284H87V286H93V284Z" fill="#CED7DC"/>
<path d="M94 284H93V286H94V284Z" fill="#CFD7DC"/>
<path d="M96 284H94V286H96V284Z" fill="#A8BEC9"/>
<path d="M97 284H96V286H97V284Z" fill="#A9BEC9"/>
<path d="M100 284H97V287H100V284Z" fill="#89A2B0"/>
<path d="M124 284H120V287H124V284Z" fill="#FEFFFF"/>
<path d="M130 284H124V286H130V284Z" fill="#CED7DC"/>
<path d="M133 284H130V286H133V284Z" fill="#A8BEC9"/>
<path d="M134 284H133V286H134V284Z" fill="#A9BEC9"/>
<path d="M136 284H134V287H136V284Z" fill="#89A2B0"/>
<path d="M137 284H136V293H137V284Z" fill="#88A2B0"/>
<path d="M167 284H160V286H167V284Z" fill="#CED7DC"/>
<path d="M170 284H167V286H170V284Z" fill="#A8BEC9"/>
<path d="M173 284H170V287H173V284Z" fill="#89A2B0"/>
<path d="M174 284H173V293H174V284Z" fill="#88A2B0"/>
<path d="M200 284H197V286H200V284Z" fill="#CED7DC"/>
<path d="M76 286H67V287H76V286Z" fill="#D8D5D5"/>
<path d="M77 286H76V287H77V286Z" fill="#D9D5D5"/>
<path d="M83 286H77V290H83V286Z" fill="#D8D5D5"/>
<path d="M93 286H87V287H93V286Z" fill="#CFD7DC"/>
<path d="M94 286H93V287H94V286Z" fill="#CED7DC"/>
<path d="M96 286H94V287H96V286Z" fill="#A9BEC9"/>
<path d="M97 286H96V287H97V286Z" fill="#A8BEC9"/>
<path d="M130 286H124V287H130V286Z" fill="#CFD7DC"/>
<path d="M133 286H130V287H133V286Z" fill="#A9BEC9"/>
<path d="M134 286H133V287H134V286Z" fill="#A8BEC9"/>
<path d="M167 286H160V287H167V286Z" fill="#CFD7DC"/>
<path d="M170 286H167V287H170V286Z" fill="#A9BEC9"/>
<path d="M186 286H177V287H186V286Z" fill="#D8D5D5"/>
<path d="M187 286H186V287H187V286Z" fill="#D9D5D5"/>
<path d="M193 286H187V290H193V286Z" fill="#D8D5D5"/>
<path d="M200 286H197V287H200V286Z" fill="#CFD7DC"/>
<path d="M74 287H67V293H74V287Z" fill="#D8D5D5"/>
<path d="M76 287H74V290H76V287Z" fill="#A8BEC9"/>
<path d="M77 287H76V290H77V287Z" fill="#A9BEC9"/>
<path d="M100 287H87V294H100V287Z" fill="#89A2B0"/>
<path d="M110 287H104V294H110V287Z" fill="#D8D5D5"/>
<path d="M114 287H110V290H114V287Z" fill="#A8BEC9"/>
<path d="M120 287H114V290H120V287Z" fill="#D8D5D5"/>
<path d="M123 287H120V293H123V287Z" fill="#FEFFFF"/>
<path d="M124 287H123V293H124V287Z" fill="white"/>
<path d="M136 287H124V293H136V287Z" fill="#89A2B0"/>
<path d="M146 287H140V293H146V287Z" fill="#D8D5D5"/>
<path d="M147 287H146V293H147V287Z" fill="#D9D5D5"/>
<path d="M150 287H147V290H150V287Z" fill="#A8BEC9"/>
<path d="M157 287H150V290H157V287Z" fill="#D8D5D5"/>
<path d="M173 287H160V293H173V287Z" fill="#89A2B0"/>
<path d="M184 287H177V293H184V287Z" fill="#D8D5D5"/>
<path d="M186 287H184V290H186V287Z" fill="#A8BEC9"/>
<path d="M187 287H186V290H187V287Z" fill="#A9BEC9"/>
<path d="M200 287H197V294H200V287Z" fill="#89A2B0"/>
<path d="M80 290H74V293H80V290Z" fill="#A8BEC9"/>
<path d="M83 290H80V294H83V290Z" fill="#D8D5D5"/>
<path d="M116 290H110V293H116V290Z" fill="#A8BEC9"/>
<path d="M117 290H116V293H117V290Z" fill="#A9BEC9"/>
<path d="M120 290H117V294H120V290Z" fill="#D8D5D5"/>
<path d="M154 290H147V293H154V290Z" fill="#A8BEC9"/>
<path d="M157 290H154V294H157V290Z" fill="#D8D5D5"/>
<path d="M190 290H184V293H190V290Z" fill="#A8BEC9"/>
<path d="M193 290H190V294H193V290Z" fill="#D8D5D5"/>
<path d="M73 293H67V294H73V293Z" fill="#D8D5D5"/>
<path d="M74 293H73V294H74V293Z" fill="#D9D5D5"/>
<path d="M80 293H74V294H80V293Z" fill="#A9BEC9"/>
<path d="M87 293H84V314H87V293Z" fill="#FEFFFF"/>
<path d="M116 293H110V294H116V293Z" fill="#A9BEC9"/>
<path d="M117 293H116V294H117V293Z" fill="#A8BEC9"/>
<path d="M124 293H120V313H124V293Z" fill="#FEFFFF"/>
<path d="M137 293H124V294H137V293Z" fill="#89A2B0"/>
<path d="M147 293H140V294H147V293Z" fill="#D8D5D5"/>
<path d="M154 293H147V294H154V293Z" fill="#A9BEC9"/>
<path d="M174 293H160V294H174V293Z" fill="#89A2B0"/>
<path d="M183 293H177V294H183V293Z" fill="#D8D5D5"/>
<path d="M184 293H183V294H184V293Z" fill="#D9D5D5"/>
<path d="M190 293H184V294H190V293Z" fill="#A9BEC9"/>
<path d="M197 293H194V314H197V293Z" fill="#FEFFFF"/>
<path d="M83 294H67V313H83V294Z" fill="#D8D5D5"/>
<path d="M100 294H87V317H100V294Z" fill="#EFD27C"/>
<path d="M120 294H104V314H120V294Z" fill="#D8D5D5"/>
<path d="M136 294H124V313H136V294Z" fill="#EFD27C"/>
<path d="M137 294H136V313H137V294Z" fill="#EED27C"/>
<path d="M157 294H140V314H157V294Z" fill="#D8D5D5"/>
<path d="M173 294H160V317H173V294Z" fill="#EFD27C"/>
<path d="M174 294H173V317H174V294Z" fill="#EED27C"/>
<path d="M193 294H177V313H193V294Z" fill="#D8D5D5"/>
<path d="M200 294H197V317H200V294Z" fill="#EFD27C"/>
<path d="M67 313H64V314H67V313Z" fill="#A9BEC9"/>
<path d="M84 313H67V314H84V313Z" fill="#D8D5D5"/>
<path d="M104 313H100V314H104V313Z" fill="#A9BEC9"/>
<path d="M123 313H120V314H123V313Z" fill="#FEFFFF"/>
<path d="M124 313H123V314H124V313Z" fill="white"/>
<path d="M137 313H124V314H137V313Z" fill="#EFD27C"/>
<path d="M140 313H137V314H140V313Z" fill="#A9BEC9"/>
<path d="M177 313H174V314H177V313Z" fill="#A9BEC9"/>
<path d="M194 313H177V314H194V313Z" fill="#D8D5D5"/>
<path d="M67 314H64V316H67V314Z" fill="#C7B25D"/>
<path d="M83 314H67V317H83V314Z" fill="#A8BEC9"/>
<path d="M84 314H83V317H84V314Z" fill="#A9BEC9"/>
<path d="M86 314H84V316H86V314Z" fill="#C7B25D"/>
<path d="M87 314H86V316H87V314Z" fill="#C6B25D"/>
<path d="M104 314H100V316H104V314Z" fill="#C7B25D"/>
<path d="M120 314H104V317H120V314Z" fill="#A8BEC9"/>
<path d="M123 314H120V317H123V314Z" fill="#C7B25D"/>
<path d="M124 314H123V317H124V314Z" fill="#C6B25D"/>
<path d="M136 314H124V317H136V314Z" fill="#EFD27C"/>
<path d="M137 314H136V317H137V314Z" fill="#EED27C"/>
<path d="M140 314H137V317H140V314Z" fill="#C7B25D"/>
<path d="M157 314H140V316H157V314Z" fill="#A8BEC9"/>
<path d="M160 314H157V317H160V314Z" fill="#C7B25D"/>
<path d="M177 314H174V316H177V314Z" fill="#C7B25D"/>
<path d="M193 314H177V317H193V314Z" fill="#A8BEC9"/>
<path d="M194 314H193V317H194V314Z" fill="#A9BEC9"/>
<path d="M196 314H194V316H196V314Z" fill="#C7B25D"/>
<path d="M197 314H196V316H197V314Z" fill="#C6B25D"/>
<path d="M66 316H64V317H66V316Z" fill="#C7B25D"/>
<path d="M67 316H66V317H67V316Z" fill="#C6B25D"/>
<path d="M87 316H84V317H87V316Z" fill="#C7B25D"/>
<path d="M103 316H100V317H103V316Z" fill="#C7B25D"/>
<path d="M104 316H103V317H104V316Z" fill="#C6B25D"/>
<path d="M156 316H140V317H156V316Z" fill="#A8BEC9"/>
<path d="M157 316H156V317H157V316Z" fill="#A9BEC9"/>
<path d="M176 316H174V317H176V316Z" fill="#C7B25D"/>
<path d="M177 316H176V317H177V316Z" fill="#C6B25D"/>
<path d="M197 316H194V317H197V316Z" fill="#C7B25D"/>
<path d="M56 317H0V320H56V317Z" fill="#EFD27C"/>
<path d="M57 317H56V320H57V317Z" fill="#EED27C"/>
<path d="M83 317H57V320H83V317Z" fill="#C7B25D"/>
<path d="M84 317H83V320H84V317Z" fill="#C6B25D"/>
<path d="M93 317H84V320H93V317Z" fill="#EFD27C"/>
<path d="M94 317H93V320H94V317Z" fill="#EED27C"/>
<path d="M120 317H94V320H120V317Z" fill="#C7B25D"/>
<path d="M130 317H120V320H130V317Z" fill="#EFD27C"/>
<path d="M156 317H130V320H156V317Z" fill="#C7B25D"/>
<path d="M157 317H156V320H157V317Z" fill="#C6B25D"/>
<path d="M166 317H157V320H166V317Z" fill="#EFD27C"/>
<path d="M167 317H166V320H167V317Z" fill="#EED27C"/>
<path d="M193 317H167V320H193V317Z" fill="#C7B25D"/>
<path d="M194 317H193V320H194V317Z" fill="#C6B25D"/>
<path d="M200 317H194V320H200V317Z" fill="#EFD27C"/>
<path d="M50 320H0V324H50V320Z" fill="#EFD27C"/>
<path d="M76 320H50V323H76V320Z" fill="#C7B25D"/>
<path d="M77 320H76V323H77V320Z" fill="#C6B25D"/>
<path d="M86 320H77V324H86V320Z" fill="#EFD27C"/>
<path d="M87 320H86V324H87V320Z" fill="#EED27C"/>
<path d="M113 320H87V323H113V320Z" fill="#C7B25D"/>
<path d="M114 320H113V323H114V320Z" fill="#C6B25D"/>
<path d="M123 320H114V324H123V320Z" fill="#EFD27C"/>
<path d="M124 320H123V324H124V320Z" fill="#EED27C"/>
<path d="M150 320H124V323H150V320Z" fill="#C7B25D"/>
<path d="M160 320H150V323H160V320Z" fill="#EFD27C"/>
<path d="M186 320H160V323H186V320Z" fill="#C7B25D"/>
<path d="M187 320H186V323H187V320Z" fill="#C6B25D"/>
<path d="M196 320H187V324H196V320Z" fill="#EFD27C"/>
<path d="M197 320H196V324H197V320Z" fill="#EED27C"/>
<path d="M200 320H197V324H200V320Z" fill="#C7B25D"/>
<path d="M73 323H50V324H73V323Z" fill="#C7B25D"/>
<path d="M77 323H73V324H77V323Z" fill="#C6B25D"/>
<path d="M110 323H87V324H110V323Z" fill="#C7B25D"/>
<path d="M114 323H110V324H114V323Z" fill="#C6B25D"/>
<path d="M147 323H124V324H147V323Z" fill="#C7B25D"/>
<path d="M150 323H147V324H150V323Z" fill="#C6B25D"/>
<path d="M156 323H150V324H156V323Z" fill="#EFD27C"/>
<path d="M157 323H156V327H157V323Z" fill="#EED27C"/>
<path d="M160 323H157V324H160V323Z" fill="#EFD27C"/>
<path d="M183 323H160V324H183V323Z" fill="#C7B25D"/>
<path d="M187 323H183V324H187V323Z" fill="#C6B25D"/>
<path d="M47 324H0V327H47V324Z" fill="#EFD27C"/>
<path d="M73 324H47V327H73V324Z" fill="#C7B25D"/>
<path d="M74 324H73V327H74V324Z" fill="#C6B25D"/>
<path d="M83 324H74V327H83V324Z" fill="#EFD27C"/>
<path d="M84 324H83V327H84V324Z" fill="#EED27C"/>
<path d="M110 324H84V327H110V324Z" fill="#C7B25D"/>
<path d="M120 324H110V327H120V324Z" fill="#EFD27C"/>
<path d="M146 324H120V326H146V324Z" fill="#C7B25D"/>
<path d="M147 324H146V326H147V324Z" fill="#C6B25D"/>
<path d="M156 324H147V327H156V324Z" fill="#EFD27C"/>
<path d="M183 324H157V326H183V324Z" fill="#C7B25D"/>
<path d="M184 324H183V327H184V324Z" fill="#C6B25D"/>
<path d="M193 324H184V327H193V324Z" fill="#EFD27C"/>
<path d="M194 324H193V327H194V324Z" fill="#EED27C"/>
<path d="M200 324H194V327H200V324Z" fill="#C7B25D"/>
<path d="M126 326H120V327H126V326Z" fill="#C7B25D"/>
<path d="M146 326H126V327H146V326Z" fill="#C6B25D"/>
<path d="M147 326H146V327H147V326Z" fill="#C7B25D"/>
<path d="M173 326H157V327H173V326Z" fill="#C7B25D"/>
<path d="M180 326H173V327H180V326Z" fill="#C6B25D"/>
<path d="M183 326H180V327H183V326Z" fill="#C7B25D"/>
<path d="M40 327H0V330H40V327Z" fill="#EFD27C"/>
<path d="M66 327H40V330H66V327Z" fill="#C7B25D"/>
<path d="M67 327H66V330H67V327Z" fill="#C6B25D"/>
<path d="M76 327H67V330H76V327Z" fill="#EFD27C"/>
<path d="M77 327H76V330H77V327Z" fill="#EED27C"/>
<path d="M103 327H77V330H103V327Z" fill="#C7B25D"/>
<path d="M104 327H103V330H104V327Z" fill="#C6B25D"/>
<path d="M113 327H104V330H113V327Z" fill="#EFD27C"/>
<path d="M114 327H113V330H114V327Z" fill="#EED27C"/>
<path d="M127 327H114V330H127V327Z" fill="#C7B25D"/>
<path d="M146 327H127V330H146V327Z" fill="#CFB056"/>
<path d="M147 327H146V330H147V327Z" fill="#CEB056"/>
<path d="M150 327H147V330H150V327Z" fill="#EFD27C"/>
<path d="M173 327H150V330H173V327Z" fill="#C7B25D"/>
<path d="M174 327H173V333H174V327Z" fill="#C6B25D"/>
<path d="M180 327H174V330H180V327Z" fill="#CFB056"/>
<path d="M186 327H180V330H186V327Z" fill="#EFD27C"/>
<path d="M187 327H186V330H187V327Z" fill="#EED27C"/>
<path d="M200 327H187V330H200V327Z" fill="#C7B25D"/>
<path d="M33 330H0V334H33V330Z" fill="#EFD27C"/>
<path d="M34 330H33V334H34V330Z" fill="#EED27C"/>
<path d="M63 330H34V333H63V330Z" fill="#C7B25D"/>
<path d="M64 330H63V333H64V330Z" fill="#C6B25D"/>
<path d="M70 330H64V333H70V330Z" fill="#EFD27C"/>
<path d="M100 330H70V333H100V330Z" fill="#C7B25D"/>
<path d="M106 330H100V334H106V330Z" fill="#EFD27C"/>
<path d="M107 330H106V334H107V330Z" fill="#EED27C"/>
<path d="M136 330H107V333H136V330Z" fill="#C7B25D"/>
<path d="M137 330H136V333H137V330Z" fill="#C6B25D"/>
<path d="M143 330H137V334H143V330Z" fill="#EFD27C"/>
<path d="M144 330H143V334H144V330Z" fill="#EED27C"/>
<path d="M173 330H144V333H173V330Z" fill="#C7B25D"/>
<path d="M180 330H174V333H180V330Z" fill="#EFD27C"/>
<path d="M200 330H180V334H200V330Z" fill="#C7B25D"/>
<path d="M57 333H34V334H57V333Z" fill="#C7B25D"/>
<path d="M64 333H57V334H64V333Z" fill="#C6B25D"/>
<path d="M66 333H64V334H66V333Z" fill="#EFD27C"/>
<path d="M67 333H66V337H67V333Z" fill="#EED27C"/>
<path d="M70 333H67V334H70V333Z" fill="#EFD27C"/>
<path d="M93 333H70V334H93V333Z" fill="#C7B25D"/>
<path d="M100 333H93V334H100V333Z" fill="#C6B25D"/>
<path d="M130 333H107V334H130V333Z" fill="#C7B25D"/>
<path d="M137 333H130V334H137V333Z" fill="#C6B25D"/>
<path d="M167 333H144V334H167V333Z" fill="#C7B25D"/>
<path d="M174 333H167V334H174V333Z" fill="#C6B25D"/>
<path d="M176 333H174V334H176V333Z" fill="#EFD27C"/>
<path d="M177 333H176V337H177V333Z" fill="#EED27C"/>
<path d="M180 333H177V334H180V333Z" fill="#EFD27C"/>
<path d="M30 334H0V337H30V334Z" fill="#EFD27C"/>
<path d="M56 334H30V336H56V334Z" fill="#C7B25D"/>
<path d="M57 334H56V336H57V334Z" fill="#C6B25D"/>
<path d="M66 334H57V337H66V334Z" fill="#EFD27C"/>
<path d="M93 334H67V337H93V334Z" fill="#C7B25D"/>
<path d="M94 334H93V337H94V334Z" fill="#C6B25D"/>
<path d="M103 334H94V337H103V334Z" fill="#EFD27C"/>
<path d="M104 334H103V337H104V334Z" fill="#EED27C"/>
<path d="M130 334H104V337H130V334Z" fill="#C7B25D"/>
<path d="M140 334H130V337H140V334Z" fill="#EFD27C"/>
<path d="M166 334H140V336H166V334Z" fill="#C7B25D"/>
<path d="M167 334H166V336H167V334Z" fill="#C6B25D"/>
<path d="M176 334H167V337H176V334Z" fill="#EFD27C"/>
<path d="M200 334H177V337H200V334Z" fill="#C7B25D"/>
<path d="M57 336H30V337H57V336Z" fill="#C7B25D"/>
<path d="M167 336H140V337H167V336Z" fill="#C7B25D"/>
<path d="M23 337H0V340H23V337Z" fill="#EFD27C"/>
<path d="M24 337H23V340H24V337Z" fill="#EED27C"/>
<path d="M50 337H24V340H50V337Z" fill="#C7B25D"/>
<path d="M60 337H50V340H60V337Z" fill="#EFD27C"/>
<path d="M86 337H60V340H86V337Z" fill="#C7B25D"/>
<path d="M87 337H86V340H87V337Z" fill="#C6B25D"/>
<path d="M96 337H87V340H96V337Z" fill="#EFD27C"/>
<path d="M97 337H96V340H97V337Z" fill="#EED27C"/>
<path d="M123 337H97V340H123V337Z" fill="#C7B25D"/>
<path d="M124 337H123V340H124V337Z" fill="#C6B25D"/>
<path d="M133 337H124V340H133V337Z" fill="#EFD27C"/>
<path d="M134 337H133V340H134V337Z" fill="#EED27C"/>
<path d="M160 337H134V340H160V337Z" fill="#C7B25D"/>
<path d="M170 337H160V340H170V337Z" fill="#EFD27C"/>
<path d="M196 337H170V340H196V337Z" fill="#C7B25D"/>
<path d="M197 337H196V340H197V337Z" fill="#C6B25D"/>
<path d="M200 337H197V340H200V337Z" fill="#EFD27C"/>
<path d="M16 340H0V344H16V340Z" fill="#EFD27C"/>
<path d="M17 340H16V344H17V340Z" fill="#EED27C"/>
<path d="M46 340H17V343H46V340Z" fill="#C7B25D"/>
<path d="M47 340H46V343H47V340Z" fill="#C6B25D"/>
<path d="M53 340H47V344H53V340Z" fill="#EFD27C"/>
<path d="M54 340H53V344H54V340Z" fill="#EED27C"/>
<path d="M83 340H54V343H83V340Z" fill="#C7B25D"/>
<path d="M84 340H83V343H84V340Z" fill="#C6B25D"/>
<path d="M90 340H84V343H90V340Z" fill="#EFD27C"/>
<path d="M120 340H90V343H120V340Z" fill="#C7B25D"/>
<path d="M126 340H120V344H126V340Z" fill="#EFD27C"/>
<path d="M127 340H126V344H127V340Z" fill="#EED27C"/>
<path d="M156 340H127V343H156V340Z" fill="#C7B25D"/>
<path d="M157 340H156V343H157V340Z" fill="#C6B25D"/>
<path d="M163 340H157V344H163V340Z" fill="#EFD27C"/>
<path d="M164 340H163V344H164V340Z" fill="#EED27C"/>
<path d="M193 340H164V343H193V340Z" fill="#C7B25D"/>
<path d="M194 340H193V343H194V340Z" fill="#C6B25D"/>
<path d="M200 340H194V344H200V340Z" fill="#EFD27C"/>
<path d="M40 343H17V344H40V343Z" fill="#C7B25D"/>
<path d="M47 343H40V344H47V343Z" fill="#C6B25D"/>
<path d="M77 343H54V344H77V343Z" fill="#C7B25D"/>
<path d="M84 343H77V344H84V343Z" fill="#C6B25D"/>
<path d="M86 343H84V344H86V343Z" fill="#EFD27C"/>
<path d="M87 343H86V346H87V343Z" fill="#EED27C"/>
<path d="M90 343H87V344H90V343Z" fill="#EFD27C"/>
<path d="M113 343H90V344H113V343Z" fill="#C7B25D"/>
<path d="M120 343H113V344H120V343Z" fill="#C6B25D"/>
<path d="M150 343H127V344H150V343Z" fill="#C7B25D"/>
<path d="M157 343H150V344H157V343Z" fill="#C6B25D"/>
<path d="M187 343H164V344H187V343Z" fill="#C7B25D"/>
<path d="M194 343H187V344H194V343Z" fill="#C6B25D"/>
<path d="M14 344H0V347H14V344Z" fill="#EFD27C"/>
<path d="M40 344H14V347H40V344Z" fill="#C7B25D"/>
<path d="M50 344H40V347H50V344Z" fill="#EFD27C"/>
<path d="M76 344H50V346H76V344Z" fill="#C7B25D"/>
<path d="M77 344H76V346H77V344Z" fill="#C6B25D"/>
<path d="M86 344H77V346H86V344Z" fill="#EFD27C"/>
<path d="M113 344H87V347H113V344Z" fill="#C7B25D"/>
<path d="M114 344H113V347H114V344Z" fill="#C6B25D"/>
<path d="M123 344H114V346H123V344Z" fill="#EFD27C"/>
<path d="M124 344H123V346H124V344Z" fill="#EED27C"/>
<path d="M150 344H124V347H150V344Z" fill="#C7B25D"/>
<path d="M160 344H150V347H160V344Z" fill="#EFD27C"/>
<path d="M186 344H160V346H186V344Z" fill="#C7B25D"/>
<path d="M187 344H186V346H187V344Z" fill="#C6B25D"/>
<path d="M200 344H187V346H200V344Z" fill="#EFD27C"/>
<path d="M77 346H50V347H77V346Z" fill="#C7B25D"/>
<path d="M87 346H77V347H87V346Z" fill="#EFD27C"/>
<path d="M124 346H114V347H124V346Z" fill="#EFD27C"/>
<path d="M187 346H160V347H187V346Z" fill="#C7B25D"/>
<path d="M193 346H187V347H193V346Z" fill="#EFD27C"/>
<path d="M200 346H193V347H200V346Z" fill="#EED27C"/>
<path d="M17 347H0V354H17V347Z" fill="#EED27C"/>
<path d="M30 347H17V350H30V347Z" fill="#C7B25D"/>
<path d="M53 347H30V350H53V347Z" fill="#EFD27C"/>
<path d="M54 347H53V350H54V347Z" fill="#EED27C"/>
<path d="M66 347H54V350H66V347Z" fill="#C7B25D"/>
<path d="M67 347H66V350H67V347Z" fill="#C6B25D"/>
<path d="M90 347H67V350H90V347Z" fill="#EFD27C"/>
<path d="M103 347H90V350H103V347Z" fill="#C7B25D"/>
<path d="M104 347H103V350H104V347Z" fill="#C6B25D"/>
<path d="M126 347H104V350H126V347Z" fill="#EFD27C"/>
<path d="M127 347H126V350H127V347Z" fill="#EED27C"/>
<path d="M140 347H127V350H140V347Z" fill="#C7B25D"/>
<path d="M163 347H140V350H163V347Z" fill="#EFD27C"/>
<path d="M164 347H163V350H164V347Z" fill="#EED27C"/>
<path d="M176 347H164V350H176V347Z" fill="#C7B25D"/>
<path d="M177 347H176V350H177V347Z" fill="#C6B25D"/>
<path d="M194 347H177V350H194V347Z" fill="#EFD27C"/>
<path d="M200 347H194V350H200V347Z" fill="#CFB056"/>
<path d="M200 350H17V353H200V350Z" fill="#EFD27C"/>
<path d="M144 353H17V354H144V353Z" fill="#EFD27C"/>
<path d="M147 353H144V354H147V353Z" fill="#EED27C"/>
<path d="M157 353H147V357H157V353Z" fill="#EFD27C"/>
<path d="M160 353H157V354H160V353Z" fill="#EED27C"/>
<path d="M200 353H160V356H200V353Z" fill="#EFD27C"/>
<path d="M144 354H0V357H144V354Z" fill="#EFD27C"/>
<path d="M146 354H144V356H146V354Z" fill="#CFB056"/>
<path d="M147 354H146V356H147V354Z" fill="#CEB056"/>
<path d="M160 354H157V356H160V354Z" fill="#CFB056"/>
<path d="M146 356H144V357H146V356Z" fill="#CEB056"/>
<path d="M147 356H146V357H147V356Z" fill="#CFB056"/>
<path d="M160 356H157V357H160V356Z" fill="#CEB056"/>
<path d="M177 356H160V357H177V356Z" fill="#EFD27C"/>
<path d="M183 356H177V357H183V356Z" fill="#EED27C"/>
<path d="M200 356H183V357H200V356Z" fill="#EFD27C"/>
<path d="M177 357H0V360H177V357Z" fill="#EFD27C"/>
<path d="M184 357H177V360H184V357Z" fill="#CFB056"/>
<path d="M200 357H184V360H200V357Z" fill="#EFD27C"/>
<path d="M200 360H0V363H200V360Z" fill="#EFD27C"/>
<path d="M187 363H0V366H187V363Z" fill="#EFD27C"/>
<path d="M200 363H187V364H200V363Z" fill="#EED27C"/>
<path d="M200 364H187V366H200V364Z" fill="#CFB056"/>
<path d="M123 366H0V367H123V366Z" fill="#EFD27C"/>
<path d="M136 366H123V367H136V366Z" fill="#EED27C"/>
<path d="M187 366H136V367H187V366Z" fill="#EFD27C"/>
<path d="M200 366H187V367H200V366Z" fill="#CEB056"/>
<path d="M124 367H0V370H124V367Z" fill="#EFD27C"/>
<path d="M136 367H124V370H136V367Z" fill="#CFB056"/>
<path d="M137 367H136V370H137V367Z" fill="#CEB056"/>
<path d="M200 367H137V370H200V367Z" fill="#EFD27C"/>
<path d="M94 370H0V374H94V370Z" fill="#EFD27C"/>
<path d="M104 370H94V373H104V370Z" fill="#CFB056"/>
<path d="M110 370H104V374H110V370Z" fill="#EFD27C"/>
<path d="M116 370H110V374H116V370Z" fill="#CFB056"/>
<path d="M117 370H116V374H117V370Z" fill="#CEB056"/>
<path d="M200 370H117V374H200V370Z" fill="#EFD27C"/>
<path d="M103 373H94V374H103V373Z" fill="#CFB056"/>
<path d="M104 373H103V374H104V373Z" fill="#CEB056"/>
<path d="M200 374H0V377H200V374Z" fill="#EFD27C"/>
<path d="M200 377H0V383H200V377Z" fill="#EFD27C"/>
<path d="M154 383H0V387H154V383Z" fill="#EFD27C"/>
<path d="M187 383H154V384H187V383Z" fill="#EED27C"/>
<path d="M200 383H187V387H200V383Z" fill="#EFD27C"/>
<path d="M186 384H154V386H186V384Z" fill="#CFB056"/>
<path d="M187 384H186V386H187V384Z" fill="#CEB056"/>
<path d="M186 386H154V387H186V386Z" fill="#CEB056"/>
<path d="M187 386H186V387H187V386Z" fill="#CFB056"/>
<path d="M200 387H0V390H200V387Z" fill="#EFD27C"/>
<path d="M4 390H0V394H4V390Z" fill="#EFD27C"/>
<path d="M20 390H4V394H20V390Z" fill="#CFB056"/>
<path d="M97 390H20V394H97V390Z" fill="#EFD27C"/>
<path d="M106 390H97V394H106V390Z" fill="#CFB056"/>
<path d="M107 390H106V394H107V390Z" fill="#CEB056"/>
<path d="M200 390H107V394H200V390Z" fill="#EFD27C"/>
<path d="M200 394H0V400H200V394Z" fill="#EFD27C"/>
</g>
<defs>
<clipPath id="clip0_68_9984">
<rect width="200" height="400" fill="white"/>
</clipPath>
</defs>
</svg>
