<svg width="40" height="40" viewBox="0 0 40 40" fill="none" xmlns="http://www.w3.org/2000/svg">
<rect x="8" y="6" width="22" height="2" fill="black"/>
<rect x="10" y="4" width="2" height="2" fill="black"/>
<rect x="12" y="4" width="2" height="2" fill="black"/>
<rect x="14" y="4" width="2" height="2" fill="black"/>
<rect x="16" y="6" width="2" height="2" fill="black"/>
<rect x="18" y="6" width="2" height="2" fill="black"/>
<rect x="20" y="6" width="2" height="2" fill="black"/>
<rect x="22" y="6" width="2" height="2" fill="black"/>
<rect x="26" y="4" width="2" height="2" fill="black"/>
<rect x="24" y="4" width="2" height="2" fill="black"/>
<rect x="28" y="4" width="2" height="2" fill="black"/>
<rect width="2" height="2" transform="matrix(-1 0 0 1 32 6)" fill="black"/>
<rect x="6" y="8" width="26" height="2" fill="black"/>
<rect width="2" height="2" transform="matrix(-1 0 0 1 34 8)" fill="black"/>
<rect x="4" y="10" width="30" height="2" fill="black"/>
<rect width="2" height="2" transform="matrix(-1 0 0 1 36 10)" fill="black"/>
<rect x="2" y="12" width="2" height="2" fill="black"/>
<rect width="30" height="2" transform="matrix(-1 0 0 1 38 12)" fill="black"/>
<rect x="2" y="14" width="2" height="2" fill="black"/>
<rect width="30" height="2" transform="matrix(-1 0 0 1 38 14)" fill="black"/>
<rect x="2" y="16" width="2" height="2" fill="black"/>
<rect width="2" height="2" transform="matrix(-1 0 0 1 38 16)" fill="black"/>
<rect x="2" y="18" width="2" height="2" fill="black"/>
<rect width="2" height="2" transform="matrix(-1 0 0 1 38 18)" fill="black"/>
<rect x="4" y="12" width="2" height="8" fill="black"/>
<rect width="2" height="2" transform="matrix(-1 0 0 1 36 18)" fill="black"/>
<rect x="6" y="12" width="2" height="8" fill="black"/>
<rect width="2" height="2" transform="matrix(-1 0 0 1 34 18)" fill="black"/>
<rect x="8" y="16" width="2" height="2" fill="black"/>
<rect width="6" height="2" transform="matrix(-1 0 0 1 36 16)" fill="black"/>
<rect x="10" y="16" width="2" height="2" fill="black"/>
<rect width="18" height="2" transform="matrix(-1 0 0 1 30 16)" fill="black"/>
<rect x="10" y="18" width="2" height="2" fill="black"/>
<rect width="2" height="2" transform="matrix(-1 0 0 1 30 18)" fill="black"/>
<rect x="10" y="20" width="2" height="2" fill="black"/>
<rect width="2" height="2" transform="matrix(-1 0 0 1 30 20)" fill="black"/>
<rect x="10" y="22" width="2" height="2" fill="black"/>
<rect width="2" height="2" transform="matrix(-1 0 0 1 30 22)" fill="black"/>
<rect x="10" y="24" width="2" height="2" fill="black"/>
<rect width="2" height="2" transform="matrix(-1 0 0 1 30 24)" fill="black"/>
<rect x="10" y="26" width="2" height="2" fill="black"/>
<rect width="2" height="2" transform="matrix(-1 0 0 1 30 26)" fill="black"/>
<rect x="10" y="28" width="2" height="2" fill="black"/>
<rect width="2" height="2" transform="matrix(-1 0 0 1 30 28)" fill="black"/>
<rect x="10" y="30" width="2" height="2" fill="black"/>
<rect x="10" y="32" width="2" height="2" fill="black"/>
<rect x="10" y="34" width="2" height="2" fill="black"/>
<rect width="2" height="2" transform="matrix(-1 0 0 1 30 30)" fill="black"/>
<rect width="2" height="2" transform="matrix(-1 0 0 1 30 32)" fill="black"/>
<rect width="2" height="2" transform="matrix(-1 0 0 1 30 34)" fill="black"/>
<rect x="10" y="34" width="2" height="2" fill="black"/>
<rect x="12" y="14" width="2" height="22" fill="black"/>
<rect x="14" y="14" width="2" height="22" fill="black"/>
<rect x="16" y="14" width="2" height="22" fill="black"/>
<rect x="18" y="14" width="2" height="22" fill="black"/>
<rect x="20" y="14" width="2" height="22" fill="black"/>
<rect x="22" y="14" width="2" height="22" fill="black"/>
<rect x="24" y="14" width="2" height="22" fill="black"/>
<rect x="26" y="14" width="2" height="22" fill="black"/>
<rect x="28" y="34" width="2" height="2" fill="black"/>
</svg>
