<svg width="20" height="20" viewBox="0 0 20 20" fill="none" xmlns="http://www.w3.org/2000/svg">
<rect x="6" y="2" width="2" height="2" fill="black"/>
<rect x="4" y="2" width="2" height="2" fill="black"/>
<rect x="4" y="4" width="2" height="2" fill="black"/>
<rect x="2" y="4" width="2" height="2" fill="black"/>
<rect x="2" y="8" width="2" height="2" fill="black"/>
<rect x="2" y="6" width="2" height="2" fill="black"/>
<rect y="6" width="2" height="2" fill="black"/>
<rect y="8" width="2" height="2" fill="black"/>
<rect x="4" y="6" width="12" height="2" fill="black"/>
<rect x="6" y="8" width="8" height="10" fill="black"/>
<rect x="6" y="4" width="2" height="2" fill="black"/>
<rect x="8" y="4" width="2" height="2" fill="black"/>
<rect x="10" y="4" width="2" height="2" fill="black"/>
<rect x="12" y="2" width="2" height="2" fill="black"/>
<rect x="14" y="2" width="2" height="2" fill="black"/>
<rect x="12" y="4" width="2" height="2" fill="black"/>
<rect x="14" y="4" width="2" height="2" fill="black"/>
<rect x="16" y="4" width="2" height="2" fill="black"/>
<rect x="16" y="4" width="2" height="2" fill="black"/>
<rect x="16" y="6" width="2" height="2" fill="black"/>
<rect x="16" y="8" width="2" height="2" fill="black"/>
<rect x="18" y="8" width="2" height="2" fill="black"/>
<rect x="18" y="6" width="2" height="2" fill="black"/>
</svg>
