<svg width="40" height="40" viewBox="0 0 40 40" fill="none" xmlns="http://www.w3.org/2000/svg">
<rect x="2" y="34" width="2" height="2" fill="black"/>
<rect x="4" y="32" width="2" height="2" fill="black"/>
<rect x="6" y="30" width="2" height="2" fill="black"/>
<rect x="8" y="28" width="2" height="2" fill="black"/>
<rect x="10" y="26" width="2" height="2" fill="black"/>
<rect x="8" y="24" width="2" height="2" fill="black"/>
<rect x="6" y="22" width="2" height="2" fill="black"/>
<rect x="6" y="20" width="2" height="2" fill="black"/>
<rect x="10" y="24" width="2" height="2" fill="black"/>
<rect x="12" y="22" width="2" height="2" fill="black"/>
<rect x="14" y="20" width="2" height="2" fill="black"/>
<rect x="2" y="36" width="2" height="2" fill="black"/>
<rect x="4" y="36" width="2" height="2" fill="black"/>
<rect x="6" y="34" width="2" height="2" fill="black"/>
<rect x="8" y="32" width="2" height="2" fill="black"/>
<rect x="10" y="30" width="2" height="2" fill="black"/>
<rect x="10" y="28" width="2" height="2" fill="black"/>
<rect x="14" y="28" width="2" height="2" fill="black"/>
<rect x="12" y="28" width="2" height="2" fill="black"/>
<rect x="14" y="30" width="2" height="2" fill="black"/>
<rect x="16" y="32" width="2" height="2" fill="black"/>
<rect x="18" y="32" width="2" height="2" fill="black"/>
<rect x="16" y="26" width="2" height="2" fill="black"/>
<rect x="18" y="24" width="2" height="2" fill="black"/>
<rect x="20" y="22" width="2" height="2" fill="black"/>
<rect x="22" y="20" width="2" height="2" fill="black"/>
<rect x="24" y="18" width="2" height="2" fill="black"/>
<rect x="26" y="16" width="2" height="2" fill="black"/>
<rect x="28" y="14" width="2" height="2" fill="black"/>
<rect x="30" y="12" width="2" height="2" fill="black"/>
<rect x="32" y="10" width="2" height="2" fill="black"/>
<rect x="34" y="8" width="2" height="2" fill="black"/>
<rect x="36" y="6" width="2" height="2" fill="black"/>
<rect x="36" y="4" width="2" height="2" fill="black"/>
<rect x="34" y="6" width="2" height="2" fill="black"/>
<rect x="36" y="2" width="2" height="2" fill="black"/>
<rect x="34" y="4" width="2" height="2" fill="black"/>
<rect x="32" y="6" width="2" height="2" fill="black"/>
<rect x="32" y="8" width="2" height="2" fill="black"/>
<rect x="30" y="10" width="2" height="2" fill="black"/>
<rect x="28" y="12" width="2" height="2" fill="black"/>
<rect x="26" y="14" width="2" height="2" fill="black"/>
<rect x="24" y="16" width="2" height="2" fill="black"/>
<rect x="22" y="18" width="2" height="2" fill="black"/>
<rect x="20" y="20" width="2" height="2" fill="black"/>
<rect x="18" y="22" width="2" height="2" fill="black"/>
<rect x="16" y="24" width="2" height="2" fill="black"/>
<rect x="14" y="26" width="2" height="2" fill="black"/>
<rect x="30" y="8" width="2" height="2" fill="black"/>
<rect x="28" y="10" width="2" height="2" fill="black"/>
<rect x="26" y="12" width="2" height="2" fill="black"/>
<rect x="24" y="14" width="2" height="2" fill="black"/>
<rect x="22" y="16" width="2" height="2" fill="black"/>
<rect x="20" y="18" width="2" height="2" fill="black"/>
<rect x="18" y="20" width="2" height="2" fill="black"/>
<rect x="16" y="22" width="2" height="2" fill="black"/>
<rect x="14" y="24" width="2" height="2" fill="black"/>
<rect x="12" y="26" width="2" height="2" fill="black"/>
<rect x="34" y="2" width="2" height="2" fill="black"/>
<rect x="32" y="2" width="2" height="2" fill="black"/>
<rect x="30" y="4" width="2" height="2" fill="black"/>
<rect x="28" y="6" width="2" height="2" fill="black"/>
<rect x="26" y="8" width="2" height="2" fill="black"/>
<rect x="24" y="10" width="2" height="2" fill="black"/>
<rect x="22" y="12" width="2" height="2" fill="black"/>
<rect x="20" y="14" width="2" height="2" fill="black"/>
<rect x="18" y="16" width="2" height="2" fill="black"/>
<rect x="16" y="18" width="2" height="2" fill="black"/>
<rect x="4" y="34" width="2" height="2" fill="black"/>
<rect x="6" y="32" width="2" height="2" fill="black"/>
<rect x="8" y="30" width="2" height="2" fill="black"/>
</svg>
