<svg width="30" height="60" viewBox="0 0 30 60" fill="none" xmlns="http://www.w3.org/2000/svg">
  <g clip-path="url(#clip0_1_250)">
    <rect x="28" y="58" width="2" height="2" fill="#00000044" />
    <rect x="28" y="56" width="2" height="2" fill="#00000044" />
    <rect x="26" y="54" width="2" height="2" fill="#00000044" />
    <rect x="26" y="52" width="2" height="2" fill="#00000044" />
    <rect x="24" y="50" width="2" height="2" fill="#00000044" />
    <rect x="24" y="48" width="2" height="2" fill="#00000044" />
    <rect x="22" y="46" width="2" height="2" fill="#00000044" />
    <rect x="22" y="44" width="2" height="2" fill="#00000044" />
    <rect x="20" y="42" width="2" height="2" fill="#00000044" />
    <rect x="20" y="40" width="2" height="2" fill="#00000044" />
    <rect x="18" y="38" width="2" height="2" fill="#00000044" />
    <rect x="18" y="36" width="2" height="2" fill="#00000044" />
    <rect x="16" y="34" width="2" height="2" fill="#00000044" />
    <rect x="16" y="32" width="2" height="2" fill="#00000044" />
    <rect x="14" y="30" width="2" height="2" fill="#00000044" />
    <rect x="14" y="28" width="2" height="2" fill="#00000044" />
    <rect x="12" y="26" width="2" height="2" fill="#00000044" />
    <rect x="12" y="24" width="2" height="2" fill="#00000044" />
    <rect x="10" y="22" width="2" height="2" fill="#00000044" />
    <rect x="10" y="20" width="2" height="2" fill="#00000044" />
    <rect x="8" y="18" width="2" height="2" fill="#00000044" />
    <rect x="8" y="16" width="2" height="2" fill="#00000044" />
    <rect x="6" y="14" width="2" height="2" fill="#00000044" />
    <rect x="6" y="12" width="2" height="2" fill="#00000044" />
    <rect x="4" y="10" width="2" height="2" fill="#00000044" />
    <rect x="4" y="8" width="2" height="2" fill="#00000044" />
    <rect x="2" y="6" width="2" height="2" fill="#00000044" />
    <rect x="2" y="4" width="2" height="2" fill="#00000044" />
    <rect y="2" width="2" height="2" fill="#00000044" />
    <rect width="2" height="2" fill="#00000044" />
    <rect y="4" width="2" height="56" fill="#00000044" />
    <rect x="2" y="8" width="2" height="52" fill="#00000044" />
    <rect x="4" y="12" width="2" height="48" fill="#00000044" />
    <rect x="6" y="16" width="2" height="44" fill="#00000044" />
    <rect x="8" y="20" width="2" height="40" fill="#00000044" />
    <rect x="10" y="24" width="2" height="36" fill="#00000044" />
    <rect x="12" y="28" width="2" height="32" fill="#00000044" />
    <rect x="14" y="32" width="2" height="28" fill="#00000044" />
    <rect x="16" y="36" width="2" height="24" fill="#00000044" />
    <rect x="18" y="40" width="2" height="20" fill="#00000044" />
    <rect x="20" y="44" width="2" height="16" fill="#00000044" />
    <rect x="22" y="48" width="2" height="12" fill="#00000044" />
    <rect x="24" y="52" width="2" height="8" fill="#00000044" />
    <rect x="26" y="56" width="2" height="4" fill="#00000044" />
  </g>
  <defs>
    <clipPath id="clip0_1_250">
      <rect width="30" height="60" fill="#00000044" />
    </clipPath>
  </defs>
</svg>